g Attach05
v -0.2772881 -0.2987136 4.720746E-08
v -0.2771712 -0.1740727 0.1587282
v -0.2226737 -0.2398787 0.1587281
v -0.3451538 -0.2167674 6.055819E-08
v -0.3190775 0.07290214 0.1587282
v -0.3603022 0.1905282 1.269151E-07
v -0.2893361 0.1530016 0.1587282
v -0.397337 0.09078287 1.106645E-07
v -0.1200489 0.3894964 1.593311E-07
v -0.01216492 0.3270743 0.1587282
v -0.09640382 0.3127809 0.1587282
v -0.01514845 0.4072956 1.62231E-07
v 0.3603038 -0.1905282 6.483309E-08
v 0.3190791 -0.07290223 0.1587282
v 0.3973386 -0.09078282 8.108368E-08
v 0.2893392 -0.1530017 0.1587282
v 0.1905288 0.3603029 1.545749E-07
v 0.2226752 0.2398787 0.1587282
v 0.1530016 0.2893373 0.1587282
v 0.2772912 0.2987136 1.445407E-07
v 0.3127812 0.09640392 0.1587282
v 0.3451538 0.2167674 1.3119E-07
v 0.3894959 0.1200489 1.154325E-07
v 0.2771727 0.1740727 0.1587282
v 0.2771727 0.1740727 0.1587282
v 0.2772912 0.2987136 1.445407E-07
v 0.3451538 0.2167674 1.3119E-07
v 0.2226752 0.2398787 0.1587282
v -0.01514845 0.4072956 1.62231E-07
v 0.07290181 0.3190782 0.1587282
v -0.01216492 0.3270743 0.1587282
v 0.09078451 0.3973383 1.606087E-07
v 0.1200489 -0.3894964 3.241706E-08
v 0.01216646 -0.3270743 0.1587281
v 0.09640382 -0.3127809 0.1587281
v 0.01514999 -0.4072956 2.95172E-08
v -0.2987129 0.2772894 1.410503E-07
v -0.174071 0.277172 0.1587282
v -0.2398778 0.2226742 0.1587282
v -0.2167667 0.3451538 1.521068E-07
v 0.2987144 -0.2772894 5.06979E-08
v 0.1740725 -0.277172 0.1587281
v 0.2398794 -0.2226742 0.1587281
v 0.2167682 -0.3451537 3.96414E-08
v -0.2893361 0.1530016 0.1587282
v -0.2987129 0.2772894 1.410503E-07
v -0.2398778 0.2226742 0.1587282
v -0.3603022 0.1905282 1.269151E-07
v -0.4072955 -0.01514922 9.340597E-08
v -0.3190775 0.07290214 0.1587282
v -0.3270741 -0.01216545 0.1587282
v -0.397337 0.09078287 1.106645E-07
v 0.09078451 0.3973383 1.606087E-07
v 0.1530016 0.2893373 0.1587282
v 0.07290181 0.3190782 0.1587282
v 0.1905288 0.3603029 1.545749E-07
v -0.09078143 -0.3973382 3.113946E-08
v -0.1530016 -0.2893374 0.1587281
v -0.07290181 -0.3190782 0.1587281
v -0.1905273 -0.3603029 3.717328E-08
v 0.01514999 -0.4072956 2.95172E-08
v -0.07290181 -0.3190782 0.1587281
v 0.01216646 -0.3270743 0.1587281
v -0.09078143 -0.3973382 3.113946E-08
v 0.2987144 -0.2772894 5.06979E-08
v 0.2893392 -0.1530017 0.1587282
v 0.3603038 -0.1905282 6.483309E-08
v 0.2398794 -0.2226742 0.1587281
v 0.3270757 0.01216535 0.1587282
v 0.3894959 0.1200489 1.154325E-07
v 0.4072955 0.01514917 9.834219E-08
v 0.3127812 0.09640392 0.1587282
v -0.3894959 -0.1200488 7.631564E-08
v -0.3270741 -0.01216545 0.1587282
v -0.3127812 -0.09640397 0.1587282
v -0.4072955 -0.01514922 9.340597E-08
v 0.3973386 -0.09078282 8.108368E-08
v 0.3270757 0.01216535 0.1587282
v 0.4072955 0.01514917 9.834219E-08
v 0.3190791 -0.07290223 0.1587282
v -0.3451538 -0.2167674 6.055819E-08
v -0.3127812 -0.09640397 0.1587282
v -0.2771712 -0.1740727 0.1587282
v -0.3894959 -0.1200488 7.631564E-08
v -0.2167667 0.3451538 1.521068E-07
v -0.09640382 0.3127809 0.1587282
v -0.174071 0.277172 0.1587282
v -0.1200489 0.3894964 1.593311E-07
v -0.1905273 -0.3603029 3.717328E-08
v -0.2226737 -0.2398787 0.1587281
v -0.1530016 -0.2893374 0.1587281
v -0.2772881 -0.2987136 4.720746E-08
v 0.2167682 -0.3451537 3.96414E-08
v 0.09640382 -0.3127809 0.1587281
v 0.1740725 -0.277172 0.1587281
v 0.1200489 -0.3894964 3.241706E-08
v -0.1530016 -0.2893374 0.1587281
v 0.01216646 -0.3270743 0.1587281
v -0.07290181 -0.3190782 0.1587281
v -0.2771712 -0.1740727 0.1587282
v 0.2893392 -0.1530017 0.1587282
v 0.1740725 -0.277172 0.1587281
v 0.09640382 -0.3127809 0.1587281
v 0.2398794 -0.2226742 0.1587281
v -0.01216492 0.3270743 0.1587282
v 0.2771727 0.1740727 0.1587282
v 0.3270757 0.01216535 0.1587282
v 0.3190791 -0.07290223 0.1587282
v 0.3127812 0.09640392 0.1587282
v 0.1530016 0.2893373 0.1587282
v 0.2226752 0.2398787 0.1587282
v 0.07290181 0.3190782 0.1587282
v -0.2893361 0.1530016 0.1587282
v -0.174071 0.277172 0.1587282
v -0.09640382 0.3127809 0.1587282
v -0.2398778 0.2226742 0.1587282
v -0.3270741 -0.01216545 0.1587282
v -0.3190775 0.07290214 0.1587282
v -0.3127812 -0.09640397 0.1587282
v -0.2226737 -0.2398787 0.1587281
v -0.3894959 -0.1200488 7.631564E-08
v -0.397337 0.09078287 1.106645E-07
v -0.4072955 -0.01514922 9.340597E-08
v -0.2772881 -0.2987136 4.720746E-08
v -0.1200489 0.3894964 1.593311E-07
v -0.2987129 0.2772894 1.410503E-07
v -0.3603022 0.1905282 1.269151E-07
v -0.2167667 0.3451538 1.521068E-07
v 0.3973386 -0.09078282 8.108368E-08
v 0.2772912 0.2987136 1.445407E-07
v 0.09078451 0.3973383 1.606087E-07
v -0.01514845 0.4072956 1.62231E-07
v 0.1905288 0.3603029 1.545749E-07
v 0.3894959 0.1200489 1.154325E-07
v 0.3451538 0.2167674 1.3119E-07
v 0.4072955 0.01514917 9.834219E-08
v 0.1200489 -0.3894964 3.241706E-08
v 0.2987144 -0.2772894 5.06979E-08
v 0.3603038 -0.1905282 6.483309E-08
v 0.2167682 -0.3451537 3.96414E-08
v -0.09078143 -0.3973382 3.113946E-08
v 0.01514999 -0.4072956 2.95172E-08
v -0.1905273 -0.3603029 3.717328E-08
v -0.3451538 -0.2167674 6.055819E-08
vt 2864.614 1600.923
vt 2840.833 1644.945
vt 2862.016 1644.945
vt 2838.235 1600.923
vt -1743.592 1928.896
vt -1767.372 1884.875
vt -1764.775 1928.896
vt -1740.994 1884.875
vt -4592.418 239.0468
vt -4616.199 283.0682
vt -4595.016 283.0682
vt -4618.796 239.0468
vt 1740.994 -1974.683
vt 1764.775 -1930.662
vt 1767.372 -1974.683
vt 1743.592 -1930.662
vt -3691.414 -1303.856
vt -3715.195 -1259.834
vt -3694.012 -1259.834
vt -3717.792 -1303.856
vt -1814.517 -1921.427
vt -1790.737 -1965.448
vt -1817.115 -1965.448
vt -1793.334 -1921.427
vt -2862.016 -1646.711
vt -2838.235 -1690.732
vt -2864.614 -1690.732
vt -2840.833 -1646.711
vt -4599.446 -304.9288
vt -4623.227 -260.9074
vt -4602.044 -260.9074
vt -4625.824 -304.9288
vt 4618.796 -328.8555
vt 4595.016 -284.8341
vt 4616.199 -284.8341
vt 4592.418 -328.8555
vt -3658.638 1233.193
vt -3682.418 1277.215
vt -3661.236 1277.215
vt -3685.016 1233.193
vt 3685.016 -1323.002
vt 3661.236 -1278.981
vt 3682.418 -1278.981
vt 3658.638 -1323.002
vt -2798.118 1659.636
vt -2821.899 1615.615
vt -2819.301 1659.636
vt -2795.521 1615.615
vt -566.9232 2022.623
vt -590.7036 2066.645
vt -569.5209 2066.645
vt -593.3013 2022.623
vt -4292.13 -831.1841
vt -4315.911 -787.1628
vt -4294.728 -787.1628
vt -4318.508 -831.1841
vt 4318.508 741.3755
vt 4294.728 785.3969
vt 4315.911 785.3969
vt 4292.13 741.3755
vt 4625.824 215.1201
vt 4602.044 259.1415
vt 4623.227 259.1415
vt 4599.446 215.1201
vt 2795.521 -1705.423
vt 2819.301 -1661.402
vt 2821.899 -1705.423
vt 2798.118 -1661.402
vt -644.0838 -2065.26
vt -620.3033 -2109.282
vt -646.6815 -2109.282
vt -622.9011 -2065.26
vt 646.6815 2019.473
vt 622.9011 2063.495
vt 644.0838 2063.495
vt 620.3033 2019.473
vt 566.9232 -2112.432
vt 590.7036 -2068.41
vt 593.3013 -2112.432
vt 569.5209 -2068.41
vt 1817.115 1875.639
vt 1793.334 1919.661
vt 1814.517 1919.661
vt 1790.737 1875.639
vt -4271.526 763.6716
vt -4295.307 807.693
vt -4274.124 807.693
vt -4297.904 763.6716
vt 3717.792 1214.047
vt 3694.012 1258.069
vt 3715.195 1258.069
vt 3691.414 1214.047
vt 4297.904 -853.4803
vt 4274.124 -809.4589
vt 4295.307 -809.4589
vt 4271.526 -853.4803
vt 3715.195 1258.069
vt 4623.227 259.1415
vt 4315.911 785.3969
vt 1814.517 1919.661
vt 2819.301 -1661.402
vt 4295.307 -809.4589
vt 4616.199 -284.8341
vt 3682.418 -1278.981
vt -4602.044 -260.9074
vt -1793.334 -1921.427
vt 590.7036 -2068.41
vt 1764.775 -1930.662
vt -622.9011 -2065.26
vt -3694.012 -1259.834
vt -2840.833 -1646.711
vt -4294.728 -787.1628
vt -2798.118 1659.636
vt -4274.124 807.693
vt -4595.016 283.0682
vt -3661.236 1277.215
vt -569.5209 2066.645
vt -1743.592 1928.896
vt 644.0838 2063.495
vt 2862.016 1644.945
vt 1790.737 1875.639
vt -593.3013 2022.623
vt 620.3033 2019.473
vt 3691.414 1214.047
vt -4297.904 763.6716
vt -2821.899 1615.615
vt -1767.372 1884.875
vt -3685.016 1233.193
vt 566.9232 -2112.432
vt -3717.792 -1303.856
vt -4625.824 -304.9288
vt -4618.796 239.0468
vt -4318.508 -831.1841
vt -1817.115 -1965.448
vt -2864.614 -1690.732
vt -646.6815 -2109.282
vt 4271.526 -853.4803
vt 2795.521 -1705.423
vt 1740.994 -1974.683
vt 3658.638 -1323.002
vt 4599.446 215.1201
vt 4592.418 -328.8555
vt 4292.13 741.3755
vt 2838.235 1600.923
vn -0.6071068 -0.6540166 0.4513131
vn -0.7556889 -0.474604 0.451315
vn -0.6071109 -0.6540142 0.4513113
vn -0.7556906 -0.4746018 0.4513146
vn -0.8699465 0.1987678 0.4513141
vn -0.788861 0.4171489 0.4513147
vn -0.7888594 0.4171511 0.4513156
vn -0.8699481 0.1987662 0.4513116
vn -0.2628402 0.8527781 0.451314
vn -0.03316756 0.8917486 0.4513139
vn -0.2628418 0.8527772 0.451315
vn -0.03316791 0.8917485 0.4513142
vn 0.7888637 -0.4171484 0.4513107
vn 0.8699496 -0.1987626 0.4513106
vn 0.8699501 -0.1987615 0.4513102
vn 0.7888627 -0.4171491 0.4513117
vn 0.4171489 0.788861 0.4513151
vn 0.6071055 0.6540157 0.4513164
vn 0.4171465 0.7888616 0.451316
vn 0.6071089 0.6540135 0.4513149
vn 0.8527793 0.262843 0.4513103
vn 0.755698 0.4745932 0.4513113
vn 0.8527806 0.2628407 0.4513092
vn 0.755696 0.4745947 0.4513129
vn 0.755696 0.4745947 0.4513129
vn 0.6071089 0.6540135 0.4513149
vn 0.755698 0.4745932 0.4513113
vn 0.6071055 0.6540157 0.4513164
vn -0.03316791 0.8917485 0.4513142
vn 0.1987618 0.869947 0.4513158
vn -0.03316756 0.8917486 0.4513139
vn 0.1987645 0.8699466 0.4513154
vn 0.262839 -0.8527787 0.4513138
vn 0.03316958 -0.8917486 0.4513139
vn 0.2628399 -0.8527781 0.4513145
vn 0.03316861 -0.8917488 0.4513135
vn -0.6540142 0.6071073 0.451316
vn -0.4745998 0.7556913 0.4513155
vn -0.654014 0.6071085 0.4513146
vn -0.4746003 0.7556908 0.4513158
vn 0.6540136 -0.6071096 0.4513138
vn 0.4745967 -0.7556934 0.4513152
vn 0.6540092 -0.6071138 0.4513145
vn 0.4745978 -0.7556925 0.4513157
vn -0.7888594 0.4171511 0.4513156
vn -0.6540142 0.6071073 0.451316
vn -0.654014 0.6071085 0.4513146
vn -0.788861 0.4171489 0.4513147
vn -0.8917488 -0.03316641 0.4513136
vn -0.8699465 0.1987678 0.4513141
vn -0.8917494 -0.03316484 0.4513126
vn -0.8699481 0.1987662 0.4513116
vn 0.1987645 0.8699466 0.4513154
vn 0.4171465 0.7888616 0.451316
vn 0.1987618 0.869947 0.4513158
vn 0.4171489 0.788861 0.4513151
vn -0.1987627 -0.8699484 0.4513127
vn -0.4171515 -0.7888614 0.4513118
vn -0.198763 -0.8699482 0.4513129
vn -0.4171503 -0.7888619 0.451312
vn 0.03316861 -0.8917488 0.4513135
vn -0.198763 -0.8699482 0.4513129
vn 0.03316958 -0.8917486 0.4513139
vn -0.1987627 -0.8699484 0.4513127
vn 0.6540136 -0.6071096 0.4513138
vn 0.7888627 -0.4171491 0.4513117
vn 0.7888637 -0.4171484 0.4513107
vn 0.6540092 -0.6071138 0.4513145
vn 0.8917503 0.03317165 0.4513102
vn 0.8527806 0.2628407 0.4513092
vn 0.8917518 0.033172 0.4513074
vn 0.8527793 0.262843 0.4513103
vn -0.8527801 -0.2628386 0.4513115
vn -0.8917494 -0.03316484 0.4513126
vn -0.852779 -0.2628397 0.4513128
vn -0.8917488 -0.03316641 0.4513136
vn 0.8699501 -0.1987615 0.4513102
vn 0.8917503 0.03317165 0.4513102
vn 0.8917518 0.033172 0.4513074
vn 0.8699496 -0.1987626 0.4513106
vn -0.7556906 -0.4746018 0.4513146
vn -0.852779 -0.2628397 0.4513128
vn -0.7556889 -0.474604 0.451315
vn -0.8527801 -0.2628386 0.4513115
vn -0.4746003 0.7556908 0.4513158
vn -0.2628418 0.8527772 0.451315
vn -0.4745998 0.7556913 0.4513155
vn -0.2628402 0.8527781 0.451314
vn -0.4171503 -0.7888619 0.451312
vn -0.6071109 -0.6540142 0.4513113
vn -0.4171515 -0.7888614 0.4513118
vn -0.6071068 -0.6540166 0.4513131
vn 0.4745978 -0.7556925 0.4513157
vn 0.2628399 -0.8527781 0.4513145
vn 0.4745967 -0.7556934 0.4513152
vn 0.262839 -0.8527787 0.4513138
vn 0 -2.578449E-07 1
vn 0 0 1
vn 0 0 1
vn 0 0 1
vn 0 0 1
vn 0 0 1
vn 0 0 1
vn 0 0 1
vn 0 0 1
vn 0 0 1
vn 0 0 1
vn 0 0 1
vn 0 0 1
vn 0 -2.578469E-07 1
vn 0 0 1
vn 0 0 1
vn 0 0 1
vn 0 0 1
vn 0 0 1
vn 0 0 1
vn 0 0 1
vn 0 0 1
vn 0 0 1
vn 0 0 1
vn 0 0 -1
vn 0 0 -1
vn 0 0 -1
vn 0 0 -1
vn 0 0 -1
vn 0 0 -1
vn 0 0 -1
vn 0 0 -1
vn 0 0 -1
vn 0 0 -1
vn 0 0 -1
vn 0 0 -1
vn 0 0 -1
vn 0 0 -1
vn 0 0 -1
vn 0 0 -1
vn 0 0 -1
vn 0 0 -1
vn 0 0 -1
vn 0 0 -1
vn 0 0 -1
vn 0 0 -1
vn 0 0 -1
vn 0 0 -1
g Attach05_0
f 3/3/3 2/2/2 1/1/1
f 4/4/4 1/1/1 2/2/2
f 7/7/7 6/6/6 5/5/5
f 8/8/8 5/5/5 6/6/6
f 11/11/11 10/10/10 9/9/9
f 12/12/12 9/9/9 10/10/10
f 15/15/15 14/14/14 13/13/13
f 16/16/16 13/13/13 14/14/14
f 19/19/19 18/18/18 17/17/17
f 20/20/20 17/17/17 18/18/18
f 23/23/23 22/22/22 21/21/21
f 24/24/24 21/21/21 22/22/22
f 27/27/27 26/26/26 25/25/25
f 28/28/28 25/25/25 26/26/26
f 31/31/31 30/30/30 29/29/29
f 32/32/32 29/29/29 30/30/30
f 35/35/35 34/34/34 33/33/33
f 36/36/36 33/33/33 34/34/34
f 39/39/39 38/38/38 37/37/37
f 40/40/40 37/37/37 38/38/38
f 43/43/43 42/42/42 41/41/41
f 44/44/44 41/41/41 42/42/42
f 47/47/47 46/46/46 45/45/45
f 48/48/48 45/45/45 46/46/46
f 51/51/51 50/50/50 49/49/49
f 52/52/52 49/49/49 50/50/50
f 55/55/55 54/54/54 53/53/53
f 56/56/56 53/53/53 54/54/54
f 59/59/59 58/58/58 57/57/57
f 60/60/60 57/57/57 58/58/58
f 63/63/63 62/62/62 61/61/61
f 64/64/64 61/61/61 62/62/62
f 67/67/67 66/66/66 65/65/65
f 68/68/68 65/65/65 66/66/66
f 71/71/71 70/70/70 69/69/69
f 72/72/72 69/69/69 70/70/70
f 75/75/75 74/74/74 73/73/73
f 76/76/76 73/73/73 74/74/74
f 79/79/79 78/78/78 77/77/77
f 80/80/80 77/77/77 78/78/78
f 83/83/83 82/82/82 81/81/81
f 84/84/84 81/81/81 82/82/82
f 87/87/87 86/86/86 85/85/85
f 88/88/88 85/85/85 86/86/86
f 91/91/91 90/90/90 89/89/89
f 92/92/92 89/89/89 90/90/90
f 95/95/95 94/94/94 93/93/93
f 96/96/96 93/93/93 94/94/94
f 99/99/99 98/98/98 97/97/97
f 98/98/98 100/100/100 97/97/97
f 101/101/101 100/100/100 98/98/98
f 102/102/102 101/101/101 98/98/98
f 103/103/103 102/102/102 98/98/98
f 104/104/104 101/101/101 102/102/102
f 105/105/105 100/100/100 101/101/101
f 106/106/106 105/105/105 101/101/101
f 107/107/107 106/106/106 101/101/101
f 108/108/108 107/107/107 101/101/101
f 109/109/109 106/106/106 107/107/107
f 110/110/110 105/105/105 106/106/106
f 111/111/111 110/110/110 106/106/106
f 112/112/112 105/105/105 110/110/110
f 113/113/113 100/100/100 105/105/105
f 114/114/114 113/113/113 105/105/105
f 115/115/115 114/114/114 105/105/105
f 116/116/116 113/113/113 114/114/114
f 118/118/118 117/117/117 113/113/113
f 117/117/117 100/100/100 113/113/113
f 119/119/119 100/100/100 117/117/117
f 97/97/97 100/100/100 120/120/120
f 123/123/123 122/122/122 121/121/121
f 122/122/122 124/124/124 121/121/121
f 125/125/125 124/124/124 122/122/122
f 126/126/126 125/125/125 122/122/122
f 127/127/127 126/126/126 122/122/122
f 128/128/128 125/125/125 126/126/126
f 129/129/129 124/124/124 125/125/125
f 130/130/130 129/129/129 125/125/125
f 131/131/131 130/130/130 125/125/125
f 132/132/132 131/131/131 125/125/125
f 133/133/133 130/130/130 131/131/131
f 134/134/134 129/129/129 130/130/130
f 135/135/135 134/134/134 130/130/130
f 136/136/136 129/129/129 134/134/134
f 137/137/137 124/124/124 129/129/129
f 138/138/138 137/137/137 129/129/129
f 139/139/139 138/138/138 129/129/129
f 140/140/140 137/137/137 138/138/138
f 142/142/142 141/141/141 137/137/137
f 141/141/141 124/124/124 137/137/137
f 143/143/143 124/124/124 141/141/141
f 121/121/121 124/124/124 144/144/144
