g Attach03
v -0.2400086 0.2232978 9.399155E-08
v -0.1076086 0.172204 0.1856886
v -0.1484932 0.1383452 0.1856886
v -0.1740186 0.2779481 1.028952E-07
v -0.3131151 -0.09667391 4.186154E-08
v -0.2026661 -0.00755826 0.1856886
v -0.1937862 -0.05989481 0.1856886
v -0.3274496 -0.01219947 5.562417E-08
v 0.1539725 0.2901476 1.048828E-07
v 0.1388856 0.1490341 0.1856886
v 0.09559908 0.1797623 0.1856886
v 0.2238385 0.2405505 9.680236E-08
v -0.1740186 0.2779481 1.028952E-07
v -0.05935359 0.1943275 0.1856886
v -0.1076086 0.172204 0.1856886
v -0.09613147 0.3136568 1.087129E-07
v 0.09721471 -0.3136568 6.510535E-09
v 0.008099687 -0.203208 0.1856886
v 0.06043684 -0.1943276 0.1856886
v 0.01274039 -0.3279903 4.175319E-09
v -0.09613147 0.3136568 1.087129E-07
v -0.007016446 0.2032079 0.1856887
v -0.05935359 0.1943275 0.1856886
v -0.01165869 0.3279903 1.110481E-07
v -0.179221 0.09505828 0.1856886
v -0.2400086 0.2232978 9.399155E-08
v -0.1484932 0.1383452 0.1856886
v -0.2896053 0.1534301 8.260864E-08
v -0.1976976 0.04529335 0.1856886
v -0.2896053 0.1534301 8.260864E-08
v -0.179221 0.09505828 0.1856886
v -0.3194299 0.07310636 6.952225E-08
v -0.1528893 -0.2901476 1.034067E-08
v -0.1378024 -0.1490342 0.1856886
v -0.09451585 -0.1797624 0.1856886
v -0.2227553 -0.2405505 1.842107E-08
v 0.2037493 0.007558187 0.1856886
v 0.3141983 0.09667386 7.336189E-08
v 0.3274496 0.01856601 6.06365E-08
v 0.194868 0.05989474 0.1856886
v -0.1937862 -0.05989481 0.1856886
v -0.2804609 -0.1679015 3.025708E-08
v -0.3131151 -0.09667391 4.186154E-08
v -0.1716644 -0.1081496 0.1856886
v -0.2227553 -0.2405505 1.842107E-08
v -0.1716644 -0.1081496 0.1856886
v -0.1378024 -0.1490342 0.1856886
v -0.2804609 -0.1679015 3.025708E-08
v -0.3274496 -0.01219947 5.562417E-08
v -0.1976976 0.04529335 0.1856886
v -0.2026661 -0.00755826 0.1856886
v -0.3194299 0.07310636 6.952225E-08
v 0.07364807 0.3199717 1.097417E-07
v 0.09559908 0.1797623 0.1856886
v 0.04583463 0.1982399 0.1856886
v 0.1539725 0.2901476 1.048828E-07
v 0.1751019 -0.2779482 1.232821E-08
v 0.06043684 -0.1943276 0.1856886
v 0.1086918 -0.1722041 0.1856886
v 0.09721471 -0.3136568 6.510535E-09
v 0.2410919 -0.2232978 2.123189E-08
v 0.1086918 -0.1722041 0.1856886
v 0.1495749 -0.1383453 0.1856886
v 0.1751019 -0.2779482 1.232821E-08
v 0.1727446 0.1081495 0.1856886
v 0.2238385 0.2405505 9.680236E-08
v 0.2784898 0.1745602 8.605117E-08
v 0.1388856 0.1490341 0.1856886
v -0.01165869 0.3279903 1.110481E-07
v 0.04583463 0.1982399 0.1856886
v -0.007016446 0.2032079 0.1856887
v 0.07364807 0.3199717 1.097417E-07
v 0.2410919 -0.2232978 2.123189E-08
v 0.1803042 -0.09505837 0.1856886
v 0.2906886 -0.1534301 3.261478E-08
v 0.1495749 -0.1383453 0.1856886
v 0.3205131 -0.07310636 4.570118E-08
v 0.1803042 -0.09505837 0.1856886
v 0.1987808 -0.04529342 0.1856886
v 0.2906886 -0.1534301 3.261478E-08
v 0.2784898 0.1745602 8.605117E-08
v 0.194868 0.05989474 0.1856886
v 0.1727446 0.1081495 0.1856886
v 0.3141983 0.09667386 7.336189E-08
v 0.3205131 -0.07310636 4.570118E-08
v 0.2037493 0.007558187 0.1856886
v 0.3274496 0.01856601 6.06365E-08
v 0.1987808 -0.04529342 0.1856886
v -0.07256483 -0.3199717 5.481705E-09
v -0.09451585 -0.1797624 0.1856886
v -0.04475139 -0.19824 0.1856886
v -0.1528893 -0.2901476 1.034067E-08
v 0.01274039 -0.3279903 4.175319E-09
v -0.04475139 -0.19824 0.1856886
v 0.008099687 -0.203208 0.1856886
v -0.07256483 -0.3199717 5.481705E-09
v -0.179221 0.09505828 0.1856886
v -0.2026661 -0.00755826 0.1856886
v -0.1976976 0.04529335 0.1856886
v -0.1076086 0.172204 0.1856886
v -0.09451585 -0.1797624 0.1856886
v -0.1716644 -0.1081496 0.1856886
v -0.1937862 -0.05989481 0.1856886
v -0.1378024 -0.1490342 0.1856886
v 0.2037493 0.007558187 0.1856886
v 0.1086918 -0.1722041 0.1856886
v 0.008099687 -0.203208 0.1856886
v -0.04475139 -0.19824 0.1856886
v 0.06043684 -0.1943276 0.1856886
v 0.1803042 -0.09505837 0.1856886
v 0.1495749 -0.1383453 0.1856886
v 0.1987808 -0.04529342 0.1856886
v 0.09559908 0.1797623 0.1856886
v 0.1727446 0.1081495 0.1856886
v 0.194868 0.05989474 0.1856886
v 0.1388856 0.1490341 0.1856886
v -0.007016446 0.2032079 0.1856887
v 0.04583463 0.1982399 0.1856886
v -0.05935359 0.1943275 0.1856886
v -0.1484932 0.1383452 0.1856886
v -0.1740186 0.2779481 1.028952E-07
v -0.01165869 0.3279903 1.110481E-07
v -0.09613147 0.3136568 1.087129E-07
v -0.2896053 0.1534301 8.260864E-08
v -0.3274496 -0.01219947 5.562417E-08
v -0.2227553 -0.2405505 1.842107E-08
v 0.3205131 -0.07310636 4.570118E-08
v 0.2784898 0.1745602 8.605117E-08
v 0.1539725 0.2901476 1.048828E-07
v 0.07364807 0.3199717 1.097417E-07
v 0.2238385 0.2405505 9.680236E-08
v 0.3274496 0.01856601 6.06365E-08
v 0.3141983 0.09667386 7.336189E-08
v 0.09721471 -0.3136568 6.510535E-09
v 0.2410919 -0.2232978 2.123189E-08
v 0.2906886 -0.1534301 3.261478E-08
v 0.1751019 -0.2779482 1.232821E-08
v -0.07256483 -0.3199717 5.481705E-09
v 0.01274039 -0.3279903 4.175319E-09
v -0.1528893 -0.2901476 1.034067E-08
v -0.2804609 -0.1679015 3.025708E-08
v -0.3131151 -0.09667391 4.186154E-08
v -0.3194299 0.07310636 6.952225E-08
v -0.2400086 0.2232978 9.399155E-08
vt -4409.934 1922.905
vt -4427.135 1978.234
vt -4413.974 1978.234
vt -4431.175 1922.905
vt 872.2112 3062.737
vt 855.0099 3118.066
vt 868.1705 3118.066
vt 850.9692 3062.737
vt -4559.726 -1904.12
vt -4576.927 -1848.791
vt -4563.766 -1848.791
vt -4580.968 -1904.12
vt -5177.36 1221.185
vt -5194.562 1276.514
vt -5181.401 1276.514
vt -5198.603 1221.185
vt 5612.477 -522.6978
vt 5595.275 -467.3689
vt 5608.436 -467.3689
vt 5591.235 -522.6978
vt -5591.235 433.1933
vt -5608.436 488.5222
vt -5595.275 488.5222
vt -5612.477 433.1933
vt -3345.294 2545.862
vt -3362.495 2490.533
vt -3358.454 2545.862
vt -3341.253 2490.533
vt -2048.189 2940.714
vt -2065.39 2885.385
vt -2061.349 2940.714
vt -2044.148 2885.385
vt 4580.968 1814.616
vt 4563.766 1869.945
vt 4576.927 1869.945
vt 4559.726 1814.616
vt -868.1705 -3096.912
vt -850.9692 -3152.241
vt -870.6103 -3152.241
vt -855.0099 -3096.912
vt 2275.519 2888.479
vt 2706.092 2691.247
vt 2271.478 2833.15
vt 2288.679 2888.479
vt 3557.708 2407.439
vt 3540.507 2462.768
vt 3553.667 2462.768
vt 2706.092 2691.247
vt -607.0137 3080.553
vt -624.2151 3135.882
vt -611.0544 3135.882
vt -628.2558 3080.553
vt -5271.523 -1184.584
vt -5288.725 -1129.255
vt -5275.564 -1129.255
vt -5292.766 -1184.584
vt 5198.603 -1310.69
vt 5181.401 -1255.361
vt 5194.562 -1255.361
vt 5177.36 -1310.69
vt 4431.175 -2012.41
vt 4413.974 -1957.081
vt 4427.135 -1957.081
vt 4409.934 -2012.41
vt -3553.667 -2441.615
vt -3536.466 -2496.944
vt -3557.708 -2496.944
vt -3540.507 -2441.615
vt -5623.352 -387.3697
vt -5640.554 -332.0408
vt -5627.393 -332.0408
vt -5644.594 -387.3697
vt 3341.253 -2580.037
vt 3358.454 -2524.708
vt 3362.495 -2580.037
vt 3345.294 -2524.708
vt 2065.39 -2974.889
vt 2048.189 -2919.561
vt 2061.349 -2919.561
vt 2044.148 -2974.889
vt -2271.478 -2922.655
vt -2288.679 -2867.326
vt -2275.519 -2867.326
vt -2292.72 -2922.655
vt 607.0137 -3170.058
vt 624.2151 -3114.729
vt 628.2558 -3170.058
vt 611.0544 -3114.729
vt 5292.766 1095.079
vt 5275.564 1150.408
vt 5288.725 1150.408
vt 5271.523 1095.079
vt 5644.594 297.8651
vt 5627.393 353.194
vt 5640.554 353.194
vt 5623.352 297.8651
vt -3345.294 2545.862
vt -611.0544 3135.882
vt -2048.189 2940.714
vt -5181.401 1276.514
vt 4576.927 1869.945
vt 2288.679 2888.479
vt 868.1705 3118.066
vt 3553.667 2462.768
vt 624.2151 -3114.729
vt 5194.562 -1255.361
vt 5640.554 353.194
vt 5288.725 1150.408
vt 5608.436 -467.3689
vt 3358.454 -2524.708
vt 4427.135 -1957.081
vt 2061.349 -2919.561
vt -4563.766 -1848.791
vt -2275.519 -2867.326
vt -855.0099 -3096.912
vt -3540.507 -2441.615
vt -5627.393 -332.0408
vt -5275.564 -1129.255
vt -5595.275 488.5222
vt -4413.974 1978.234
vt -4431.175 1922.905
vt -5612.477 433.1933
vt -5198.603 1221.185
vt -2065.39 2885.385
vt 850.9692 3062.737
vt 4559.726 1814.616
vt 607.0137 -3170.058
vt -3557.708 -2496.944
vt -5292.766 -1184.584
vt -5644.594 -387.3697
vt -4580.968 -1904.12
vt -870.6103 -3152.241
vt -2292.72 -2922.655
vt 5177.36 -1310.69
vt 3341.253 -2580.037
vt 2044.148 -2974.889
vt 4409.934 -2012.41
vt 5623.352 297.8651
vt 5591.235 -522.6978
vt 5271.523 1095.079
vt 2706.092 2691.247
vt 2271.478 2833.15
vt -628.2558 3080.553
vt -3362.495 2490.533
vn -0.6081806 0.5645579 0.5580239
vn -0.4413364 0.7027311 0.5580245
vn -0.6081812 0.5645576 0.5580235
vn -0.4413364 0.7027311 0.5580245
vn -0.7930124 -0.2444144 0.5580258
vn -0.8292498 -0.03083718 0.5580268
vn -0.7930176 -0.2444037 0.5580233
vn -0.8292481 -0.0308433 0.5580288
vn 0.3879163 0.7335708 0.5580276
vn 0.5645593 0.6081764 0.5580271
vn 0.3879148 0.7335716 0.5580276
vn 0.5645595 0.6081765 0.5580268
vn -0.4413364 0.7027311 0.5580245
vn -0.2444175 0.7930123 0.5580249
vn -0.4413364 0.7027311 0.5580245
vn -0.2444178 0.793012 0.5580249
vn 0.2444167 -0.7930129 0.5580242
vn 0.03084281 -0.8292508 0.558025
vn 0.2444173 -0.7930124 0.5580245
vn 0.03084339 -0.8292505 0.5580253
vn -0.2444178 0.793012 0.5580249
vn -0.03084245 0.8292505 0.5580253
vn -0.2444175 0.7930123 0.5580249
vn -0.03084542 0.82925 0.558026
vn -0.7335802 0.3879053 0.5580229
vn -0.6081806 0.5645579 0.5580239
vn -0.6081812 0.5645576 0.5580235
vn -0.7335746 0.3879133 0.5580247
vn -0.8089777 0.1848323 0.5580252
vn -0.7335746 0.3879133 0.5580247
vn -0.7335802 0.3879053 0.5580229
vn -0.8089746 0.1848397 0.5580272
vn -0.3879165 -0.7335711 0.5580272
vn -0.5645454 -0.6081896 0.5580267
vn -0.387915 -0.7335719 0.5580271
vn -0.5702667 -0.6041604 0.5565844
vn 0.829651 0.03077838 0.5574333
vn 0.7930136 0.2444107 0.558026
vn 0.8304862 0.0398805 0.5556097
vn 0.7930072 0.2444246 0.5580288
vn -0.7930176 -0.2444037 0.5580233
vn -0.7095908 -0.433709 0.5553173
vn -0.7930124 -0.2444144 0.5580258
vn -0.7030605 -0.4416603 0.5573527
vn -0.5702667 -0.6041604 0.5565844
vn -0.7030605 -0.4416603 0.5573527
vn -0.5645454 -0.6081896 0.5580267
vn -0.7095908 -0.433709 0.5553173
vn -0.8292481 -0.0308433 0.5580288
vn -0.8089777 0.1848323 0.5580252
vn -0.8292498 -0.03083718 0.5580268
vn -0.8089746 0.1848397 0.5580272
vn 0.184832 0.8089768 0.5580265
vn 0.3879148 0.7335716 0.5580276
vn 0.1848348 0.8089767 0.5580259
vn 0.3879163 0.7335708 0.5580276
vn 0.4413362 -0.7027312 0.5580243
vn 0.2444173 -0.7930124 0.5580245
vn 0.4413411 -0.7027268 0.5580261
vn 0.2444167 -0.7930129 0.5580242
vn 0.6081805 -0.5645577 0.5580243
vn 0.4413411 -0.7027268 0.5580261
vn 0.6081778 -0.5645581 0.5580269
vn 0.4413362 -0.7027312 0.5580243
vn 0.7027283 0.4413364 0.5580279
vn 0.5645595 0.6081765 0.5580268
vn 0.7027269 0.4413376 0.5580286
vn 0.5645593 0.6081764 0.5580271
vn -0.03084542 0.82925 0.558026
vn 0.1848348 0.8089767 0.5580259
vn -0.03084245 0.8292505 0.5580253
vn 0.184832 0.8089768 0.5580265
vn 0.6081805 -0.5645577 0.5580243
vn 0.7335727 -0.3879129 0.5580275
vn 0.733575 -0.387915 0.558023
vn 0.6081778 -0.5645581 0.5580269
vn 0.811167 -0.1790098 0.5567439
vn 0.7335727 -0.3879129 0.5580275
vn 0.808977 -0.1848295 0.5580271
vn 0.733575 -0.387915 0.558023
vn 0.7027269 0.4413376 0.5580286
vn 0.7930072 0.2444246 0.5580288
vn 0.7027283 0.4413364 0.5580279
vn 0.7930136 0.2444107 0.558026
vn 0.811167 -0.1790098 0.5567439
vn 0.829651 0.03077838 0.5574333
vn 0.8304862 0.0398805 0.5556097
vn 0.808977 -0.1848295 0.5580271
vn -0.1848327 -0.808977 0.5580261
vn -0.387915 -0.7335719 0.5580271
vn -0.1848346 -0.8089769 0.5580256
vn -0.3879165 -0.7335711 0.5580272
vn 0.03084339 -0.8292505 0.5580253
vn -0.1848346 -0.8089769 0.5580256
vn 0.03084281 -0.8292508 0.558025
vn -0.1848327 -0.808977 0.5580261
vn 0 0 1
vn 0 0 1
vn -8.777612E-07 0 1
vn 0 0 1
vn 0 0 1
vn 0 0 1
vn 0 0 1
vn 6.790423E-07 5.624065E-07 1
vn 0 0 1
vn 0 0 1
vn 0 0 1
vn 0 0 1
vn 0 0 1
vn 0 0 1
vn 0 0 1
vn 8.264968E-07 -3.068603E-07 1
vn 0 0 1
vn 0 0 1
vn -8.013874E-07 -3.674116E-07 1
vn -5.102908E-07 -7.188431E-07 1
vn 0 -3.298881E-07 1
vn 3.068479E-07 8.2641E-07 1
vn -3.673816E-07 8.01322E-07 1
vn 5.622546E-07 -6.789233E-07 1
vn 0 0 -1
vn 0 0 -1
vn 0 0 -1
vn 0 0 -1
vn 0 0 -1
vn 0 0 -1
vn 0 0 -1
vn 0 0 -1
vn 0 0 -1
vn 0 0 -1
vn 0 0 -1
vn 0 0 -1
vn 0 0 -1
vn 0 0 -1
vn 0 0 -1
vn 0 0 -1
vn 0 0 -1
vn 0 0 -1
vn 0 0 -1
vn 0 0 -1
vn 0 0 -1
vn 0 0 -1
vn 0 0 -1
vn 0 0 -1
g Attach03_0
f 3/3/3 2/2/2 1/1/1
f 4/4/4 1/1/1 2/2/2
f 7/7/7 6/6/6 5/5/5
f 8/8/8 5/5/5 6/6/6
f 11/11/11 10/10/10 9/9/9
f 12/12/12 9/9/9 10/10/10
f 15/15/15 14/14/14 13/13/13
f 16/16/16 13/13/13 14/14/14
f 19/19/19 18/18/18 17/17/17
f 20/20/20 17/17/17 18/18/18
f 23/23/23 22/22/22 21/21/21
f 24/24/24 21/21/21 22/22/22
f 27/27/27 26/26/26 25/25/25
f 28/28/28 25/25/25 26/26/26
f 31/31/31 30/30/30 29/29/29
f 32/32/32 29/29/29 30/30/30
f 35/35/35 34/34/34 33/33/33
f 36/36/36 33/33/33 34/34/34
f 39/39/39 38/38/38 37/37/37
f 40/40/40 37/37/37 38/38/38
f 43/43/43 42/42/42 41/41/41
f 44/44/44 41/41/41 42/42/42
f 47/47/47 46/46/46 45/45/45
f 48/48/48 45/45/45 46/46/46
f 51/51/51 50/50/50 49/49/49
f 52/52/52 49/49/49 50/50/50
f 55/55/55 54/54/54 53/53/53
f 56/56/56 53/53/53 54/54/54
f 59/59/59 58/58/58 57/57/57
f 60/60/60 57/57/57 58/58/58
f 63/63/63 62/62/62 61/61/61
f 64/64/64 61/61/61 62/62/62
f 67/67/67 66/66/66 65/65/65
f 68/68/68 65/65/65 66/66/66
f 71/71/71 70/70/70 69/69/69
f 72/72/72 69/69/69 70/70/70
f 75/75/75 74/74/74 73/73/73
f 76/76/76 73/73/73 74/74/74
f 79/79/79 78/78/78 77/77/77
f 80/80/80 77/77/77 78/78/78
f 83/83/83 82/82/82 81/81/81
f 84/84/84 81/81/81 82/82/82
f 87/87/87 86/86/86 85/85/85
f 88/88/88 85/85/85 86/86/86
f 91/91/91 90/90/90 89/89/89
f 92/92/92 89/89/89 90/90/90
f 95/95/95 94/94/94 93/93/93
f 96/96/96 93/93/93 94/94/94
f 99/99/99 98/98/98 97/97/97
f 98/98/98 100/100/100 97/97/97
f 101/101/101 100/100/100 98/98/98
f 102/102/102 101/101/101 98/98/98
f 103/103/103 102/102/102 98/98/98
f 104/104/104 101/101/101 102/102/102
f 105/105/105 100/100/100 101/101/101
f 106/106/106 105/105/105 101/101/101
f 107/107/107 106/106/106 101/101/101
f 108/108/108 107/107/107 101/101/101
f 109/109/109 106/106/106 107/107/107
f 110/110/110 105/105/105 106/106/106
f 111/111/111 110/110/110 106/106/106
f 112/112/112 105/105/105 110/110/110
f 113/113/113 100/100/100 105/105/105
f 114/114/114 113/113/113 105/105/105
f 115/115/115 114/114/114 105/105/105
f 116/116/116 113/113/113 114/114/114
f 118/118/118 117/117/117 113/113/113
f 117/117/117 100/100/100 113/113/113
f 119/119/119 100/100/100 117/117/117
f 97/97/97 100/100/100 120/120/120
f 123/123/123 122/122/122 121/121/121
f 122/122/122 124/124/124 121/121/121
f 125/125/125 124/124/124 122/122/122
f 126/126/126 125/125/125 122/122/122
f 127/127/127 126/126/126 122/122/122
f 128/128/128 127/127/127 122/122/122
f 129/129/129 128/128/128 122/122/122
f 130/130/130 129/129/129 122/122/122
f 131/131/131 128/128/128 129/129/129
f 132/132/132 127/127/127 128/128/128
f 133/133/133 132/132/132 128/128/128
f 134/134/134 126/126/126 127/127/127
f 135/135/135 134/134/134 127/127/127
f 136/136/136 135/135/135 127/127/127
f 137/137/137 134/134/134 135/135/135
f 138/138/138 126/126/126 134/134/134
f 139/139/139 138/138/138 134/134/134
f 140/140/140 126/126/126 138/138/138
f 141/141/141 125/125/125 126/126/126
f 142/142/142 125/125/125 141/141/141
f 143/143/143 124/124/124 125/125/125
f 124/124/124 144/144/144 121/121/121
