g Attach10
v -0.5642169 0.1289109 0.1143383
v -0.6051325 0.3199942 1.784981E-07
v -0.5116271 0.2705485 0.1143383
v -0.6673337 0.1524708 1.512051E-07
v 0.3640636 -0.5796894 3.192103E-08
v 0.1704685 -0.5530818 0.1143382
v 0.3078081 -0.4901155 0.1143382
v 0.2016236 -0.6541635 1.978766E-08
v -0.4657105 -0.5016928 4.462831E-08
v -0.4901151 -0.3078079 0.1143382
v -0.3937484 -0.4241709 0.1143382
v -0.5796893 -0.3640632 6.7051E-08
v 0.5530822 0.1704683 0.1143383
v 0.5796897 0.3640632 1.856779E-07
v 0.6541636 0.2016234 1.592131E-07
v 0.4901157 0.3078079 0.1143383
v 0.02544346 -0.6840574 1.491733E-08
v -0.1289107 -0.564217 0.1143382
v 0.02151172 -0.5783564 0.1143382
v -0.1524704 -0.6673339 1.764193E-08
v -0.5796893 -0.3640632 6.7051E-08
v -0.5530818 -0.1704684 0.1143382
v -0.4901151 -0.3078079 0.1143382
v -0.6541634 -0.2016234 9.351582E-08
v 0.5016929 -0.4657106 5.049055E-08
v 0.5116274 -0.2705485 0.1143382
v 0.6051327 -0.3199942 7.423075E-08
v 0.4241707 -0.3937487 0.1143382
v 0.2016236 -0.6541635 1.978766E-08
v 0.02151172 -0.5783564 0.1143382
v 0.1704685 -0.5530818 0.1143382
v 0.02544346 -0.6840574 1.491733E-08
v -0.6541634 -0.2016234 9.351582E-08
v -0.5783564 -0.02151177 0.1143383
v -0.5530818 -0.1704684 0.1143382
v -0.6840574 -0.02544323 1.222192E-07
v 0.3199942 0.6051327 2.249531E-07
v 0.3937488 0.4241709 0.1143383
v 0.2705486 0.5116272 0.1143383
v 0.4657108 0.5016928 2.081006E-07
v -0.3640632 0.5796894 2.208078E-07
v -0.1704681 0.5530818 0.1143383
v -0.3078077 0.4901155 0.1143383
v -0.2016232 0.6541637 2.329412E-07
v -0.02544308 0.6840574 2.378115E-07
v 0.128911 0.564217 0.1143383
v -0.02151172 0.5783564 0.1143383
v 0.1524708 0.667334 2.35087E-07
v 0.5016929 -0.4657106 5.049055E-08
v 0.3078081 -0.4901155 0.1143382
v 0.4241707 -0.3937487 0.1143382
v 0.3640636 -0.5796894 3.192103E-08
v -0.5016927 0.4657106 2.022383E-07
v -0.3078077 0.4901155 0.1143383
v -0.4241707 0.3937487 0.1143383
v -0.3640632 0.5796894 2.208078E-07
v -0.1524704 -0.6673339 1.764193E-08
v -0.2705485 -0.5116273 0.1143382
v -0.1289107 -0.564217 0.1143382
v -0.319994 -0.6051327 2.77758E-08
v -0.319994 -0.6051327 2.77758E-08
v -0.3937484 -0.4241709 0.1143382
v -0.2705485 -0.5116273 0.1143382
v -0.4657105 -0.5016928 4.462831E-08
v 0.1524708 0.667334 2.35087E-07
v 0.2705486 0.5116272 0.1143383
v 0.128911 0.564217 0.1143383
v 0.3199942 0.6051327 2.249531E-07
v 0.4901157 0.3078079 0.1143383
v 0.4657108 0.5016928 2.081006E-07
v 0.5796897 0.3640632 1.856779E-07
v 0.3937488 0.4241709 0.1143383
v -0.5116271 0.2705485 0.1143383
v -0.5016927 0.4657106 2.022383E-07
v -0.4241707 0.3937487 0.1143383
v -0.6051325 0.3199942 1.784981E-07
v 0.5783564 0.02151172 0.1143383
v 0.6541636 0.2016234 1.592131E-07
v 0.6840578 0.02544327 1.305097E-07
v 0.5530822 0.1704683 0.1143383
v -0.6840574 -0.02544323 1.222192E-07
v -0.5642169 0.1289109 0.1143383
v -0.5783564 -0.02151177 0.1143383
v -0.6673337 0.1524708 1.512051E-07
v -0.2016232 0.6541637 2.329412E-07
v -0.02151172 0.5783564 0.1143383
v -0.1704681 0.5530818 0.1143383
v -0.02544308 0.6840574 2.378115E-07
v 0.6051327 -0.3199942 7.423075E-08
v 0.5642173 -0.1289109 0.1143382
v 0.6673341 -0.1524708 1.015238E-07
v 0.5116274 -0.2705485 0.1143382
v 0.6673341 -0.1524708 1.015238E-07
v 0.5783564 0.02151172 0.1143383
v 0.6840578 0.02544327 1.305097E-07
v 0.5642173 -0.1289109 0.1143382
v -0.5783564 -0.02151177 0.1143383
v -0.4901151 -0.3078079 0.1143382
v -0.5530818 -0.1704684 0.1143382
v -0.5116271 0.2705485 0.1143383
v 0.02151172 -0.5783564 0.1143382
v -0.2705485 -0.5116273 0.1143382
v -0.3937484 -0.4241709 0.1143382
v -0.1289107 -0.564217 0.1143382
v 0.4901157 0.3078079 0.1143383
v 0.5116274 -0.2705485 0.1143382
v 0.3078081 -0.4901155 0.1143382
v 0.1704685 -0.5530818 0.1143382
v 0.4241707 -0.3937487 0.1143382
v 0.5783564 0.02151172 0.1143383
v 0.5642173 -0.1289109 0.1143382
v 0.5530822 0.1704683 0.1143383
v -0.02151172 0.5783564 0.1143383
v 0.2705486 0.5116272 0.1143383
v 0.3937488 0.4241709 0.1143383
v 0.128911 0.564217 0.1143383
v -0.3078077 0.4901155 0.1143383
v -0.1704681 0.5530818 0.1143383
v -0.4241707 0.3937487 0.1143383
v -0.5642169 0.1289109 0.1143383
v -0.5016927 0.4657106 2.022383E-07
v -0.2016232 0.6541637 2.329412E-07
v -0.3640632 0.5796894 2.208078E-07
v -0.6673337 0.1524708 1.512051E-07
v 0.4657108 0.5016928 2.081006E-07
v 0.1524708 0.667334 2.35087E-07
v -0.02544308 0.6840574 2.378115E-07
v 0.3199942 0.6051327 2.249531E-07
v 0.2016236 -0.6541635 1.978766E-08
v 0.6673341 -0.1524708 1.015238E-07
v 0.6541636 0.2016234 1.592131E-07
v 0.5796897 0.3640632 1.856779E-07
v 0.6840578 0.02544327 1.305097E-07
v 0.5016929 -0.4657106 5.049055E-08
v 0.6051327 -0.3199942 7.423075E-08
v 0.3640636 -0.5796894 3.192103E-08
v -0.4657105 -0.5016928 4.462831E-08
v -0.1524704 -0.6673339 1.764193E-08
v 0.02544346 -0.6840574 1.491733E-08
v -0.319994 -0.6051327 2.77758E-08
v -0.6541634 -0.2016234 9.351582E-08
v -0.5796893 -0.3640632 6.7051E-08
v -0.6840574 -0.02544323 1.222192E-07
v -0.6051325 0.3199942 1.784981E-07
vt -461.585 425.7173
vt -502.4646 387.2535
vt -499.0418 425.7173
vt -458.1621 387.2535
vt 885.8727 -238.4088
vt 844.993 -199.945
vt 882.4499 -199.945
vt 841.5702 -238.4088
vt 423.8694 417.9253
vt 382.9897 456.3891
vt 420.4466 456.3891
vt 379.5669 417.9253
vt -203.1842 -659.0825
vt -162.3045 -697.5463
vt -206.607 -697.5463
vt -165.7274 -659.0825
vt 862.3839 70.20361
vt 821.5042 108.6674
vt 858.9611 108.6674
vt 818.0814 70.20361
vt 206.607 470.0878
vt 165.7274 508.5516
vt 203.1842 508.5516
vt 162.3045 470.0878
vt 633.6256 -513.6134
vt 674.5052 -475.1496
vt 677.9281 -513.6134
vt 637.0484 -475.1496
vt 904.1828 -83.05749
vt 863.3031 -44.59365
vt 900.7599 -44.59365
vt 859.8803 -83.05749
vt -23.22572 482.4642
vt -64.10538 520.928
vt -26.64854 520.928
vt -67.52821 482.4642
vt -569.4529 -556.9898
vt -610.3325 -518.526
vt -572.8757 -518.526
vt -613.7554 -556.9898
vt -841.5702 10.95035
vt -882.4499 49.41418
vt -844.993 49.41418
vt -885.8727 10.95035
vt -818.0814 -297.6621
vt -858.9611 -259.1982
vt -821.5042 -259.1982
vt -862.3839 -297.6621
vt 808.7014 -385.2634
vt 767.8218 -346.7996
vt 805.2786 -346.7996
vt 764.3989 -385.2634
vt -764.3989 157.805
vt -805.2786 196.2688
vt -767.8218 196.2688
vt -808.7014 157.805
vt 763.3245 210.93
vt 722.4448 249.3938
vt 759.9017 249.3938
vt 719.022 210.93
vt 613.7554 329.5314
vt 572.8757 367.9952
vt 610.3325 367.9952
vt 569.4529 329.5314
vt -719.022 -438.3885
vt -759.9017 -399.9246
vt -722.4448 -399.9246
vt -763.3245 -438.3885
vt -420.4466 -606.9199
vt -379.5669 -645.3837
vt -423.8694 -645.3837
vt -382.9897 -606.9199
vt -637.0484 324.6188
vt -677.9281 286.155
vt -674.5052 324.6188
vt -633.6256 286.155
vt 26.64854 -671.4588
vt 67.52821 -709.9226
vt 23.22572 -709.9226
vt 64.10538 -671.4588
vt -249.9661 454.2109
vt -290.8458 492.6748
vt -253.3889 492.6748
vt -294.2686 454.2109
vt -859.8803 -144.401
vt -900.7599 -105.9371
vt -863.3031 -105.9371
vt -904.1828 -144.401
vt 458.1621 -614.712
vt 499.0418 -576.2482
vt 502.4646 -614.712
vt 461.585 -576.2482
vt 249.9661 -681.6694
vt 290.8458 -643.2056
vt 294.2686 -681.6694
vt 253.3889 -643.2056
vt -253.3889 492.6748
vt 203.1842 508.5516
vt -26.64854 520.928
vt -637.0484 324.6188
vt 858.9611 108.6674
vt 610.3325 367.9952
vt 420.4466 456.3891
vt 759.9017 249.3938
vt -165.7274 -659.0825
vt 674.5052 -475.1496
vt 882.4499 -199.945
vt 900.7599 -44.59365
vt 805.2786 -346.7996
vt 290.8458 -643.2056
vt 499.0418 -576.2482
vt 64.10538 -671.4588
vt -821.5042 -259.1982
vt -572.8757 -518.526
vt -382.9897 -606.9199
vt -722.4448 -399.9246
vt -844.993 49.41418
vt -863.3031 -105.9371
vt -767.8218 196.2688
vt -461.585 425.7173
vt -677.9281 286.155
vt -885.8727 10.95035
vt -808.7014 157.805
vt -294.2686 454.2109
vt -613.7554 -556.9898
vt -862.3839 -297.6621
vt -904.1828 -144.401
vt -763.3245 -438.3885
vt 841.5702 -238.4088
vt 249.9661 -681.6694
vt -206.607 -697.5463
vt -423.8694 -645.3837
vt 23.22572 -709.9226
vt 633.6256 -513.6134
vt 458.1621 -614.712
vt 764.3989 -385.2634
vt 569.4529 329.5314
vt 818.0814 70.20361
vt 859.8803 -83.05749
vt 719.022 210.93
vt 162.3045 470.0878
vt 379.5669 417.9253
vt -67.52821 482.4642
vt -502.4646 387.2535
vn -0.7156226 0.1635038 0.679081
vn -0.6489205 0.3431488 0.6790811
vn -0.6489203 0.3431488 0.6790812
vn -0.7156227 0.1635039 0.6790808
vn 0.3904069 -0.6216359 0.6790812
vn 0.2162125 -0.7014992 0.679081
vn 0.3904069 -0.6216358 0.6790813
vn 0.2162128 -0.7014991 0.679081
vn -0.4994093 -0.5379952 0.6790815
vn -0.6216353 -0.3904073 0.6790815
vn -0.4994095 -0.5379952 0.6790813
vn -0.6216357 -0.3904071 0.6790813
vn 0.7015001 0.2162119 0.6790802
vn 0.6216365 0.3904068 0.6790809
vn 0.7014996 0.2162125 0.6790805
vn 0.6216358 0.390407 0.6790812
vn 0.02728442 -0.733556 0.6790811
vn -0.1635035 -0.7156226 0.6790809
vn 0.02728416 -0.7335561 0.679081
vn -0.1635035 -0.7156227 0.6790809
vn -0.6216357 -0.3904071 0.6790813
vn -0.7014991 -0.2162133 0.6790808
vn -0.6216353 -0.3904073 0.6790815
vn -0.7014992 -0.2162132 0.6790807
vn 0.5379954 -0.4994093 0.6790813
vn 0.6489204 -0.3431495 0.6790808
vn 0.6489207 -0.3431495 0.6790805
vn 0.5379947 -0.4994093 0.6790817
vn 0.2162128 -0.7014991 0.679081
vn 0.02728416 -0.7335561 0.679081
vn 0.2162125 -0.7014992 0.679081
vn 0.02728442 -0.733556 0.6790811
vn -0.7014992 -0.2162132 0.6790807
vn -0.733556 -0.02728425 0.679081
vn -0.7014991 -0.2162133 0.6790808
vn -0.733556 -0.02728428 0.679081
vn 0.343149 0.6489204 0.6790811
vn 0.499409 0.5379954 0.6790816
vn 0.3431493 0.6489204 0.679081
vn 0.4994089 0.5379953 0.6790816
vn -0.3904069 0.6216358 0.6790813
vn -0.2162129 0.7014988 0.6790814
vn -0.3904068 0.6216359 0.6790813
vn -0.2162129 0.7014986 0.6790814
vn -0.02728416 0.7335559 0.6790812
vn 0.1635036 0.7156221 0.6790813
vn -0.02728427 0.7335559 0.6790813
vn 0.1635035 0.7156222 0.6790813
vn 0.5379954 -0.4994093 0.6790813
vn 0.3904069 -0.6216358 0.6790813
vn 0.5379947 -0.4994093 0.6790817
vn 0.3904069 -0.6216359 0.6790812
vn -0.5379952 0.4994093 0.6790814
vn -0.3904068 0.6216359 0.6790813
vn -0.5379951 0.4994093 0.6790814
vn -0.3904069 0.6216358 0.6790813
vn -0.1635035 -0.7156227 0.6790809
vn -0.3431493 -0.6489206 0.6790807
vn -0.1635035 -0.7156226 0.6790809
vn -0.3431489 -0.6489207 0.6790809
vn -0.3431489 -0.6489207 0.6790809
vn -0.4994095 -0.5379952 0.6790813
vn -0.3431493 -0.6489206 0.6790807
vn -0.4994093 -0.5379952 0.6790815
vn 0.1635035 0.7156222 0.6790813
vn 0.3431493 0.6489204 0.679081
vn 0.1635036 0.7156221 0.6790813
vn 0.343149 0.6489204 0.6790811
vn 0.6216358 0.390407 0.6790812
vn 0.4994089 0.5379953 0.6790816
vn 0.6216365 0.3904068 0.6790809
vn 0.499409 0.5379954 0.6790816
vn -0.6489203 0.3431488 0.6790812
vn -0.5379952 0.4994093 0.6790814
vn -0.5379951 0.4994093 0.6790814
vn -0.6489205 0.3431488 0.6790811
vn 0.7335557 0.02728411 0.6790814
vn 0.7014996 0.2162125 0.6790805
vn 0.7335548 0.02728433 0.6790825
vn 0.7015001 0.2162119 0.6790802
vn -0.733556 -0.02728428 0.679081
vn -0.7156226 0.1635038 0.679081
vn -0.733556 -0.02728425 0.679081
vn -0.7156227 0.1635039 0.6790808
vn -0.2162129 0.7014986 0.6790814
vn -0.02728427 0.7335559 0.6790813
vn -0.2162129 0.7014988 0.6790814
vn -0.02728416 0.7335559 0.6790812
vn 0.6489207 -0.3431495 0.6790805
vn 0.7156229 -0.1635032 0.6790807
vn 0.7156223 -0.1635038 0.6790811
vn 0.6489204 -0.3431495 0.6790808
vn 0.7156223 -0.1635038 0.6790811
vn 0.7335557 0.02728411 0.6790814
vn 0.7335548 0.02728433 0.6790825
vn 0.7156229 -0.1635032 0.6790807
vn 0 0 1
vn 0 0 1
vn 0 0 1
vn 0 0 1
vn 0 0 1
vn 0 0 1
vn 0 0 1
vn 0 -3.083717E-07 1
vn 0 0 1
vn 0 0 1
vn 0 0 1
vn 0 -3.053658E-07 1
vn 0 -2.978086E-07 1
vn 0 0 1
vn 0 0 1
vn 0 0 1
vn 0 0 1
vn 0 0 1
vn 0 0 1
vn 0 -3.083708E-07 1
vn 0 0 1
vn 0 -3.053651E-07 1
vn 0 0 1
vn 0 0 1
vn 0 0 -1
vn 0 0 -1
vn 0 0 -1
vn 0 0 -1
vn 0 0 -1
vn 0 0 -1
vn 0 0 -1
vn 0 0 -1
vn 0 0 -1
vn 0 0 -1
vn 0 0 -1
vn 0 0 -1
vn 0 0 -1
vn 0 0 -1
vn 0 0 -1
vn 0 0 -1
vn 0 0 -1
vn 0 0 -1
vn 0 0 -1
vn 0 0 -1
vn 0 0 -1
vn 0 0 -1
vn 0 0 -1
vn 0 0 -1
g Attach10_0
f 3/3/3 2/2/2 1/1/1
f 4/4/4 1/1/1 2/2/2
f 7/7/7 6/6/6 5/5/5
f 8/8/8 5/5/5 6/6/6
f 11/11/11 10/10/10 9/9/9
f 12/12/12 9/9/9 10/10/10
f 15/15/15 14/14/14 13/13/13
f 16/16/16 13/13/13 14/14/14
f 19/19/19 18/18/18 17/17/17
f 20/20/20 17/17/17 18/18/18
f 23/23/23 22/22/22 21/21/21
f 24/24/24 21/21/21 22/22/22
f 27/27/27 26/26/26 25/25/25
f 28/28/28 25/25/25 26/26/26
f 31/31/31 30/30/30 29/29/29
f 32/32/32 29/29/29 30/30/30
f 35/35/35 34/34/34 33/33/33
f 36/36/36 33/33/33 34/34/34
f 39/39/39 38/38/38 37/37/37
f 40/40/40 37/37/37 38/38/38
f 43/43/43 42/42/42 41/41/41
f 44/44/44 41/41/41 42/42/42
f 47/47/47 46/46/46 45/45/45
f 48/48/48 45/45/45 46/46/46
f 51/51/51 50/50/50 49/49/49
f 52/52/52 49/49/49 50/50/50
f 55/55/55 54/54/54 53/53/53
f 56/56/56 53/53/53 54/54/54
f 59/59/59 58/58/58 57/57/57
f 60/60/60 57/57/57 58/58/58
f 63/63/63 62/62/62 61/61/61
f 64/64/64 61/61/61 62/62/62
f 67/67/67 66/66/66 65/65/65
f 68/68/68 65/65/65 66/66/66
f 71/71/71 70/70/70 69/69/69
f 72/72/72 69/69/69 70/70/70
f 75/75/75 74/74/74 73/73/73
f 76/76/76 73/73/73 74/74/74
f 79/79/79 78/78/78 77/77/77
f 80/80/80 77/77/77 78/78/78
f 83/83/83 82/82/82 81/81/81
f 84/84/84 81/81/81 82/82/82
f 87/87/87 86/86/86 85/85/85
f 88/88/88 85/85/85 86/86/86
f 91/91/91 90/90/90 89/89/89
f 92/92/92 89/89/89 90/90/90
f 95/95/95 94/94/94 93/93/93
f 96/96/96 93/93/93 94/94/94
f 99/99/99 98/98/98 97/97/97
f 98/98/98 100/100/100 97/97/97
f 101/101/101 100/100/100 98/98/98
f 102/102/102 101/101/101 98/98/98
f 103/103/103 102/102/102 98/98/98
f 104/104/104 101/101/101 102/102/102
f 105/105/105 100/100/100 101/101/101
f 106/106/106 105/105/105 101/101/101
f 107/107/107 106/106/106 101/101/101
f 108/108/108 107/107/107 101/101/101
f 109/109/109 106/106/106 107/107/107
f 110/110/110 105/105/105 106/106/106
f 111/111/111 110/110/110 106/106/106
f 112/112/112 105/105/105 110/110/110
f 113/113/113 100/100/100 105/105/105
f 114/114/114 113/113/113 105/105/105
f 115/115/115 114/114/114 105/105/105
f 116/116/116 113/113/113 114/114/114
f 118/118/118 117/117/117 113/113/113
f 117/117/117 100/100/100 113/113/113
f 119/119/119 100/100/100 117/117/117
f 97/97/97 100/100/100 120/120/120
f 123/123/123 122/122/122 121/121/121
f 122/122/122 124/124/124 121/121/121
f 125/125/125 124/124/124 122/122/122
f 126/126/126 125/125/125 122/122/122
f 127/127/127 126/126/126 122/122/122
f 128/128/128 125/125/125 126/126/126
f 129/129/129 124/124/124 125/125/125
f 130/130/130 129/129/129 125/125/125
f 131/131/131 130/130/130 125/125/125
f 132/132/132 131/131/131 125/125/125
f 133/133/133 130/130/130 131/131/131
f 134/134/134 129/129/129 130/130/130
f 135/135/135 134/134/134 130/130/130
f 136/136/136 129/129/129 134/134/134
f 137/137/137 124/124/124 129/129/129
f 138/138/138 137/137/137 129/129/129
f 139/139/139 138/138/138 129/129/129
f 140/140/140 137/137/137 138/138/138
f 142/142/142 141/141/141 137/137/137
f 141/141/141 124/124/124 137/137/137
f 143/143/143 124/124/124 141/141/141
f 121/121/121 124/124/124 144/144/144
