g Attach07
v -0.462647 -0.1425949 9.417415E-08
v -0.4737148 -0.01761964 0.1381587
v -0.4530147 -0.1396257 0.1381586
v -0.4837886 -0.01799431 1.144742E-07
v 0.1425939 -0.4626468 4.203109E-08
v 0.01761959 -0.4737149 0.1381586
v 0.1396257 -0.4530131 0.1381586
v 0.01799349 -0.4837887 3.858662E-08
v 0.4737148 0.01761964 0.1381587
v 0.4626454 0.1425949 1.406375E-07
v 0.4837886 0.01799431 1.203375E-07
v 0.4530132 0.1396256 0.1381587
v 0.4530132 0.1396256 0.1381587
v 0.4099759 0.2574779 1.593543E-07
v 0.4626454 0.1425949 1.406375E-07
v 0.4014392 0.2521164 0.1381587
v 0.3548137 -0.3293664 6.374522E-08
v 0.4190588 -0.2215984 0.1381586
v 0.4279694 -0.2263108 8.053511E-08
v 0.3474264 -0.322508 0.1381586
v 0.4279694 -0.2263108 8.053511E-08
v 0.462133 -0.1055871 0.1381586
v 0.4719607 -0.1078326 9.983767E-08
v 0.4190588 -0.2215984 0.1381586
v -0.1078332 -0.4719613 4.051356E-08
v -0.2215997 -0.4190589 0.1381586
v -0.1055883 -0.4621337 0.1381586
v -0.2263112 -0.4279705 4.768057E-08
v -0.3548152 0.3293664 1.710664E-07
v -0.2521166 0.4014392 0.1381587
v -0.3474264 0.322508 0.1381587
v -0.257479 0.4099762 1.841994E-07
v 0.4014392 0.2521164 0.1381587
v 0.3293652 0.3548142 1.752124E-07
v 0.4099759 0.2574779 1.593543E-07
v 0.3225073 0.347426 0.1381587
v -0.01799503 0.4837888 1.96225E-07
v 0.1055867 0.4621337 0.1381588
v -0.01762113 0.4737149 0.1381588
v 0.1078317 0.4719613 1.942981E-07
v 0.2263112 0.4279705 1.871311E-07
v 0.3225073 0.347426 0.1381587
v 0.2215981 0.4190589 0.1381587
v 0.3293652 0.3548142 1.752124E-07
v -0.2263112 -0.4279705 4.768057E-08
v -0.3225088 -0.347426 0.1381586
v -0.2215997 -0.4190589 0.1381586
v -0.3293668 -0.3548142 5.959924E-08
v 0.2574774 -0.4099762 5.061221E-08
v 0.1396257 -0.4530131 0.1381586
v 0.2521166 -0.4014393 0.1381586
v 0.1425939 -0.4626468 4.203109E-08
v -0.3293668 -0.3548142 5.959924E-08
v -0.4014392 -0.2521165 0.1381586
v -0.3225088 -0.347426 0.1381586
v -0.4099759 -0.2574779 7.545734E-08
v -0.4099759 -0.2574779 7.545734E-08
v -0.4530147 -0.1396257 0.1381586
v -0.4014392 -0.2521165 0.1381586
v -0.462647 -0.1425949 9.417415E-08
v -0.462133 0.1055871 0.1381587
v -0.4279709 0.2263108 1.542765E-07
v -0.4190604 0.2215983 0.1381587
v -0.4719622 0.1078326 1.34974E-07
v 0.3548137 -0.3293664 6.374522E-08
v 0.2521166 -0.4014393 0.1381586
v 0.3474264 -0.322508 0.1381586
v 0.2574774 -0.4099762 5.061221E-08
v 0.4719607 -0.1078326 9.983767E-08
v 0.4737148 0.01761964 0.1381587
v 0.4837886 0.01799431 1.203375E-07
v 0.462133 -0.1055871 0.1381586
v -0.4190604 0.2215983 0.1381587
v -0.3548152 0.3293664 1.710664E-07
v -0.3474264 0.322508 0.1381587
v -0.4279709 0.2263108 1.542765E-07
v 0.01799349 -0.4837887 3.858662E-08
v -0.1055883 -0.4621337 0.1381586
v 0.01761959 -0.4737149 0.1381586
v -0.1078332 -0.4719613 4.051356E-08
v 0.1078317 0.4719613 1.942981E-07
v 0.2215981 0.4190589 0.1381587
v 0.1055867 0.4621337 0.1381588
v 0.2263112 0.4279705 1.871311E-07
v -0.257479 0.4099762 1.841994E-07
v -0.1396257 0.4530132 0.1381588
v -0.2521166 0.4014392 0.1381587
v -0.1425954 0.4626468 1.927805E-07
v -0.4837886 -0.01799431 1.144742E-07
v -0.462133 0.1055871 0.1381587
v -0.4737148 -0.01761964 0.1381587
v -0.4719622 0.1078326 1.34974E-07
v -0.1425954 0.4626468 1.927805E-07
v -0.01762113 0.4737149 0.1381588
v -0.1396257 0.4530132 0.1381588
v -0.01799503 0.4837888 1.96225E-07
v -0.4014392 -0.2521165 0.1381586
v -0.2215997 -0.4190589 0.1381586
v -0.3225088 -0.347426 0.1381586
v -0.4737148 -0.01761964 0.1381587
v 0.2521166 -0.4014393 0.1381586
v 0.01761959 -0.4737149 0.1381586
v -0.1055883 -0.4621337 0.1381586
v 0.1396257 -0.4530131 0.1381586
v 0.2215981 0.4190589 0.1381587
v 0.4737148 0.01761964 0.1381587
v 0.4190588 -0.2215984 0.1381586
v 0.3474264 -0.322508 0.1381586
v 0.462133 -0.1055871 0.1381586
v 0.4014392 0.2521164 0.1381587
v 0.4530132 0.1396256 0.1381587
v 0.3225073 0.347426 0.1381587
v -0.2521166 0.4014392 0.1381587
v -0.01762113 0.4737149 0.1381588
v 0.1055867 0.4621337 0.1381588
v -0.1396257 0.4530132 0.1381588
v -0.4190604 0.2215983 0.1381587
v -0.3474264 0.322508 0.1381587
v -0.462133 0.1055871 0.1381587
v -0.4530147 -0.1396257 0.1381586
v -0.4719622 0.1078326 1.34974E-07
v -0.3548152 0.3293664 1.710664E-07
v -0.4279709 0.2263108 1.542765E-07
v -0.462647 -0.1425949 9.417415E-08
v 0.1078317 0.4719613 1.942981E-07
v -0.1425954 0.4626468 1.927805E-07
v -0.257479 0.4099762 1.841994E-07
v -0.01799503 0.4837888 1.96225E-07
v 0.3548137 -0.3293664 6.374522E-08
v 0.4626454 0.1425949 1.406375E-07
v 0.3293652 0.3548142 1.752124E-07
v 0.2263112 0.4279705 1.871311E-07
v 0.4099759 0.2574779 1.593543E-07
v 0.4719607 -0.1078326 9.983767E-08
v 0.4837886 0.01799431 1.203375E-07
v 0.4279694 -0.2263108 8.053511E-08
v -0.1078332 -0.4719613 4.051356E-08
v 0.1425939 -0.4626468 4.203109E-08
v 0.2574774 -0.4099762 5.061221E-08
v 0.01799349 -0.4837887 3.858662E-08
v -0.3293668 -0.3548142 5.959924E-08
v -0.2263112 -0.4279705 4.768057E-08
v -0.4099759 -0.2574779 7.545734E-08
v -0.4837886 -0.01799431 1.144742E-07
vt 415.5753 238.5278
vt 384.5693 272.8693
vt 415.2491 272.8693
vt 384.2431 238.5278
vt 3440.508 -37.44074
vt 3409.502 -3.099261
vt 3440.182 -3.099261
vt 3409.176 -37.44074
vt -415.2491 -221.3582
vt -384.2431 -255.6997
vt -415.5753 -255.6997
vt -384.5693 -221.3582
vt -1288.037 -205.4699
vt -1257.031 -239.8114
vt -1288.363 -239.8114
vt -1257.357 -205.4699
vt 2123.284 -203.7252
vt 2154.29 -169.3837
vt 2154.616 -203.7252
vt 2123.611 -169.3837
vt 1350.423 -237.0202
vt 1381.429 -202.6787
vt 1381.756 -237.0202
vt 1350.75 -202.6787
vt 3181.621 89.98196
vt 3150.615 124.3234
vt 3181.295 124.3234
vt 3150.289 89.98196
vt -2750.379 139.9599
vt -2781.385 174.3014
vt -2750.706 174.3014
vt -2781.712 139.9599
vt -2074.092 -173.8239
vt -2043.086 -208.1654
vt -2074.419 -208.1654
vt -2043.413 -173.8239
vt -3395.981 -44.67213
vt -3426.987 -10.33065
vt -3396.307 -10.33065
vt -3427.313 -44.67213
vt -2688.841 -162.9184
vt -2719.847 -128.5769
vt -2689.167 -128.5769
vt -2720.174 -162.9184
vt 2720.174 145.7465
vt 2689.167 180.0879
vt 2719.847 180.0879
vt 2688.841 145.7465
vt 3220.305 -100.4153
vt 3189.299 -66.07381
vt 3219.979 -66.07381
vt 3188.973 -100.4153
vt 2074.419 190.9935
vt 2043.413 225.3349
vt 2074.092 225.3349
vt 2043.086 190.9935
vt 1288.363 222.6395
vt 1257.357 256.9809
vt 1288.037 256.9809
vt 1257.031 222.6395
vt -1350.75 254.1897
vt -1381.756 219.8482
vt -1381.429 254.1897
vt -1350.423 219.8482
vt 2781.712 -157.1318
vt 2750.706 -122.7903
vt 2781.385 -122.7903
vt 2750.379 -157.1318
vt 484.4656 -254.7477
vt 515.4716 -220.4062
vt 515.7979 -254.7477
vt 484.7918 -220.4062
vt -2123.611 220.8948
vt -2154.616 186.5533
vt -2154.29 220.8948
vt -2123.284 186.5533
vt 3427.313 27.50022
vt 3396.307 61.84169
vt 3426.987 61.84169
vt 3395.981 27.50022
vt -3150.289 -107.1539
vt -3181.295 -72.81239
vt -3150.615 -72.81239
vt -3181.621 -107.1539
vt -3188.973 83.24337
vt -3219.979 117.5849
vt -3189.299 117.5849
vt -3220.305 83.24337
vt -484.4656 237.5758
vt -515.4716 271.9173
vt -484.7918 271.9173
vt -515.7979 237.5758
vt -3409.176 20.26883
vt -3440.182 54.6103
vt -3409.502 54.6103
vt -3440.508 20.26883
vt 1288.037 256.9809
vt 2719.847 180.0879
vt 2074.092 225.3349
vt -484.7918 271.9173
vt 3219.979 -66.07381
vt 3426.987 61.84169
vt 3181.295 124.3234
vt 3440.182 -3.099261
vt -2689.167 -128.5769
vt 515.4716 -220.4062
vt 2154.29 -169.3837
vt 2781.385 -122.7903
vt 1381.429 -202.6787
vt -1257.357 -205.4699
vt -384.5693 -221.3582
vt -2043.413 -173.8239
vt -3189.299 117.5849
vt -3396.307 -10.33065
vt -3150.615 -72.81239
vt -3409.502 54.6103
vt -2123.611 220.8948
vt -2750.706 174.3014
vt -1350.75 254.1897
vt 415.2491 272.8693
vt -515.7979 237.5758
vt -2154.616 186.5533
vt -1381.756 219.8482
vt 1257.031 222.6395
vt -3427.313 -44.67213
vt -3220.305 83.24337
vt -2781.712 139.9599
vt -3440.508 20.26883
vt 2123.284 -203.7252
vt -1288.363 -239.8114
vt -2720.174 -162.9184
vt -3181.621 -107.1539
vt -2074.419 -208.1654
vt 484.4656 -254.7477
vt -415.5753 -255.6997
vt 1350.423 -237.0202
vt 3395.981 27.50022
vt 3188.973 -100.4153
vt 2750.379 -157.1318
vt 3409.176 -37.44074
vt 2688.841 145.7465
vt 3150.289 89.98196
vt 2043.086 190.9935
vt 384.2431 238.5278
vn -0.9531056 -0.29376 0.0727651
vn -0.9966599 -0.0370637 0.07276914
vn -0.953106 -0.293759 0.07276466
vn -0.9966593 -0.03707001 0.07277485
vn 0.2937603 -0.9531052 0.07277015
vn 0.03707125 -0.9966594 0.07277189
vn 0.2937618 -0.9531047 0.07277048
vn 0.0370702 -0.9966595 0.07277181
vn 0.9966596 0.03707009 0.07276949
vn 0.9531054 0.2937605 0.07276513
vn 0.9966594 0.03707307 0.07277177
vn 0.9531057 0.2937595 0.07276472
vn 0.9531057 0.2937595 0.07276472
vn 0.8445969 0.5304345 0.07276908
vn 0.9531054 0.2937605 0.07276513
vn 0.8445958 0.530436 0.07277083
vn 0.7309584 -0.6785313 0.07276754
vn 0.88167 -0.466222 0.07276583
vn 0.8816686 -0.4662244 0.07276774
vn 0.7309585 -0.6785311 0.07276716
vn 0.8816686 -0.4662244 0.07276774
vn 0.9722931 -0.2221493 0.07277071
vn 0.9722927 -0.2221511 0.07277246
vn 0.88167 -0.466222 0.07276583
vn -0.222147 -0.9722937 0.07277157
vn -0.4662275 -0.8816669 0.07276968
vn -0.222147 -0.9722936 0.07277201
vn -0.4662264 -0.8816674 0.07276984
vn -0.7309569 0.6785322 0.07277324
vn -0.5304328 0.8445973 0.07277565
vn -0.7309542 0.678535 0.07277509
vn -0.5304336 0.8445969 0.07277563
vn 0.8445958 0.530436 0.07277083
vn 0.6785328 0.7309567 0.07277059
vn 0.8445969 0.5304345 0.07276908
vn 0.6785324 0.7309571 0.07277142
vn -0.03707031 0.9966594 0.07277208
vn 0.2221471 0.9722936 0.07277214
vn -0.03707168 0.9966594 0.07277247
vn 0.2221461 0.9722939 0.0727726
vn 0.4662269 0.8816669 0.07277334
vn 0.6785324 0.7309571 0.07277142
vn 0.4662257 0.8816674 0.07277385
vn 0.6785328 0.7309567 0.07277059
vn -0.4662264 -0.8816674 0.07276984
vn -0.6785346 -0.7309551 0.0727697
vn -0.4662275 -0.8816669 0.07276968
vn -0.6785336 -0.730956 0.07277057
vn 0.5304329 -0.8445978 0.07276957
vn 0.2937618 -0.9531047 0.07277048
vn 0.5304334 -0.8445976 0.07276946
vn 0.2937603 -0.9531052 0.07277015
vn -0.6785336 -0.730956 0.07277057
vn -0.8445954 -0.5304368 0.07277066
vn -0.6785346 -0.7309551 0.0727697
vn -0.8445964 -0.5304353 0.07276884
vn -0.8445964 -0.5304353 0.07276884
vn -0.953106 -0.293759 0.07276466
vn -0.8445954 -0.5304368 0.07277066
vn -0.9531056 -0.29376 0.0727651
vn -0.9722943 0.2221434 0.07277534
vn -0.8816698 0.4662219 0.07277049
vn -0.8816714 0.4662191 0.07276826
vn -0.9722934 0.2221446 0.07278323
vn 0.7309584 -0.6785313 0.07276754
vn 0.5304334 -0.8445976 0.07276946
vn 0.7309585 -0.6785311 0.07276716
vn 0.5304329 -0.8445978 0.07276957
vn 0.9722927 -0.2221511 0.07277246
vn 0.9966596 0.03707009 0.07276949
vn 0.9966594 0.03707307 0.07277177
vn 0.9722931 -0.2221493 0.07277071
vn -0.8816714 0.4662191 0.07276826
vn -0.7309569 0.6785322 0.07277324
vn -0.7309542 0.678535 0.07277509
vn -0.8816698 0.4662219 0.07277049
vn 0.0370702 -0.9966595 0.07277181
vn -0.222147 -0.9722936 0.07277201
vn 0.03707125 -0.9966594 0.07277189
vn -0.222147 -0.9722937 0.07277157
vn 0.2221461 0.9722939 0.0727726
vn 0.4662257 0.8816674 0.07277385
vn 0.2221471 0.9722936 0.07277214
vn 0.4662269 0.8816669 0.07277334
vn -0.5304336 0.8445969 0.07277563
vn -0.2937618 0.9531045 0.07277337
vn -0.5304328 0.8445973 0.07277565
vn -0.2937614 0.9531046 0.07277252
vn -0.9966593 -0.03707001 0.07277485
vn -0.9722943 0.2221434 0.07277534
vn -0.9966599 -0.0370637 0.07276914
vn -0.9722934 0.2221446 0.07278323
vn -0.2937614 0.9531046 0.07277252
vn -0.03707168 0.9966594 0.07277247
vn -0.2937618 0.9531045 0.07277337
vn -0.03707031 0.9966594 0.07277208
vn 0 0 1
vn 0 0 1
vn 0 0 1
vn 0 0 1
vn 0 0 1
vn 0 0 1
vn 0 3.544983E-07 1
vn 0 3.437446E-07 1
vn 0 0 1
vn 0 0 1
vn 0 0 1
vn 0 0 1
vn 3.325258E-07 0 1
vn 0 0 1
vn -3.146651E-07 0 1
vn 0 0 1
vn 0 0 1
vn 0 0 1
vn 0 -3.764886E-07 1
vn 0 -3.728208E-07 1
vn 0 0 1
vn 0 0 1
vn -3.985106E-07 0 1
vn -3.14636E-07 0 1
vn 0 0 -1
vn 0 0 -1
vn 0 0 -1
vn 0 0 -1
vn 0 0 -1
vn 0 0 -1
vn 0 0 -1
vn 0 0 -1
vn 0 0 -1
vn 0 0 -1
vn 0 0 -1
vn 0 0 -1
vn 0 0 -1
vn 0 0 -1
vn 0 0 -1
vn 0 0 -1
vn 0 0 -1
vn 0 0 -1
vn 0 0 -1
vn 0 0 -1
vn 0 0 -1
vn 0 0 -1
vn 0 0 -1
vn 0 0 -1
g Attach07_0
f 3/3/3 2/2/2 1/1/1
f 4/4/4 1/1/1 2/2/2
f 7/7/7 6/6/6 5/5/5
f 8/8/8 5/5/5 6/6/6
f 11/11/11 10/10/10 9/9/9
f 12/12/12 9/9/9 10/10/10
f 15/15/15 14/14/14 13/13/13
f 16/16/16 13/13/13 14/14/14
f 19/19/19 18/18/18 17/17/17
f 20/20/20 17/17/17 18/18/18
f 23/23/23 22/22/22 21/21/21
f 24/24/24 21/21/21 22/22/22
f 27/27/27 26/26/26 25/25/25
f 28/28/28 25/25/25 26/26/26
f 31/31/31 30/30/30 29/29/29
f 32/32/32 29/29/29 30/30/30
f 35/35/35 34/34/34 33/33/33
f 36/36/36 33/33/33 34/34/34
f 39/39/39 38/38/38 37/37/37
f 40/40/40 37/37/37 38/38/38
f 43/43/43 42/42/42 41/41/41
f 44/44/44 41/41/41 42/42/42
f 47/47/47 46/46/46 45/45/45
f 48/48/48 45/45/45 46/46/46
f 51/51/51 50/50/50 49/49/49
f 52/52/52 49/49/49 50/50/50
f 55/55/55 54/54/54 53/53/53
f 56/56/56 53/53/53 54/54/54
f 59/59/59 58/58/58 57/57/57
f 60/60/60 57/57/57 58/58/58
f 63/63/63 62/62/62 61/61/61
f 64/64/64 61/61/61 62/62/62
f 67/67/67 66/66/66 65/65/65
f 68/68/68 65/65/65 66/66/66
f 71/71/71 70/70/70 69/69/69
f 72/72/72 69/69/69 70/70/70
f 75/75/75 74/74/74 73/73/73
f 76/76/76 73/73/73 74/74/74
f 79/79/79 78/78/78 77/77/77
f 80/80/80 77/77/77 78/78/78
f 83/83/83 82/82/82 81/81/81
f 84/84/84 81/81/81 82/82/82
f 87/87/87 86/86/86 85/85/85
f 88/88/88 85/85/85 86/86/86
f 91/91/91 90/90/90 89/89/89
f 92/92/92 89/89/89 90/90/90
f 95/95/95 94/94/94 93/93/93
f 96/96/96 93/93/93 94/94/94
f 99/99/99 98/98/98 97/97/97
f 98/98/98 100/100/100 97/97/97
f 101/101/101 100/100/100 98/98/98
f 102/102/102 101/101/101 98/98/98
f 103/103/103 102/102/102 98/98/98
f 104/104/104 101/101/101 102/102/102
f 105/105/105 100/100/100 101/101/101
f 106/106/106 105/105/105 101/101/101
f 107/107/107 106/106/106 101/101/101
f 108/108/108 107/107/107 101/101/101
f 109/109/109 106/106/106 107/107/107
f 110/110/110 105/105/105 106/106/106
f 111/111/111 110/110/110 106/106/106
f 112/112/112 105/105/105 110/110/110
f 113/113/113 100/100/100 105/105/105
f 114/114/114 113/113/113 105/105/105
f 115/115/115 114/114/114 105/105/105
f 116/116/116 113/113/113 114/114/114
f 118/118/118 117/117/117 113/113/113
f 117/117/117 100/100/100 113/113/113
f 119/119/119 100/100/100 117/117/117
f 97/97/97 100/100/100 120/120/120
f 123/123/123 122/122/122 121/121/121
f 122/122/122 124/124/124 121/121/121
f 125/125/125 124/124/124 122/122/122
f 126/126/126 125/125/125 122/122/122
f 127/127/127 126/126/126 122/122/122
f 128/128/128 125/125/125 126/126/126
f 129/129/129 124/124/124 125/125/125
f 130/130/130 129/129/129 125/125/125
f 131/131/131 130/130/130 125/125/125
f 132/132/132 131/131/131 125/125/125
f 133/133/133 130/130/130 131/131/131
f 134/134/134 129/129/129 130/130/130
f 135/135/135 134/134/134 130/130/130
f 136/136/136 129/129/129 134/134/134
f 137/137/137 124/124/124 129/129/129
f 138/138/138 137/137/137 129/129/129
f 139/139/139 138/138/138 129/129/129
f 140/140/140 137/137/137 138/138/138
f 142/142/142 141/141/141 137/137/137
f 141/141/141 124/124/124 137/137/137
f 143/143/143 124/124/124 141/141/141
f 121/121/121 124/124/124 144/144/144
