g RocketParticle04
v 0.1056355 0.1077681 0.3154328
v 0.1736899 0.1138682 -0.3420799
v 0.1736897 0.1138681 0.3087488
v 0.1061646 0.1078611 -0.3343949
v 0.03626962 0.08909325 0.3219122
v 0.1061646 0.1078611 -0.3343949
v 0.1056355 0.1077681 0.3154328
v 0.03674416 0.08926572 -0.3269452
v -0.02883707 0.05873718 0.3279947
v -0.02842767 0.05897334 -0.3199518
v -0.08762524 0.01747691 0.3334881
v -0.08730961 0.01774158 -0.3136359
v -0.1384198 -0.03330061 0.3382353
v -0.138194 -0.03303171 -0.3081775
v -0.177463 -0.08887011 0.3420799
v -0.177463 -0.08887003 -0.3037572
v 0.177463 0.07040682 -0.3420799
v 0.1134572 0.06485021 0.3154328
v 0.1774627 0.07040679 0.3087488
v 0.1134574 0.06485021 -0.3343949
v 0.1134574 0.06485021 -0.3343949
v 0.0514112 0.04818046 0.3219122
v 0.1134572 0.06485021 0.3154328
v 0.0514114 0.04818051 -0.3269452
v -0.006833873 0.0210678 0.3279947
v -0.00683374 0.02106785 -0.3199518
v -0.05943661 -0.01581759 0.3334881
v -0.05943651 -0.01581754 -0.3136359
v -0.104896 -0.06121613 0.3382353
v -0.1048959 -0.06121613 -0.3081775
v -0.1417109 -0.1138683 0.3420799
v -0.1417109 -0.1138683 -0.3037572
v 0.177463 0.07040682 -0.3420799
v 0.1061646 0.1078611 -0.3343949
v 0.1134574 0.06485021 -0.3343949
v 0.1736899 0.1138682 -0.3420799
v 0.1134572 0.06485021 0.3154328
v 0.1736897 0.1138681 0.3087488
v 0.1774627 0.07040679 0.3087488
v 0.1056355 0.1077681 0.3154328
v 0.1774627 0.07040679 0.3087488
v 0.1736899 0.1138682 -0.3420799
v 0.177463 0.07040682 -0.3420799
v 0.1736897 0.1138681 0.3087488
v 0.1134574 0.06485021 -0.3343949
v 0.03674416 0.08926572 -0.3269452
v 0.0514114 0.04818051 -0.3269452
v 0.1061646 0.1078611 -0.3343949
v -0.02842767 0.05897334 -0.3199518
v -0.00683374 0.02106785 -0.3199518
v -0.08730961 0.01774158 -0.3136359
v -0.05943651 -0.01581754 -0.3136359
v -0.138194 -0.03303171 -0.3081775
v -0.1048959 -0.06121613 -0.3081775
v -0.177463 -0.08887003 -0.3037572
v -0.1417109 -0.1138683 -0.3037572
v 0.0514112 0.04818046 0.3219122
v 0.1056355 0.1077681 0.3154328
v 0.1134572 0.06485021 0.3154328
v 0.03626962 0.08909325 0.3219122
v -0.006833873 0.0210678 0.3279947
v -0.02883707 0.05873718 0.3279947
v -0.05943661 -0.01581759 0.3334881
v -0.08762524 0.01747691 0.3334881
v -0.104896 -0.06121613 0.3382353
v -0.1384198 -0.03330061 0.3382353
v -0.1417109 -0.1138683 0.3420799
v -0.177463 -0.08887011 0.3420799
v -0.1417109 -0.1138683 -0.3037572
v -0.177463 -0.08887011 0.3420799
v -0.1417109 -0.1138683 0.3420799
v -0.177463 -0.08887003 -0.3037572
vt 1.027778 1
vt 1 0
vt 1 1
vt 1.027778 0
vt 0.05555558 1
vt 0.02777781 0
vt 0.02777781 1
vt 0.05555558 0
vt 0.08333335 1
vt 0.08333335 0
vt 0.1111111 1
vt 0.1111111 0
vt 0.1388889 1
vt 0.1388889 0
vt 0.1666667 1
vt 0.1666667 0
vt 1 0
vt 1.027778 1
vt 1 1
vt 1.027778 0
vt 0.02777781 0
vt 0.05555558 1
vt 0.02777781 1
vt 0.05555558 0
vt 0.08333335 1
vt 0.08333335 0
vt 0.1111111 1
vt 0.1111111 0
vt 0.1388889 1
vt 0.1388889 0
vt 0.1666667 1
vt 0.1666667 0
vt 1 0
vt 1.027778 0
vt 1.027778 0
vt 1 0
vt 1.027778 1
vt 1 1
vt 1 1
vt 1.027778 1
vt 1 1
vt 1 0
vt 1 0
vt 1 1
vt 0.02777781 0
vt 0.05555558 0
vt 0.05555558 0
vt 0.02777781 0
vt 0.08333335 0
vt 0.08333335 0
vt 0.1111111 0
vt 0.1111111 0
vt 0.1388889 0
vt 0.1388889 0
vt 0.1666667 0
vt 0.1666667 0
vt 0.05555558 1
vt 0.02777781 1
vt 0.02777781 1
vt 0.05555558 1
vt 0.08333335 1
vt 0.08333335 1
vt 0.1111111 1
vt 0.1111111 1
vt 0.1388889 1
vt 0.1388889 1
vt 0.1666667 1
vt 0.1666667 1
vt 0.1666667 0
vt 0.1666667 1
vt 0.1666667 1
vt 0.1666667 0
vn -0.1804298 0.9835879 -3.67445E-05
vn -0.08865027 0.9960628 6.544279E-05
vn -0.0892771 0.9960068 0
vn -0.1684602 0.9857085 6.445063E-05
vn -0.3470956 0.9378298 -6.598773E-05
vn -0.1684602 0.9857085 6.445063E-05
vn -0.1804298 0.9835879 -3.67445E-05
vn -0.3361947 0.9417925 6.160534E-05
vn -0.5043671 0.8634893 -6.193452E-05
vn -0.4949893 0.868899 5.603436E-05
vn -0.6461633 0.7631992 -5.592857E-05
vn -0.6389141 0.769278 4.826245E-05
vn -0.767655 0.6408634 -4.753035E-05
vn -0.7625216 0.6469628 2.347197E-05
vn -0.8182149 0.5749125 -4.348589E-05
vn -0.8179767 0.5752515 0
vn 0.08648917 -0.9962528 0
vn 0.1792942 -0.9837955 0
vn 0.08648886 -0.9962528 0
vn 0.1671715 -0.9859278 0
vn 0.1671715 -0.9859278 0
vn 0.3470864 -0.9378331 0
vn 0.1792942 -0.9837955 0
vn 0.3362133 -0.9417859 0
vn 0.5043736 -0.8634856 0
vn 0.4949916 -0.8688978 0
vn 0.6461608 -0.7632013 0
vn 0.6389273 -0.7692672 0
vn 0.7684586 -0.6398994 0
vn 0.7632834 -0.6460638 0
vn 0.8195363 -0.5730273 0
vn 0.8195357 -0.5730281 0
vn -0.1141216 -0.0134189 -0.9933761
vn -0.1088224 -0.01667088 -0.9939214
vn -0.1109181 -0.02230018 -0.9935793
vn -0.1122181 -0.009742152 -0.9936359
vn 0.09884644 0.01625241 0.99497
vn 0.1004842 0.01218426 0.994864
vn 0.1030908 0.008949683 0.9946316
vn 0.09485642 0.02032495 0.9952834
vn 0.9962528 0.08648836 3.423884E-07
vn 0.9962528 0.08648908 3.903236E-07
vn 0.9962528 0.0864891 3.925562E-07
vn 0.9962528 0.08648833 3.401557E-07
vn -0.1109181 -0.02230018 -0.9935793
vn -0.0989654 -0.03167448 -0.9945866
vn -0.1006556 -0.03937088 -0.994142
vn -0.1088224 -0.01667088 -0.9939214
vn -0.08487304 -0.04462607 -0.995392
vn -0.08518516 -0.05190382 -0.9950122
vn -0.06719593 -0.05200051 -0.9963838
vn -0.06635962 -0.05841727 -0.9960842
vn -0.04910265 -0.05408706 -0.9973282
vn -0.04792063 -0.0583715 -0.997144
vn -0.0403085 -0.05370768 -0.9977428
vn -0.03933248 -0.05625267 -0.9976416
vn 0.08911353 0.0297915 0.9955758
vn 0.09485642 0.02032495 0.9952834
vn 0.09884644 0.01625241 0.99497
vn 0.08368109 0.03396507 0.9959136
vn 0.07614998 0.04122678 0.9962437
vn 0.07054815 0.04414535 0.9965311
vn 0.06007647 0.04754034 0.997061
vn 0.0547443 0.04922356 0.9972864
vn 0.04278455 0.04795133 0.9979329
vn 0.03921466 0.04852102 0.998052
vn 0.03454875 0.04622727 0.9983334
vn 0.03238653 0.04631884 0.9984016
vn -0.5730281 -0.8195357 0
vn -0.573027 -0.8195366 0
vn -0.573027 -0.8195366 0
vn -0.5730283 -0.8195357 0
g RocketParticle04_0
f 3/3/3 2/2/2 1/1/1
f 4/4/4 1/1/1 2/2/2
f 7/7/7 6/6/6 5/5/5
f 8/8/8 5/5/5 6/6/6
f 5/5/5 8/8/8 9/9/9
f 10/10/10 9/9/9 8/8/8
f 9/9/9 10/10/10 11/11/11
f 12/12/12 11/11/11 10/10/10
f 11/11/11 12/12/12 13/13/13
f 14/14/14 13/13/13 12/12/12
f 13/13/13 14/14/14 15/15/15
f 16/16/16 15/15/15 14/14/14
f 19/19/19 18/18/18 17/17/17
f 20/20/20 17/17/17 18/18/18
f 23/23/23 22/22/22 21/21/21
f 24/24/24 21/21/21 22/22/22
f 22/22/22 25/25/25 24/24/24
f 26/26/26 24/24/24 25/25/25
f 25/25/25 27/27/27 26/26/26
f 28/28/28 26/26/26 27/27/27
f 27/27/27 29/29/29 28/28/28
f 30/30/30 28/28/28 29/29/29
f 29/29/29 31/31/31 30/30/30
f 32/32/32 30/30/30 31/31/31
f 35/35/35 34/34/34 33/33/33
f 36/36/36 33/33/33 34/34/34
f 39/39/39 38/38/38 37/37/37
f 40/40/40 37/37/37 38/38/38
f 43/43/43 42/42/42 41/41/41
f 44/44/44 41/41/41 42/42/42
f 47/47/47 46/46/46 45/45/45
f 48/48/48 45/45/45 46/46/46
f 46/46/46 47/47/47 49/49/49
f 50/50/50 49/49/49 47/47/47
f 49/49/49 50/50/50 51/51/51
f 52/52/52 51/51/51 50/50/50
f 51/51/51 52/52/52 53/53/53
f 54/54/54 53/53/53 52/52/52
f 53/53/53 54/54/54 55/55/55
f 56/56/56 55/55/55 54/54/54
f 59/59/59 58/58/58 57/57/57
f 60/60/60 57/57/57 58/58/58
f 57/57/57 60/60/60 61/61/61
f 62/62/62 61/61/61 60/60/60
f 61/61/61 62/62/62 63/63/63
f 64/64/64 63/63/63 62/62/62
f 63/63/63 64/64/64 65/65/65
f 66/66/66 65/65/65 64/64/64
f 65/65/65 66/66/66 67/67/67
f 68/68/68 67/67/67 66/66/66
f 71/71/71 70/70/70 69/69/69
f 72/72/72 69/69/69 70/70/70
