g RocketParticle02
v 0.3156349 -0.03308732 0.3230801
v 0.3549259 -0.0889515 -0.4085702
v 0.3549258 -0.08895157 0.3178479
v 0.3158547 -0.03334845 -0.4057497
v 0.2647418 0.01768547 0.3295407
v 0.265049 0.01742859 -0.4022672
v 0.2058508 0.05891445 0.3370166
v 0.2062492 0.05868537 -0.3982374
v 0.1406728 0.08920064 0.3452944
v 0.1411345 0.08903351 -0.3937754
v 0.07124707 0.1077883 0.3541124
v 0.07176191 0.1076986 -0.3890221
v -0.0003392254 0.1139488 0.3632089
v 0.0001836212 0.1139498 -0.3841188
v -0.07191528 0.1076705 0.3723054
v -0.07140017 0.1077623 -0.3792153
v -0.1412723 0.08898248 0.3811233
v -0.07140017 0.1077623 -0.3792153
v -0.07191528 0.1076705 0.3723054
v -0.1408101 0.08915161 -0.3744621
v -0.2063683 0.05861568 0.3894011
v -0.2059693 0.05884692 -0.37
v -0.265141 0.01735061 0.396877
v -0.2648333 0.01760958 -0.3659702
v -0.3159207 -0.03342776 0.4033377
v -0.3157004 -0.03316459 -0.3624876
v -0.3549259 -0.0889516 0.4085698
v -0.3549259 -0.0889515 -0.3596673
v 0.3191738 -0.1139498 -0.4085702
v 0.2823588 -0.06129761 0.3230801
v 0.3191737 -0.1139498 0.3178479
v 0.2823589 -0.06129761 -0.4057497
v 0.2368994 -0.01589908 0.3295407
v 0.2368995 -0.01589903 -0.4022672
v 0.1842966 0.02098636 0.3370166
v 0.1842967 0.02098641 -0.3982374
v 0.1260515 0.04809903 0.3452944
v 0.1260516 0.04809907 -0.3937754
v 0.0640055 0.06476877 0.3541124
v 0.06400559 0.06476881 -0.3890221
v -1.040096E-07 0.07032531 0.3632089
v -2.080193E-08 0.07032538 -0.3841188
v -0.06400567 0.06476875 0.3723054
v -0.0640056 0.06476877 -0.3792153
v -0.0640056 0.06476877 -0.3792153
v -0.1260517 0.048099 0.3811233
v -0.06400567 0.06476875 0.3723054
v -0.1260516 0.04809907 -0.3744621
v -0.1842967 0.02098634 0.3894011
v -0.1842967 0.02098636 -0.37
v -0.2368995 -0.01589908 0.396877
v -0.2368995 -0.01589903 -0.3659702
v -0.2823589 -0.06129761 0.4033377
v -0.2823589 -0.06129759 -0.3624876
v -0.3191738 -0.1139498 0.4085698
v -0.3191738 -0.1139497 -0.3596673
v 0.3191738 -0.1139498 -0.4085702
v 0.3158547 -0.03334845 -0.4057497
v 0.2823589 -0.06129761 -0.4057497
v 0.3549259 -0.0889515 -0.4085702
v 0.265049 0.01742859 -0.4022672
v 0.2368995 -0.01589903 -0.4022672
v 0.2062492 0.05868537 -0.3982374
v 0.1842967 0.02098641 -0.3982374
v 0.1411345 0.08903351 -0.3937754
v 0.1260516 0.04809907 -0.3937754
v 0.07176191 0.1076986 -0.3890221
v 0.06400559 0.06476881 -0.3890221
v 0.0001836212 0.1139498 -0.3841188
v -2.080193E-08 0.07032538 -0.3841188
v -0.07140017 0.1077623 -0.3792153
v -0.0640056 0.06476877 -0.3792153
v 0.2823588 -0.06129761 0.3230801
v 0.3549258 -0.08895157 0.3178479
v 0.3191737 -0.1139498 0.3178479
v 0.3156349 -0.03308732 0.3230801
v 0.2368994 -0.01589908 0.3295407
v 0.2647418 0.01768547 0.3295407
v 0.1842966 0.02098636 0.3370166
v 0.2058508 0.05891445 0.3370166
v 0.1260515 0.04809903 0.3452944
v 0.1406728 0.08920064 0.3452944
v 0.0640055 0.06476877 0.3541124
v 0.07124707 0.1077883 0.3541124
v -1.040096E-07 0.07032531 0.3632089
v -0.0003392254 0.1139488 0.3632089
v -0.06400567 0.06476875 0.3723054
v -0.07191528 0.1076705 0.3723054
v 0.3191737 -0.1139498 0.3178479
v 0.3549259 -0.0889515 -0.4085702
v 0.3191738 -0.1139498 -0.4085702
v 0.3549258 -0.08895157 0.3178479
v -0.0640056 0.06476877 -0.3792153
v -0.1408101 0.08915161 -0.3744621
v -0.1260516 0.04809907 -0.3744621
v -0.07140017 0.1077623 -0.3792153
v -0.2059693 0.05884692 -0.37
v -0.1842967 0.02098636 -0.37
v -0.2648333 0.01760958 -0.3659702
v -0.2368995 -0.01589903 -0.3659702
v -0.3157004 -0.03316459 -0.3624876
v -0.2823589 -0.06129759 -0.3624876
v -0.3549259 -0.0889515 -0.3596673
v -0.3191738 -0.1139497 -0.3596673
v -0.1260517 0.048099 0.3811233
v -0.07191528 0.1076705 0.3723054
v -0.06400567 0.06476875 0.3723054
v -0.1412723 0.08898248 0.3811233
v -0.1842967 0.02098634 0.3894011
v -0.2063683 0.05861568 0.3894011
v -0.2368995 -0.01589908 0.396877
v -0.265141 0.01735061 0.396877
v -0.2823589 -0.06129761 0.4033377
v -0.3159207 -0.03342776 0.4033377
v -0.3191738 -0.1139498 0.4085698
v -0.3549259 -0.0889516 0.4085698
v -0.3191738 -0.1139497 -0.3596673
v -0.3549259 -0.0889516 0.4085698
v -0.3191738 -0.1139498 0.4085698
v -0.3549259 -0.0889515 -0.3596673
vt 0.861111 1
vt 0.8333333 0
vt 0.8333333 1
vt 0.861111 0
vt 0.8888888 1
vt 0.8888888 0
vt 0.9166667 1
vt 0.9166667 0
vt 0.9444444 1
vt 0.9444444 0
vt 0.9722222 1
vt 0.9722222 0
vt 1 1
vt 1 0
vt 1.027778 1
vt 1.027778 0
vt 0.05555558 1
vt 0.02777781 0
vt 0.02777781 1
vt 0.05555558 0
vt 0.08333335 1
vt 0.08333335 0
vt 0.1111111 1
vt 0.1111111 0
vt 0.1388889 1
vt 0.1388889 0
vt 0.1666667 1
vt 0.1666667 0
vt 0.8333333 0
vt 0.861111 1
vt 0.8333333 1
vt 0.861111 0
vt 0.8888888 1
vt 0.8888888 0
vt 0.9166667 1
vt 0.9166667 0
vt 0.9444444 1
vt 0.9444444 0
vt 0.9722222 1
vt 0.9722222 0
vt 1 1
vt 1 0
vt 1.027778 1
vt 1.027778 0
vt 0.02777781 0
vt 0.05555558 1
vt 0.02777781 1
vt 0.05555558 0
vt 0.08333335 1
vt 0.08333335 0
vt 0.1111111 1
vt 0.1111111 0
vt 0.1388889 1
vt 0.1388889 0
vt 0.1666667 1
vt 0.1666667 0
vt 0.8333333 0
vt 0.861111 0
vt 0.861111 0
vt 0.8333333 0
vt 0.8888888 0
vt 0.8888888 0
vt 0.9166667 0
vt 0.9166667 0
vt 0.9444444 0
vt 0.9444444 0
vt 0.9722222 0
vt 0.9722222 0
vt 1 0
vt 1 0
vt 1.027778 0
vt 1.027778 0
vt 0.861111 1
vt 0.8333333 1
vt 0.8333333 1
vt 0.861111 1
vt 0.8888888 1
vt 0.8888888 1
vt 0.9166667 1
vt 0.9166667 1
vt 0.9444444 1
vt 0.9444444 1
vt 0.9722222 1
vt 0.9722222 1
vt 1 1
vt 1 1
vt 1.027778 1
vt 1.027778 1
vt 0.8333333 1
vt 0.8333333 0
vt 0.8333333 0
vt 0.8333333 1
vt 0.02777781 0
vt 0.05555558 0
vt 0.05555558 0
vt 0.02777781 0
vt 0.08333335 0
vt 0.08333335 0
vt 0.1111111 0
vt 0.1111111 0
vt 0.1388889 0
vt 0.1388889 0
vt 0.1666667 0
vt 0.1666667 0
vt 0.05555558 1
vt 0.02777781 1
vt 0.02777781 1
vt 0.05555558 1
vt 0.08333335 1
vt 0.08333335 1
vt 0.1111111 1
vt 0.1111111 1
vt 0.1388889 1
vt 0.1388889 1
vt 0.1666667 1
vt 0.1666667 1
vt 0.1666667 0
vt 0.1666667 1
vt 0.1666667 1
vt 0.1666667 0
vn 0.7620228 0.6475503 -2.019457E-05
vn 0.8181855 0.5749543 3.824933E-05
vn 0.8179514 0.5752873 0
vn 0.7670201 0.6416231 4.182726E-05
vn 0.6382096 0.7698627 -4.138059E-05
vn 0.6452649 0.7639589 4.912509E-05
vn 0.4940794 0.8694168 -4.784486E-05
vn 0.5032057 0.8641667 5.420699E-05
vn 0.335137 0.9421694 -5.240012E-05
vn 0.3457466 0.938328 5.759735E-05
vn 0.1659948 0.9861267 -5.563408E-05
vn 0.1777921 0.984068 5.930485E-05
vn -0.007795973 0.9999696 -5.680272E-05
vn 0.004218657 0.9999912 5.89909E-05
vn -0.1813068 0.9834266 -5.660611E-05
vn -0.1695058 0.9855292 5.703902E-05
vn -0.3489127 0.9371552 -5.452389E-05
vn -0.1695058 0.9855292 5.703902E-05
vn -0.1813068 0.9834266 -5.660611E-05
vn -0.3382955 0.94104 5.314801E-05
vn -0.5059329 0.8625728 -5.099735E-05
vn -0.4967964 0.8678671 4.796773E-05
vn -0.6473768 0.7621702 -4.589751E-05
vn -0.6403116 0.7681152 4.105769E-05
vn -0.7685122 0.6398351 -3.890663E-05
vn -0.763513 0.6457925 1.963848E-05
vn -0.8182588 0.5748501 -3.558009E-05
vn -0.818027 0.5751798 0
vn -0.8195357 -0.5730281 0
vn -0.7627805 -0.6466575 0
vn -0.8195358 -0.5730278 0
vn -0.7678155 -0.640671 0
vn -0.6382254 -0.7698497 0
vn -0.6452636 -0.7639599 0
vn -0.4940823 -0.8694152 0
vn -0.5032113 -0.8641634 0
vn -0.3351601 -0.9421611 0
vn -0.3457413 -0.9383299 0
vn -0.1659965 -0.9861264 0
vn -0.1777959 -0.9840673 0
vn 0.007773478 -0.9999698 0
vn -0.004209568 -0.9999912 0
vn 0.1813101 -0.983426 0
vn 0.1695036 -0.9855296 0
vn 0.1695036 -0.9855296 0
vn 0.3488984 -0.9371606 0
vn 0.1813101 -0.983426 0
vn 0.3383045 -0.9410367 0
vn 0.5059412 -0.862568 0
vn 0.4967961 -0.8678673 0
vn 0.6473726 -0.7621737 0
vn 0.6403185 -0.7681094 0
vn 0.7693282 -0.6388538 0
vn 0.7642791 -0.6448855 0
vn 0.8195364 -0.5730271 0
vn 0.8195358 -0.5730279 0
vn -0.02536912 0.03391672 -0.9991026
vn -0.02881919 0.03559757 -0.9989506
vn -0.03145344 0.03517698 -0.998886
vn -0.02376213 0.0339842 -0.9991398
vn -0.04024687 0.03610516 -0.9985373
vn -0.04417372 0.03486753 -0.9984152
vn -0.05187276 0.03236521 -0.9981291
vn -0.05600357 0.03021893 -0.9979731
vn -0.06153135 0.0248748 -0.9977951
vn -0.06554317 0.0218037 -0.9976115
vn -0.06803787 0.01452965 -0.9975769
vn -0.07162154 0.01062969 -0.9973752
vn -0.07063434 0.00257005 -0.9974989
vn -0.07353415 -0.001964589 -0.9972907
vn -0.06898334 -0.009558055 -0.997572
vn -0.07102496 -0.01445582 -0.9973698
vn 0.05668619 -0.06895679 0.9960078
vn 0.04767764 -0.06349351 0.9968427
vn 0.0465131 -0.06652238 0.9967001
vn 0.05809853 -0.06389599 0.9962639
vn 0.07847144 -0.06895448 0.9945287
vn 0.07947852 -0.06139154 0.9949444
vn 0.1006766 -0.06119923 0.9930352
vn 0.1003349 -0.0526262 0.993561
vn 0.1188995 -0.04635173 0.9918239
vn 0.1169379 -0.03728758 0.9924389
vn 0.1309682 -0.02616582 0.9910412
vn 0.1273119 -0.01719374 0.9917138
vn 0.1354966 -0.003123962 0.990773
vn 0.130264 0.005190143 0.9914657
vn 0.1319202 0.02007461 0.991057
vn 0.1254224 0.02723593 0.9917296
vn 0.5730276 -0.819536 0
vn 0.5730283 -0.8195357 0
vn 0.5730283 -0.8195356 0
vn 0.5730276 -0.819536 0
vn -0.07102496 -0.01445582 -0.9973698
vn -0.0632946 -0.02041 -0.9977862
vn -0.06440746 -0.02535818 -0.9976014
vn -0.06898334 -0.009558055 -0.997572
vn -0.05423772 -0.02865955 -0.9981167
vn -0.05446229 -0.03333733 -0.9979591
vn -0.04290287 -0.03332505 -0.9985233
vn -0.0423858 -0.03744611 -0.9983993
vn -0.03133469 -0.03462442 -0.9989091
vn -0.0305942 -0.03736495 -0.9988332
vn -0.02574334 -0.03433718 -0.9990788
vn -0.02513048 -0.03594122 -0.9990379
vn 0.1207286 0.04063288 0.9918537
vn 0.1254224 0.02723593 0.9917296
vn 0.1319202 0.02007461 0.991057
vn 0.1134226 0.04628276 0.9924683
vn 0.1031899 0.05612038 0.9930773
vn 0.09563679 0.06007688 0.9936017
vn 0.08144476 0.06467387 0.9945773
vn 0.07423841 0.06695792 0.9949901
vn 0.05803093 0.06522913 0.9961815
vn 0.05321692 0.06599872 0.9963995
vn 0.04694161 0.06288035 0.9969165
vn 0.0440537 0.06300507 0.9970403
vn -0.573028 -0.8195358 0
vn -0.5730272 -0.8195364 0
vn -0.5730271 -0.8195364 0
vn -0.573028 -0.8195358 0
g RocketParticle02_0
f 3/3/3 2/2/2 1/1/1
f 4/4/4 1/1/1 2/2/2
f 1/1/1 4/4/4 5/5/5
f 6/6/6 5/5/5 4/4/4
f 5/5/5 6/6/6 7/7/7
f 8/8/8 7/7/7 6/6/6
f 7/7/7 8/8/8 9/9/9
f 10/10/10 9/9/9 8/8/8
f 9/9/9 10/10/10 11/11/11
f 12/12/12 11/11/11 10/10/10
f 11/11/11 12/12/12 13/13/13
f 14/14/14 13/13/13 12/12/12
f 13/13/13 14/14/14 15/15/15
f 16/16/16 15/15/15 14/14/14
f 19/19/19 18/18/18 17/17/17
f 20/20/20 17/17/17 18/18/18
f 17/17/17 20/20/20 21/21/21
f 22/22/22 21/21/21 20/20/20
f 21/21/21 22/22/22 23/23/23
f 24/24/24 23/23/23 22/22/22
f 23/23/23 24/24/24 25/25/25
f 26/26/26 25/25/25 24/24/24
f 25/25/25 26/26/26 27/27/27
f 28/28/28 27/27/27 26/26/26
f 31/31/31 30/30/30 29/29/29
f 32/32/32 29/29/29 30/30/30
f 30/30/30 33/33/33 32/32/32
f 34/34/34 32/32/32 33/33/33
f 33/33/33 35/35/35 34/34/34
f 36/36/36 34/34/34 35/35/35
f 35/35/35 37/37/37 36/36/36
f 38/38/38 36/36/36 37/37/37
f 37/37/37 39/39/39 38/38/38
f 40/40/40 38/38/38 39/39/39
f 39/39/39 41/41/41 40/40/40
f 42/42/42 40/40/40 41/41/41
f 41/41/41 43/43/43 42/42/42
f 44/44/44 42/42/42 43/43/43
f 47/47/47 46/46/46 45/45/45
f 48/48/48 45/45/45 46/46/46
f 46/46/46 49/49/49 48/48/48
f 50/50/50 48/48/48 49/49/49
f 49/49/49 51/51/51 50/50/50
f 52/52/52 50/50/50 51/51/51
f 51/51/51 53/53/53 52/52/52
f 54/54/54 52/52/52 53/53/53
f 53/53/53 55/55/55 54/54/54
f 56/56/56 54/54/54 55/55/55
f 59/59/59 58/58/58 57/57/57
f 60/60/60 57/57/57 58/58/58
f 58/58/58 59/59/59 61/61/61
f 62/62/62 61/61/61 59/59/59
f 61/61/61 62/62/62 63/63/63
f 64/64/64 63/63/63 62/62/62
f 63/63/63 64/64/64 65/65/65
f 66/66/66 65/65/65 64/64/64
f 65/65/65 66/66/66 67/67/67
f 68/68/68 67/67/67 66/66/66
f 67/67/67 68/68/68 69/69/69
f 70/70/70 69/69/69 68/68/68
f 69/69/69 70/70/70 71/71/71
f 72/72/72 71/71/71 70/70/70
f 75/75/75 74/74/74 73/73/73
f 76/76/76 73/73/73 74/74/74
f 73/73/73 76/76/76 77/77/77
f 78/78/78 77/77/77 76/76/76
f 77/77/77 78/78/78 79/79/79
f 80/80/80 79/79/79 78/78/78
f 79/79/79 80/80/80 81/81/81
f 82/82/82 81/81/81 80/80/80
f 81/81/81 82/82/82 83/83/83
f 84/84/84 83/83/83 82/82/82
f 83/83/83 84/84/84 85/85/85
f 86/86/86 85/85/85 84/84/84
f 85/85/85 86/86/86 87/87/87
f 88/88/88 87/87/87 86/86/86
f 91/91/91 90/90/90 89/89/89
f 92/92/92 89/89/89 90/90/90
f 95/95/95 94/94/94 93/93/93
f 96/96/96 93/93/93 94/94/94
f 94/94/94 95/95/95 97/97/97
f 98/98/98 97/97/97 95/95/95
f 97/97/97 98/98/98 99/99/99
f 100/100/100 99/99/99 98/98/98
f 99/99/99 100/100/100 101/101/101
f 102/102/102 101/101/101 100/100/100
f 101/101/101 102/102/102 103/103/103
f 104/104/104 103/103/103 102/102/102
f 107/107/107 106/106/106 105/105/105
f 108/108/108 105/105/105 106/106/106
f 105/105/105 108/108/108 109/109/109
f 110/110/110 109/109/109 108/108/108
f 109/109/109 110/110/110 111/111/111
f 112/112/112 111/111/111 110/110/110
f 111/111/111 112/112/112 113/113/113
f 114/114/114 113/113/113 112/112/112
f 113/113/113 114/114/114 115/115/115
f 116/116/116 115/115/115 114/114/114
f 119/119/119 118/118/118 117/117/117
f 120/120/120 117/117/117 118/118/118
