g Scalable08
v -0.1267584 0.5547963 4.728506E-08
v -0.2660318 0.5030851 -1.556269
v -0.1267584 0.5547969 -1.556269
v -0.2660318 0.5030846 3.105188E-08
v -0.3871747 0.4170889 -1.556269
v -0.3871747 0.4170884 4.056274E-09
v -0.4819322 0.3026689 -1.556269
v -0.4819322 0.3026684 -3.186206E-08
v -0.5438469 0.167622 -7.425535E-08
v -0.5438469 0.1676225 -1.556269
v -0.5686999 0.02115248 -1.202346E-07
v -0.5686999 0.02115296 -1.556269
v -0.5547963 -0.1267586 -1.666663E-07
v -0.5547963 -0.1267581 -1.556269
v -0.5030854 -0.2660313 -2.103863E-07
v -0.5030854 -0.2660308 -1.556269
v -0.4170893 -0.3871745 -2.484151E-07
v -0.4170893 -0.387174 -1.556269
v -0.3026689 -0.4819318 -1.556269
v -0.3026689 -0.4819323 -2.781611E-07
v -0.1676223 -0.5438467 -1.556269
v -0.1676223 -0.5438472 -2.975973E-07
v -0.02115243 -0.5686994 -1.556269
v -0.02115243 -0.5686999 -3.05399E-07
v 0.1267584 -0.5547961 -1.556269
v 0.1267584 -0.5547966 -3.010344E-07
v 0.266031 -0.5030844 -1.556269
v 0.266031 -0.5030849 -2.848013E-07
v 0.387174 -0.4170882 -1.556269
v 0.387174 -0.4170887 -2.578057E-07
v 0.4819322 -0.3026682 -1.556269
v 0.4819322 -0.3026687 -2.218873E-07
v 0.5438469 -0.1676222 -1.79494E-07
v 0.5438469 -0.1676217 -1.556269
v 0.5686999 -0.02115272 -1.335148E-07
v 0.5686999 -0.02115224 -1.556269
v 0.5547963 0.1267584 -8.708313E-08
v 0.5547963 0.1267588 -1.556269
v 0.5030846 0.2660311 -4.336312E-08
v 0.5030846 0.2660316 -1.556269
v 0.4170885 0.3871742 -5.334311E-09
v 0.4568238 0.3312002 -1.556269
v 0.4170885 0.3871747 -1.556269
v 0.3026689 0.4819326 -1.556269
v 0.3026689 0.481932 2.441175E-08
v 0.1676223 0.5438475 -1.556269
v 0.1676223 0.543847 4.384787E-08
v 0.02115243 0.5687001 -1.556269
v 0.02115243 0.5686997 5.164952E-08
v -0.1267584 0.5547969 -1.556269
v -0.1267584 0.5547963 4.728506E-08
v -0.1267584 0.5547969 -1.556269
v 0.1676223 0.5438475 -1.556269
v 0.02115243 0.5687001 -1.556269
v 0.4170885 0.3871747 -1.556269
v -0.4819322 0.3026689 -1.556269
v -0.5030854 -0.2660308 -1.556269
v 0.4819322 -0.3026682 -1.556269
v -0.02115243 -0.5686994 -1.556269
v 0.266031 -0.5030844 -1.556269
v 0.387174 -0.4170882 -1.556269
v 0.1267584 -0.5547961 -1.556269
v -0.3026689 -0.4819318 -1.556269
v -0.1676223 -0.5438467 -1.556269
v -0.4170893 -0.387174 -1.556269
v -0.3871747 0.4170889 -1.556269
v 0.1676223 0.5438475 -1.556269
v 0.4170885 0.3871747 -1.556269
v 0.3026689 0.4819326 -1.556269
v 0.4568238 0.3312002 -1.556269
v 0.5547963 0.1267588 -1.556269
v 0.5030846 0.2660316 -1.556269
v 0.4170885 0.3871747 -1.556269
v 0.4819322 -0.3026682 -1.556269
v 0.5547963 0.1267588 -1.556269
v 0.5438469 -0.1676217 -1.556269
v 0.5686999 -0.02115224 -1.556269
v 0.5547963 0.1267588 -1.556269
v 0.4819322 -0.3026682 -1.556269
v 0.5438469 -0.1676217 -1.556269
v -0.5030854 -0.2660308 -1.556269
v -0.5686999 0.02115296 -1.556269
v -0.5547963 -0.1267581 -1.556269
v -0.5686999 0.02115296 -1.556269
v -0.4819322 0.3026689 -1.556269
v -0.5438469 0.1676225 -1.556269
v -0.5030854 -0.2660308 -1.556269
v -0.1267584 0.5547969 -1.556269
v -0.2660318 0.5030851 -1.556269
v -0.3871747 0.4170889 -1.556269
v -0.3871747 0.4170884 4.056274E-09
v -0.5438469 0.167622 -7.425535E-08
v -0.4819322 0.3026684 -3.186206E-08
v -0.1267584 0.5547963 4.728506E-08
v -0.4170893 -0.3871745 -2.484151E-07
v -0.5547963 -0.1267586 -1.666663E-07
v -0.5686999 0.02115248 -1.202346E-07
v -0.5030854 -0.2660313 -2.103863E-07
v 0.5438469 -0.1676222 -1.79494E-07
v 0.1267584 -0.5547966 -3.010344E-07
v -0.1676223 -0.5438472 -2.975973E-07
v -0.3026689 -0.4819323 -2.781611E-07
v -0.02115243 -0.5686999 -3.05399E-07
v 0.387174 -0.4170887 -2.578057E-07
v 0.266031 -0.5030849 -2.848013E-07
v 0.4819322 -0.3026687 -2.218873E-07
v 0.5438469 -0.1676222 -1.79494E-07
v 0.5547963 0.1267584 -8.708313E-08
v 0.5686999 -0.02115272 -1.335148E-07
v 0.5547963 0.1267584 -8.708313E-08
v 0.4170885 0.3871742 -5.334311E-09
v 0.5030846 0.2660311 -4.336312E-08
v 0.5438469 -0.1676222 -1.79494E-07
v -0.1267584 0.5547963 4.728506E-08
v 0.1676223 0.543847 4.384787E-08
v 0.3026689 0.481932 2.441175E-08
v 0.02115243 0.5686997 5.164952E-08
v -0.2660318 0.5030846 3.105188E-08
v -0.1267584 0.5547963 4.728506E-08
v -0.3871747 0.4170884 4.056274E-09
vt 0.03574966 0.9999999
vt 0.07741643 2.086163E-07
vt 0.03574963 2.086163E-07
vt 0.07741651 0.9999999
vt 0.1190831 8.940697E-08
vt 0.1190831 0.9999999
vt 0.1607496 8.940697E-08
vt 0.1607497 0.9999999
vt 0.2024164 0.9999999
vt 0.2024163 8.940697E-08
vt 0.244083 0.9999998
vt 0.2440829 8.940697E-08
vt 0.2857497 0.9999998
vt 0.2857496 2.980232E-08
vt 0.3274163 0.9999998
vt 0.3274162 2.980232E-08
vt 0.3690829 0.9999998
vt 0.3690828 2.980232E-08
vt 0.4107495 2.980232E-08
vt 0.4107496 0.9999998
vt 0.4524163 2.980232E-08
vt 0.4524163 0.9999998
vt 0.494083 2.980232E-08
vt 0.494083 0.9999997
vt 0.5357496 2.980232E-08
vt 0.5357496 0.9999998
vt 0.5774163 2.980232E-08
vt 0.5774162 0.9999998
vt 0.6190829 2.980232E-08
vt 0.6190829 0.9999998
vt 0.6607497 2.980232E-08
vt 0.6607496 0.9999998
vt 0.7024162 0.9999998
vt 0.7024164 2.980232E-08
vt 0.7440829 0.9999998
vt 0.744083 8.940697E-08
vt 0.7857496 0.9999999
vt 0.7857497 8.940697E-08
vt 0.8274162 0.9999999
vt 0.8274164 8.940697E-08
vt 0.8690829 0.9999999
vt 0.8498399 8.940697E-08
vt 0.8690831 8.940697E-08
vt 0.9107496 1.490116E-07
vt 0.9107496 0.9999999
vt 0.9524162 2.086163E-07
vt 0.9524162 0.9999999
vt 0.994083 2.086163E-07
vt 0.994083 0.9999999
vt 1.03575 2.086163E-07
vt 1.03575 0.9999999
vt -0.9642504 2.086163E-07
vt -0.04758376 2.086163E-07
vt -0.005917013 2.086163E-07
vt -0.1309169 8.940697E-08
vt -0.8392504 8.940697E-08
vt -0.6725838 2.980232E-08
vt -0.3392503 2.980232E-08
vt -0.505917 2.980232E-08
vt -0.4225837 2.980232E-08
vt -0.3809171 2.980232E-08
vt -0.4642504 2.980232E-08
vt -0.5892504 2.980232E-08
vt -0.5475837 2.980232E-08
vt -0.6309172 2.980232E-08
vt -0.880917 8.940697E-08
vt -0.04758376 2.086163E-07
vt -0.1309169 8.940697E-08
vt -0.08925039 1.490116E-07
vt -0.1501601 8.940697E-08
vt -0.2142503 8.940697E-08
vt -0.1725836 8.940697E-08
vt -0.1309169 8.940697E-08
vt -0.3392503 2.980232E-08
vt -0.2142503 8.940697E-08
vt -0.2975836 2.980232E-08
vt -0.255917 8.940697E-08
vt -0.2142503 8.940697E-08
vt -0.3392503 2.980232E-08
vt -0.2975836 2.980232E-08
vt -0.6725838 2.980232E-08
vt -0.7559171 8.940697E-08
vt -0.7142504 2.980232E-08
vt -0.7559171 8.940697E-08
vt -0.8392504 8.940697E-08
vt -0.7975838 8.940697E-08
vt -0.6725838 2.980232E-08
vt -0.9642504 2.086163E-07
vt -0.9225836 2.086163E-07
vt -0.880917 8.940697E-08
vt 0.1190831 0.9999999
vt 0.2024164 0.9999999
vt 0.1607497 0.9999999
vt 1.03575 0.9999999
vt 0.3690829 0.9999998
vt 0.2857497 0.9999998
vt 0.244083 0.9999998
vt 0.3274163 0.9999998
vt 0.7024162 0.9999998
vt 0.5357496 0.9999998
vt 0.4524163 0.9999998
vt 0.4107496 0.9999998
vt 0.494083 0.9999997
vt 0.6190829 0.9999998
vt 0.5774162 0.9999998
vt 0.6607496 0.9999998
vt 0.7024162 0.9999998
vt 0.7857496 0.9999999
vt 0.7440829 0.9999998
vt 0.7857496 0.9999999
vt 0.8690829 0.9999999
vt 0.8274162 0.9999999
vt 0.7024162 0.9999998
vt 1.03575 0.9999999
vt 0.9524162 0.9999999
vt 0.9107496 0.9999999
vt 0.994083 0.9999999
vt 1.077417 0.9999999
vt 1.03575 0.9999999
vt 0.1190831 0.9999999
vn -0.2227371 0.9748786 3.034797E-07
vn -0.467465 0.8840116 2.751928E-07
vn -0.2227371 0.9748786 3.034797E-07
vn -0.4674651 0.8840116 2.872189E-07
vn -0.6803368 0.7328995 0
vn -0.6803368 0.7328995 0
vn -0.8468433 0.5318424 0
vn -0.8468433 0.5318425 0
vn -0.9556382 0.2945432 0
vn -0.9556382 0.2945432 0
vn -0.9993091 0.03716877 0
vn -0.9993091 0.03716877 0
vn -0.9748787 -0.2227364 0
vn -0.9748787 -0.2227364 0
vn -0.8840127 -0.4674627 0
vn -0.8840127 -0.4674627 0
vn -0.7329001 -0.6803362 0
vn -0.7329001 -0.6803362 0
vn -0.5318428 -0.8468431 -2.636222E-07
vn -0.5318427 -0.8468431 -2.636223E-07
vn -0.2945424 -0.9556383 -2.974902E-07
vn -0.2945423 -0.9556383 -2.974902E-07
vn -0.03716858 -0.9993091 -3.110849E-07
vn -0.03716853 -0.9993091 -3.11085E-07
vn 0.222738 -0.9748784 -3.034797E-07
vn 0.222738 -0.9748784 -3.034796E-07
vn 0.4674655 -0.8840113 -2.751927E-07
vn 0.4674655 -0.8840112 -2.751927E-07
vn 0.6803353 -0.732901 0
vn 0.6803355 -0.7329009 0
vn 0.8468423 -0.531844 0
vn 0.8468423 -0.531844 0
vn 0.9556382 -0.2945431 0
vn 0.9556382 -0.2945431 0
vn 0.9993091 -0.03716879 0
vn 0.9993091 -0.03716882 0
vn 0.9748781 0.2227388 0
vn 0.9748781 0.2227387 0
vn 0.8840116 0.4674649 0
vn 0.8840129 0.4674625 4.093543E-07
vn 0.7329013 0.680335 0
vn 0.8154321 0.5788527 4.663521E-07
vn 0.732899 0.6803374 0
vn 0.5318445 0.8468421 2.786255E-07
vn 0.5318443 0.8468421 2.899841E-07
vn 0.2945422 0.9556385 3.272393E-07
vn 0.2945422 0.9556385 3.12699E-07
vn 0.03716858 0.9993091 3.256252E-07
vn 0.03716869 0.9993091 3.110849E-07
vn -0.2227371 0.9748786 3.034797E-07
vn -0.2227371 0.9748786 3.034797E-07
vn 0 9.690124E-07 -1
vn 0 1.211132E-06 -1
vn 0 0 -1
vn 0 3.618662E-07 -1
vn 0 0 -1
vn 0 0 -1
vn 0 0 -1
vn 0 0 -1
vn 0 0 -1
vn 0 0 -1
vn 0 0 -1
vn 0 0 -1
vn 0 0 -1
vn 0 0 -1
vn 1.184005E-06 -8.318166E-07 -1
vn 0 1.211132E-06 -1
vn 0 3.618662E-07 -1
vn -5.570749E-07 3.498709E-07 -1
vn 0 0 -1
vn 3.575115E-07 0 -1
vn 0 0 -1
vn 0 3.618662E-07 -1
vn 0 0 -1
vn 3.575115E-07 0 -1
vn -6.317474E-07 3.526405E-07 -1
vn 2.508816E-06 0 -1
vn 3.575115E-07 0 -1
vn 0 0 -1
vn -6.317474E-07 3.526405E-07 -1
vn 0 0 -1
vn -4.641221E-07 0 -1
vn 2.36241E-06 8.771449E-07 -1
vn -4.641221E-07 0 -1
vn 0 0 -1
vn 0 0 -1
vn 0 0 -1
vn 0 9.690124E-07 -1
vn -1.754244E-06 4.72464E-06 -1
vn 1.184005E-06 -8.318166E-07 -1
vn 0 -3.139166E-07 1
vn 0 -3.139165E-07 1
vn 0 -3.139166E-07 1
vn 0 -3.139165E-07 1
vn 0 -3.139166E-07 1
vn 0 -3.139165E-07 1
vn 0 -3.139164E-07 1
vn 0 -3.139174E-07 1
vn 0 -3.139165E-07 1
vn 0 -3.139166E-07 1
vn 0 -3.13917E-07 1
vn 0 -3.139159E-07 1
vn 0 -3.139181E-07 1
vn 0 -3.139166E-07 1
vn 0 -3.13917E-07 1
vn 0 -3.139161E-07 1
vn 0 -3.139165E-07 1
vn 0 -3.139164E-07 1
vn 0 -3.139164E-07 1
vn 0 -3.139164E-07 1
vn 0 -3.139165E-07 1
vn 0 -3.139169E-07 1
vn 0 -3.139165E-07 1
vn 0 -3.139165E-07 1
vn 0 -3.139166E-07 1
vn 0 -3.139172E-07 1
vn 0 -3.139165E-07 1
vn 0 -3.139156E-07 1
vn 0 -3.139165E-07 1
vn 0 -3.139166E-07 1
g Scalable08_0
f 3/3/3 2/2/2 1/1/1
f 4/4/4 1/1/1 2/2/2
f 2/2/2 5/5/5 4/4/4
f 6/6/6 4/4/4 5/5/5
f 5/5/5 7/7/7 6/6/6
f 8/8/8 6/6/6 7/7/7
f 8/8/8 7/7/7 9/9/9
f 10/10/10 9/9/9 7/7/7
f 9/9/9 10/10/10 11/11/11
f 12/12/12 11/11/11 10/10/10
f 11/11/11 12/12/12 13/13/13
f 14/14/14 13/13/13 12/12/12
f 13/13/13 14/14/14 15/15/15
f 16/16/16 15/15/15 14/14/14
f 15/15/15 16/16/16 17/17/17
f 18/18/18 17/17/17 16/16/16
f 18/18/18 19/19/19 17/17/17
f 20/20/20 17/17/17 19/19/19
f 19/19/19 21/21/21 20/20/20
f 22/22/22 20/20/20 21/21/21
f 21/21/21 23/23/23 22/22/22
f 24/24/24 22/22/22 23/23/23
f 23/23/23 25/25/25 24/24/24
f 26/26/26 24/24/24 25/25/25
f 25/25/25 27/27/27 26/26/26
f 28/28/28 26/26/26 27/27/27
f 27/27/27 29/29/29 28/28/28
f 30/30/30 28/28/28 29/29/29
f 29/29/29 31/31/31 30/30/30
f 32/32/32 30/30/30 31/31/31
f 32/32/32 31/31/31 33/33/33
f 34/34/34 33/33/33 31/31/31
f 33/33/33 34/34/34 35/35/35
f 36/36/36 35/35/35 34/34/34
f 35/35/35 36/36/36 37/37/37
f 38/38/38 37/37/37 36/36/36
f 37/37/37 38/38/38 39/39/39
f 40/40/40 39/39/39 38/38/38
f 39/39/39 40/40/40 41/41/41
f 40/40/40 42/42/42 41/41/41
f 42/42/42 43/43/43 41/41/41
f 43/43/43 44/44/44 41/41/41
f 45/45/45 41/41/41 44/44/44
f 44/44/44 46/46/46 45/45/45
f 47/47/47 45/45/45 46/46/46
f 46/46/46 48/48/48 47/47/47
f 49/49/49 47/47/47 48/48/48
f 48/48/48 50/50/50 49/49/49
f 51/51/51 49/49/49 50/50/50
f 54/54/54 53/53/53 52/52/52
f 53/53/53 55/55/55 52/52/52
f 55/55/55 56/56/56 52/52/52
f 57/57/57 56/56/56 55/55/55
f 58/58/58 57/57/57 55/55/55
f 59/59/59 57/57/57 58/58/58
f 60/60/60 59/59/59 58/58/58
f 61/61/61 60/60/60 58/58/58
f 62/62/62 59/59/59 60/60/60
f 63/63/63 57/57/57 59/59/59
f 64/64/64 63/63/63 59/59/59
f 65/65/65 57/57/57 63/63/63
f 56/56/56 66/66/66 52/52/52
f 69/69/69 68/68/68 67/67/67
f 72/72/72 71/71/71 70/70/70
f 70/70/70 71/71/71 73/73/73
f 71/71/71 74/74/74 73/73/73
f 77/77/77 76/76/76 75/75/75
f 80/80/80 79/79/79 78/78/78
f 83/83/83 82/82/82 81/81/81
f 86/86/86 85/85/85 84/84/84
f 84/84/84 85/85/85 87/87/87
f 90/90/90 89/89/89 88/88/88
f 93/93/93 92/92/92 91/91/91
f 92/92/92 94/94/94 91/91/91
f 95/95/95 94/94/94 92/92/92
f 96/96/96 95/95/95 92/92/92
f 97/97/97 96/96/96 92/92/92
f 98/98/98 95/95/95 96/96/96
f 99/99/99 94/94/94 95/95/95
f 100/100/100 99/99/99 95/95/95
f 101/101/101 100/100/100 95/95/95
f 102/102/102 101/101/101 95/95/95
f 103/103/103 100/100/100 101/101/101
f 104/104/104 99/99/99 100/100/100
f 105/105/105 104/104/104 100/100/100
f 106/106/106 99/99/99 104/104/104
f 109/109/109 108/108/108 107/107/107
f 112/112/112 111/111/111 110/110/110
f 110/110/110 111/111/111 113/113/113
f 111/111/111 114/114/114 113/113/113
f 115/115/115 114/114/114 111/111/111
f 116/116/116 115/115/115 111/111/111
f 117/117/117 114/114/114 115/115/115
f 120/120/120 119/119/119 118/118/118
