g Scalable07
v -0.01799349 -0.4837888 -0.00120112
v 0.107834 -0.4719611 -1.011188
v -0.01799349 -0.4837884 -1.011188
v 0.107834 -0.4719614 -0.001201118
v -0.1425939 -0.4626469 -0.001201117
v -0.1425939 -0.4626466 -1.011188
v -0.2574774 -0.4099763 -0.001201109
v -0.2574774 -0.4099759 -1.011188
v -0.3548137 -0.3293665 -0.001201097
v -0.3548137 -0.3293661 -1.011188
v 0.2263119 -0.4279704 -1.011188
v 0.2263119 -0.4279707 -0.001201112
v 0.3293668 -0.354814 -1.011188
v 0.3293668 -0.3548143 -0.001201101
v 0.4099759 -0.2574781 -0.001201086
v 0.4099759 -0.2574777 -1.011188
v 0.462647 -0.142595 -0.001201021
v 0.462647 -0.1425947 -1.011188
v 0.4837886 -0.01799441 -0.001201002
v 0.4837886 -0.01799407 -1.011188
v 0.4719622 0.1078325 -0.001200935
v 0.4719622 0.1078328 -1.011188
v 0.4279709 0.2263107 -0.001200917
v 0.4279709 0.2263111 -1.011188
v 0.3548152 0.3293664 -0.001200901
v 0.3548152 0.3293667 -1.011188
v 0.257479 0.4099764 -1.011188
v 0.257479 0.4099761 -0.001200889
v 0.1425962 0.4626471 -1.011188
v 0.1425962 0.4626467 -0.001200881
v 0.01799503 0.483789 -1.011188
v 0.01799503 0.4837886 -0.001200878
v -0.1078317 0.4719616 -1.011188
v -0.1078317 0.4719613 -0.00120088
v -0.4719607 -0.1078323 -1.011188
v -0.4279694 -0.2263109 -0.001201081
v -0.4279694 -0.2263106 -1.011188
v -0.4719607 -0.1078326 -0.001201015
v -0.4837878 0.0179946 -1.011188
v -0.4837878 0.01799426 -0.001200996
v -0.4626462 0.1425952 -1.011188
v -0.4626462 0.1425949 -0.001200929
v -0.4099759 0.2574782 -1.011188
v -0.4099759 0.2574779 -0.001200912
v -0.329366 0.3548145 -1.011188
v -0.329366 0.3548142 -0.001200897
v -0.2263096 0.4279704 -0.001200886
v -0.2263096 0.4279708 -1.011188
v -0.1078317 0.4719613 -0.00120088
v -0.1078317 0.4719616 -1.011188
v -0.1425939 -0.4626466 -1.011188
v -0.3548137 -0.3293661 -1.011188
v -0.2574774 -0.4099759 -1.011188
v 0.107834 -0.4719611 -1.011188
v -0.4626462 0.1425952 -1.011188
v -0.4719607 -0.1078323 -1.011188
v -0.4279694 -0.2263106 -1.011188
v -0.4837878 0.0179946 -1.011188
v 0.3548152 0.3293667 -1.011188
v -0.1078317 0.4719616 -1.011188
v -0.329366 0.3548145 -1.011188
v -0.2263096 0.4279708 -1.011188
v 0.1425962 0.4626471 -1.011188
v 0.01799503 0.483789 -1.011188
v 0.257479 0.4099764 -1.011188
v 0.462647 -0.1425947 -1.011188
v -0.01799349 -0.4837884 -1.011188
v -0.4626462 0.1425952 -1.011188
v -0.329366 0.3548145 -1.011188
v -0.4099759 0.2574782 -1.011188
v 0.3548152 0.3293667 -1.011188
v 0.4719622 0.1078328 -1.011188
v 0.4279709 0.2263111 -1.011188
v 0.462647 -0.1425947 -1.011188
v 0.4837886 -0.01799407 -1.011188
v 0.462647 -0.1425947 -1.011188
v 0.3293668 -0.354814 -1.011188
v 0.4099759 -0.2574777 -1.011188
v 0.107834 -0.4719611 -1.011188
v 0.2263119 -0.4279704 -1.011188
v 0.2263119 -0.4279707 -0.001201112
v 0.4099759 -0.2574781 -0.001201086
v 0.3293668 -0.3548143 -0.001201101
v 0.4099759 -0.2574781 -0.001201086
v 0.4837886 -0.01799441 -0.001201002
v 0.462647 -0.142595 -0.001201021
v 0.4279709 0.2263107 -0.001200917
v 0.4837886 -0.01799441 -0.001201002
v 0.4279709 0.2263107 -0.001200917
v 0.4719622 0.1078325 -0.001200935
v 0.4279709 0.2263107 -0.001200917
v 0.257479 0.4099761 -0.001200889
v 0.3548152 0.3293664 -0.001200901
v 0.01799503 0.4837886 -0.001200878
v 0.1425962 0.4626467 -0.001200881
v -0.4099759 0.2574779 -0.001200912
v -0.2263096 0.4279704 -0.001200886
v -0.1078317 0.4719613 -0.00120088
v -0.329366 0.3548142 -0.001200897
v -0.01799349 -0.4837888 -0.00120112
v 0.4099759 -0.2574781 -0.001201086
v 0.2263119 -0.4279707 -0.001201112
v 0.107834 -0.4719614 -0.001201118
v -0.4099759 0.2574779 -0.001200912
v -0.4837878 0.01799426 -0.001200996
v -0.4626462 0.1425949 -0.001200929
v -0.4279694 -0.2263109 -0.001201081
v -0.4837878 0.01799426 -0.001200996
v -0.4279694 -0.2263109 -0.001201081
v -0.4719607 -0.1078326 -0.001201015
v -0.4279694 -0.2263109 -0.001201081
v -0.2574774 -0.4099763 -0.001201109
v -0.3548137 -0.3293665 -0.001201097
v -0.01799349 -0.4837888 -0.00120112
v -0.1425939 -0.4626469 -0.001201117
v -0.4099759 0.2574779 -0.001200912
vt 0.4940832 0.9999998
vt 0.53575 5.960464E-08
vt 0.4940832 5.960464E-08
vt 0.5357499 0.9999998
vt 0.4524166 0.9999998
vt 0.4524166 5.960464E-08
vt 0.4107499 0.9999998
vt 0.4107498 5.960464E-08
vt 0.3690832 0.9999998
vt 0.3690831 5.960464E-08
vt 0.5774164 5.960464E-08
vt 0.5774164 0.9999998
vt 0.6190829 5.960464E-08
vt 0.6190828 0.9999998
vt 0.6607494 0.9999999
vt 0.6607494 5.960464E-08
vt 0.7024162 0.9999999
vt 0.7024163 1.788139E-07
vt 0.7440829 0.9999999
vt 0.744083 1.788139E-07
vt 0.7857496 1
vt 0.7857497 1.788139E-07
vt 0.8274164 1
vt 0.8274164 1.788139E-07
vt 0.8690829 1
vt 0.8690829 2.980232E-07
vt 0.9107496 4.172325E-07
vt 0.9107496 1
vt 0.9524161 4.172325E-07
vt 0.9524161 1
vt 0.9940829 4.172325E-07
vt 0.9940829 1
vt 1.035749 4.172325E-07
vt 1.035749 1
vt 0.2857497 1.788139E-07
vt 0.3274166 0.9999999
vt 0.3274165 1.788139E-07
vt 0.2857498 0.9999999
vt 0.2440829 1.788139E-07
vt 0.244083 0.9999999
vt 0.2024162 1.788139E-07
vt 0.2024163 1
vt 0.1607495 1.788139E-07
vt 0.1607496 1
vt 0.1190829 4.172325E-07
vt 0.1190829 1
vt 0.07741602 1
vt 0.07741598 4.172325E-07
vt 0.03574947 1
vt 0.03574947 4.172325E-07
vt 0.4524166 5.960464E-08
vt 0.3690831 5.960464E-08
vt 0.4107498 5.960464E-08
vt -0.46425 5.960464E-08
vt 0.2024162 1.788139E-07
vt 0.2857497 1.788139E-07
vt 0.3274165 1.788139E-07
vt 0.2440829 1.788139E-07
vt -0.1309171 2.980232E-07
vt 0.03574947 4.172325E-07
vt 0.1190829 4.172325E-07
vt 0.07741598 4.172325E-07
vt -0.04758388 4.172325E-07
vt -0.005917132 4.172325E-07
vt -0.08925045 4.172325E-07
vt -0.2975837 1.788139E-07
vt -0.5059168 5.960464E-08
vt 0.2024162 1.788139E-07
vt 0.1190829 4.172325E-07
vt 0.1607495 1.788139E-07
vt -0.1309171 2.980232E-07
vt -0.2142503 1.788139E-07
vt -0.1725836 1.788139E-07
vt -0.2975837 1.788139E-07
vt -0.255917 1.788139E-07
vt -0.2975837 1.788139E-07
vt -0.3809171 5.960464E-08
vt -0.3392506 5.960464E-08
vt -0.46425 5.960464E-08
vt -0.4225836 5.960464E-08
vt 0.5774164 0.9999998
vt 0.6607494 0.9999999
vt 0.6190828 0.9999998
vt 0.6607494 0.9999999
vt 0.7440829 0.9999999
vt 0.7024162 0.9999999
vt 0.8274164 1
vt 0.7440829 0.9999999
vt 0.8274164 1
vt 0.7857496 1
vt 0.8274164 1
vt 0.9107496 1
vt 0.8690829 1
vt 0.9940829 1
vt 0.9524161 1
vt 1.16075 1
vt 1.077416 1
vt 1.035749 1
vt 1.119083 1
vt 1.494083 0.9999998
vt 0.6607494 0.9999999
vt 0.5774164 0.9999998
vt 1.53575 0.9999998
vt 1.16075 1
vt 1.244083 0.9999999
vt 1.202416 1
vt 1.327417 0.9999999
vt 1.244083 0.9999999
vt 1.327417 0.9999999
vt 1.28575 0.9999999
vt 1.327417 0.9999999
vt 1.41075 0.9999998
vt 1.369083 0.9999998
vt 1.494083 0.9999998
vt 1.452417 0.9999998
vt 1.16075 1
vn -0.03716908 -0.9993091 -3.391239E-07
vn 0.2227374 -0.9748785 -3.249274E-07
vn -0.03716911 -0.9993091 -3.395562E-07
vn 0.2227377 -0.9748784 -2.805755E-07
vn -0.2945416 -0.9556387 -3.189578E-07
vn -0.2945416 -0.9556387 -3.155325E-07
vn -0.5318429 -0.8468429 -2.844739E-07
vn -0.5318434 -0.8468428 -3.163909E-07
vn -0.732902 -0.6803342 -2.597789E-07
vn -0.732902 -0.6803343 0
vn 0.4674673 -0.8840103 -2.544232E-07
vn 0.4674672 -0.8840105 -2.816671E-07
vn 0.6803387 -0.7328978 0
vn 0.6803386 -0.732898 -2.636652E-07
vn 0.8468427 -0.5318434 0
vn 0.8468426 -0.5318435 0
vn 0.9556383 -0.2945428 0
vn 0.9556383 -0.2945429 0
vn 0.9993089 -0.03717162 0
vn 0.9993089 -0.03717152 0
vn 0.9748789 0.2227356 0
vn 0.9748789 0.2227355 0
vn 0.8840116 0.467465 0
vn 0.8840116 0.467465 0
vn 0.732902 0.6803342 0
vn 0.7329019 0.6803343 0
vn 0.5318442 0.8468422 0
vn 0.5318441 0.8468423 2.639732E-07
vn 0.2945425 0.9556383 3.006308E-07
vn 0.2945423 0.9556383 3.208779E-07
vn 0.03716848 0.9993091 3.355414E-07
vn 0.03716847 0.9993091 3.355414E-07
vn -0.2227381 0.9748784 3.273381E-07
vn -0.2227382 0.9748783 3.273381E-07
vn -0.9748783 -0.2227385 0
vn -0.8840116 -0.467465 0
vn -0.8840116 -0.467465 0
vn -0.9748783 -0.2227384 0
vn -0.9993091 0.03716876 0
vn -0.9993091 0.03716866 0
vn -0.9556391 0.2945403 0
vn -0.9556391 0.2945403 0
vn -0.8468429 0.531843 0
vn -0.8468429 0.531843 0
vn -0.6803342 0.732902 0
vn -0.6803341 0.7329021 0
vn -0.4674639 0.8840122 2.78665E-07
vn -0.4674641 0.884012 2.968277E-07
vn -0.2227382 0.9748783 3.273381E-07
vn -0.2227381 0.9748784 3.273381E-07
vn 0 -5.988023E-07 -1
vn 0 3.03616E-07 -1
vn 1.889358E-06 2.281399E-06 -1
vn 0 4.113558E-07 -1
vn 0 2.983715E-07 -1
vn -1.657466E-06 0 -1
vn -5.554085E-06 -2.062247E-06 -1
vn 0 0 -1
vn 0 3.79961E-07 -1
vn 0 6.389624E-07 -1
vn -4.124545E-07 1.130672E-06 -1
vn 0 0 -1
vn 0 8.248992E-07 -1
vn 0 0 -1
vn 1.234528E-06 2.692698E-06 -1
vn 0 3.546762E-07 -1
vn 0 0 -1
vn 0 2.983715E-07 -1
vn -4.124545E-07 1.130672E-06 -1
vn 5.385321E-06 -2.469002E-06 -1
vn 0 3.79961E-07 -1
vn -8.28729E-07 0 -1
vn -2.777036E-06 -1.03112E-06 -1
vn 0 3.546762E-07 -1
vn 0 0 -1
vn 0 3.546762E-07 -1
vn -1.311824E-06 1.756347E-06 -1
vn 4.112812E-07 6.548461E-07 -1
vn 0 4.113558E-07 -1
vn -1.714666E-06 2.415435E-06 -1
vn 0 0 1
vn 0 -3.055134E-07 1
vn 0 0 1
vn 0 -3.055134E-07 1
vn 0 -3.434637E-07 1
vn -1.444787E-06 0 1
vn 0 -2.771627E-07 1
vn 0 -3.434637E-07 1
vn 0 -2.771627E-07 1
vn -1.37561E-06 -6.617118E-07 1
vn 0 -2.771627E-07 1
vn 0 0 1
vn 0 0 1
vn 0 0 1
vn 0 0 1
vn 0 -2.804492E-07 1
vn 0 0 1
vn 0 0 1
vn 0 0 1
vn 0 -2.710744E-07 1
vn 0 -3.055134E-07 1
vn 0 0 1
vn 0 0 1
vn 0 -2.804492E-07 1
vn 0 -3.528433E-07 1
vn 1.342675E-06 -7.654774E-07 1
vn 0 -3.039346E-07 1
vn 0 -3.528433E-07 1
vn 0 -3.039346E-07 1
vn 1.465004E-06 0 1
vn 0 -3.039346E-07 1
vn 0 0 1
vn 0 0 1
vn 0 -2.710744E-07 1
vn 0 0 1
vn 0 -2.804492E-07 1
g Scalable07_0
f 3/3/3 2/2/2 1/1/1
f 4/4/4 1/1/1 2/2/2
f 1/1/1 5/5/5 3/3/3
f 6/6/6 3/3/3 5/5/5
f 5/5/5 7/7/7 6/6/6
f 8/8/8 6/6/6 7/7/7
f 7/7/7 9/9/9 8/8/8
f 10/10/10 8/8/8 9/9/9
f 2/2/2 11/11/11 4/4/4
f 12/12/12 4/4/4 11/11/11
f 11/11/11 13/13/13 12/12/12
f 14/14/14 12/12/12 13/13/13
f 14/14/14 13/13/13 15/15/15
f 16/16/16 15/15/15 13/13/13
f 15/15/15 16/16/16 17/17/17
f 18/18/18 17/17/17 16/16/16
f 17/17/17 18/18/18 19/19/19
f 20/20/20 19/19/19 18/18/18
f 19/19/19 20/20/20 21/21/21
f 22/22/22 21/21/21 20/20/20
f 21/21/21 22/22/22 23/23/23
f 24/24/24 23/23/23 22/22/22
f 23/23/23 24/24/24 25/25/25
f 26/26/26 25/25/25 24/24/24
f 26/26/26 27/27/27 25/25/25
f 28/28/28 25/25/25 27/27/27
f 27/27/27 29/29/29 28/28/28
f 30/30/30 28/28/28 29/29/29
f 29/29/29 31/31/31 30/30/30
f 32/32/32 30/30/30 31/31/31
f 31/31/31 33/33/33 32/32/32
f 34/34/34 32/32/32 33/33/33
f 37/37/37 36/36/36 35/35/35
f 38/38/38 35/35/35 36/36/36
f 36/36/36 37/37/37 9/9/9
f 10/10/10 9/9/9 37/37/37
f 35/35/35 38/38/38 39/39/39
f 40/40/40 39/39/39 38/38/38
f 39/39/39 40/40/40 41/41/41
f 42/42/42 41/41/41 40/40/40
f 41/41/41 42/42/42 43/43/43
f 44/44/44 43/43/43 42/42/42
f 43/43/43 44/44/44 45/45/45
f 46/46/46 45/45/45 44/44/44
f 46/46/46 47/47/47 45/45/45
f 48/48/48 45/45/45 47/47/47
f 47/47/47 49/49/49 48/48/48
f 50/50/50 48/48/48 49/49/49
f 53/53/53 52/52/52 51/51/51
f 52/52/52 54/54/54 51/51/51
f 55/55/55 54/54/54 52/52/52
f 56/56/56 55/55/55 52/52/52
f 57/57/57 56/56/56 52/52/52
f 58/58/58 55/55/55 56/56/56
f 59/59/59 54/54/54 55/55/55
f 60/60/60 59/59/59 55/55/55
f 61/61/61 60/60/60 55/55/55
f 62/62/62 60/60/60 61/61/61
f 63/63/63 59/59/59 60/60/60
f 64/64/64 63/63/63 60/60/60
f 65/65/65 59/59/59 63/63/63
f 66/66/66 54/54/54 59/59/59
f 51/51/51 54/54/54 67/67/67
f 70/70/70 69/69/69 68/68/68
f 73/73/73 72/72/72 71/71/71
f 72/72/72 74/74/74 71/71/71
f 75/75/75 74/74/74 72/72/72
f 78/78/78 77/77/77 76/76/76
f 77/77/77 79/79/79 76/76/76
f 80/80/80 79/79/79 77/77/77
f 83/83/83 82/82/82 81/81/81
f 86/86/86 85/85/85 84/84/84
f 85/85/85 87/87/87 84/84/84
f 90/90/90 89/89/89 88/88/88
f 93/93/93 92/92/92 91/91/91
f 92/92/92 94/94/94 91/91/91
f 95/95/95 94/94/94 92/92/92
f 94/94/94 96/96/96 91/91/91
f 97/97/97 96/96/96 94/94/94
f 98/98/98 97/97/97 94/94/94
f 99/99/99 96/96/96 97/97/97
f 96/96/96 100/100/100 91/91/91
f 91/91/91 100/100/100 101/101/101
f 101/101/101 100/100/100 102/102/102
f 102/102/102 100/100/100 103/103/103
f 106/106/106 105/105/105 104/104/104
f 105/105/105 107/107/107 104/104/104
f 110/110/110 109/109/109 108/108/108
f 113/113/113 112/112/112 111/111/111
f 112/112/112 114/114/114 111/111/111
f 115/115/115 114/114/114 112/112/112
f 111/111/111 114/114/114 116/116/116
