g Scalable03
v 0.3278465 -0.0106494 -7.665096E-08
v 0.3136582 -0.09667372 -0.7777113
v 0.3136582 -0.09667396 -1.036555E-07
v 0.3279912 -0.01219925 -0.7777113
v 0.2779513 -0.1745602 -1.281053E-07
v 0.2779513 -0.17456 -0.7777113
v 0.2233 -0.2405505 -1.488207E-07
v 0.2233 -0.2405503 -0.7777113
v 0.1534325 -0.2901477 -1.643901E-07
v 0.1534325 -0.2901474 -0.7777114
v 0.07310799 -0.3199717 -1.737523E-07
v 0.07310799 -0.3199715 -0.7777114
v -0.01219877 -0.3279903 -1.762695E-07
v -0.01219877 -0.3279901 -0.7777114
v -0.09667155 -0.3136568 -1.7177E-07
v -0.09667155 -0.3136565 -0.7777114
v -0.1755958 -0.2770888 -1.602907E-07
v -0.1745587 -0.277948 -0.7777113
v -0.2405472 -0.2232978 -1.434048E-07
v -0.2405472 -0.2232976 -0.7777113
v -0.2901439 -0.1534299 -0.7777113
v -0.2901439 -0.1534301 -1.214722E-07
v -0.3199684 -0.07310616 -0.7777113
v -0.3199684 -0.0731064 -9.625725E-08
v -0.3279896 0.01219968 -0.7777112
v -0.3279896 0.01219944 -6.947834E-08
v -0.3136536 0.09667386 -4.296042E-08
v -0.3136536 0.0966741 -0.7777112
v -0.2779467 0.1745601 -1.851065E-08
v -0.2779467 0.1745604 -0.7777112
v -0.2232953 0.2405504 2.204794E-09
v -0.2232953 0.2405507 -0.7777112
v -0.1534294 0.2901476 1.777416E-08
v -0.1534294 0.2901478 -0.7777112
v -0.07310338 0.3199717 2.713643E-08
v -0.07310338 0.3199719 -0.7777112
v 0.01220339 0.3279902 2.965359E-08
v -0.07310338 0.3199719 -0.7777112
v 0.01220339 0.3279905 -0.7777112
v -0.07310338 0.3199717 2.713643E-08
v 0.09667617 0.3136567 2.515408E-08
v 0.09667617 0.313657 -0.7777112
v 0.1745633 0.2779481 1.394455E-08
v 0.1745633 0.2779484 -0.7777112
v 0.2405518 0.2232978 -3.211102E-09
v 0.2405518 0.223298 -0.7777112
v 0.2901485 0.1534303 -0.7777112
v 0.2901485 0.15343 -2.514373E-08
v 0.3199731 0.07310652 -0.7777112
v 0.3199731 0.07310628 -5.035868E-08
v 0.3278465 -0.0106494 -7.665096E-08
v 0.2901485 0.15343 -2.514373E-08
v 0.3199731 0.07310628 -5.035868E-08
v 0.2901485 0.15343 -2.514373E-08
v 0.1745633 0.2779481 1.394455E-08
v 0.2405518 0.2232978 -3.211102E-09
v 0.01220339 0.3279902 2.965359E-08
v 0.09667617 0.3136567 2.515408E-08
v -0.2779467 0.1745601 -1.851065E-08
v -0.1534294 0.2901476 1.777416E-08
v -0.07310338 0.3199717 2.713643E-08
v -0.2232953 0.2405504 2.204794E-09
v -0.09667155 -0.3136568 -1.7177E-07
v -0.2901439 -0.1534301 -1.214722E-07
v -0.2779467 0.1745601 -1.851065E-08
v -0.3279896 0.01219944 -6.947834E-08
v -0.3136536 0.09667386 -4.296042E-08
v -0.2901439 -0.1534301 -1.214722E-07
v -0.3199684 -0.0731064 -9.625725E-08
v -0.2901439 -0.1534301 -1.214722E-07
v -0.1755958 -0.2770888 -1.602907E-07
v -0.2405472 -0.2232978 -1.434048E-07
v -0.2901439 -0.1534301 -1.214722E-07
v -0.09667155 -0.3136568 -1.7177E-07
v -0.1755958 -0.2770888 -1.602907E-07
v -0.09667155 -0.3136568 -1.7177E-07
v 0.07310799 -0.3199717 -1.737523E-07
v -0.01219877 -0.3279903 -1.762695E-07
v 0.2233 -0.2405505 -1.488207E-07
v 0.1534325 -0.2901477 -1.643901E-07
v 0.2901485 0.15343 -2.514373E-08
v 0.3278465 -0.0106494 -7.665096E-08
v 0.2779513 -0.1745602 -1.281053E-07
v 0.3278465 -0.0106494 -7.665096E-08
v 0.3136582 -0.09667396 -1.036555E-07
v 0.2779513 -0.1745602 -1.281053E-07
v 0.2779513 -0.17456 -0.7777113
v 0.1534325 -0.2901474 -0.7777114
v 0.2233 -0.2405503 -0.7777113
v 0.1534325 -0.2901474 -0.7777114
v -0.01219877 -0.3279901 -0.7777114
v 0.07310799 -0.3199715 -0.7777114
v -0.1745587 -0.277948 -0.7777113
v -0.09667155 -0.3136565 -0.7777114
v -0.1745587 -0.277948 -0.7777113
v -0.2901439 -0.1534299 -0.7777113
v -0.2405472 -0.2232976 -0.7777113
v -0.3279896 0.01219968 -0.7777112
v -0.3199684 -0.07310616 -0.7777113
v -0.3279896 0.01219968 -0.7777112
v -0.2779467 0.1745604 -0.7777112
v -0.3136536 0.0966741 -0.7777112
v -0.1534294 0.2901478 -0.7777112
v -0.2232953 0.2405507 -0.7777112
v -0.1745587 -0.277948 -0.7777113
v 0.3279912 -0.01219925 -0.7777113
v 0.1745633 0.2779484 -0.7777112
v 0.01220339 0.3279905 -0.7777112
v -0.07310338 0.3199719 -0.7777112
v 0.09667617 0.313657 -0.7777112
v 0.2901485 0.1534303 -0.7777112
v 0.2405518 0.223298 -0.7777112
v 0.3199731 0.07310652 -0.7777112
v 0.1534325 -0.2901474 -0.7777114
v 0.2779513 -0.17456 -0.7777113
v 0.3279912 -0.01219925 -0.7777113
v 0.1534325 -0.2901474 -0.7777114
v 0.3136582 -0.09667372 -0.7777113
v 0.3279912 -0.01219925 -0.7777113
v 0.2779513 -0.17456 -0.7777113
vt 0.7448319 0.9999998
vt 0.7024165 1.192093E-07
vt 0.7024163 0.9999998
vt 0.744083 1.788139E-07
vt 0.6607502 0.9999997
vt 0.6607503 1.192093E-07
vt 0.6190834 0.9999997
vt 0.6190835 1.192093E-07
vt 0.577417 0.9999996
vt 0.577417 0
vt 0.53575 0.9999996
vt 0.5357501 0
vt 0.494083 0.9999996
vt 0.494083 0
vt 0.4524171 0.9999996
vt 0.452417 0
vt 0.4101021 0.9999996
vt 0.4107499 1.192093E-07
vt 0.3690839 0.9999997
vt 0.3690838 1.192093E-07
vt 0.327417 1.192093E-07
vt 0.327417 0.9999998
vt 0.2857499 1.192093E-07
vt 0.28575 0.9999998
vt 0.2440829 2.384186E-07
vt 0.244083 0.9999998
vt 0.202416 0.9999998
vt 0.2024159 2.384186E-07
vt 0.1607495 0.9999999
vt 0.1607495 2.384186E-07
vt 0.1190824 0.9999999
vt 0.1190823 2.384186E-07
vt 0.0774164 0.9999999
vt 0.07741632 2.384186E-07
vt 0.03574864 0.9999999
vt 0.0357486 3.576279E-07
vt 0.9940815 0.9999999
vt 1.035749 3.576279E-07
vt 0.9940815 3.576279E-07
vt 1.035749 0.9999999
vt 0.9524156 0.9999999
vt 0.9524156 3.576279E-07
vt 0.9107486 0.9999999
vt 0.9107487 2.384186E-07
vt 0.8690827 0.9999999
vt 0.8690828 2.384186E-07
vt 0.8274164 2.384186E-07
vt 0.8274162 0.9999999
vt 0.7857496 2.384186E-07
vt 0.7857495 0.9999998
vt 1.744832 0.9999998
vt 0.8274162 0.9999999
vt 0.7857495 0.9999998
vt 0.8274162 0.9999999
vt 0.9107486 0.9999999
vt 0.8690827 0.9999999
vt 0.9940815 0.9999999
vt 0.9524156 0.9999999
vt 1.16075 0.9999999
vt 1.077416 0.9999999
vt 1.035749 0.9999999
vt 1.119082 0.9999999
vt 1.452417 0.9999996
vt 1.327417 0.9999998
vt 1.16075 0.9999999
vt 1.244083 0.9999998
vt 1.202416 0.9999998
vt 1.327417 0.9999998
vt 1.28575 0.9999998
vt 1.327417 0.9999998
vt 1.410102 0.9999996
vt 1.369084 0.9999997
vt 1.327417 0.9999998
vt 1.452417 0.9999996
vt 1.410102 0.9999996
vt 1.452417 0.9999996
vt 1.53575 0.9999996
vt 1.494083 0.9999996
vt 1.619083 0.9999997
vt 1.577417 0.9999996
vt 0.8274162 0.9999999
vt 1.744832 0.9999998
vt 1.66075 0.9999997
vt 1.744832 0.9999998
vt 1.702416 0.9999998
vt 1.66075 0.9999997
vt 0.6607503 1.192093E-07
vt 0.577417 0
vt 0.6190835 1.192093E-07
vt 0.577417 0
vt 0.494083 0
vt 0.5357501 0
vt 0.4107499 1.192093E-07
vt 0.452417 0
vt 0.4107499 1.192093E-07
vt 0.327417 1.192093E-07
vt 0.3690838 1.192093E-07
vt 0.2440829 2.384186E-07
vt 0.2857499 1.192093E-07
vt 0.2440829 2.384186E-07
vt 0.1607495 2.384186E-07
vt 0.2024159 2.384186E-07
vt 0.07741632 2.384186E-07
vt 0.1190823 2.384186E-07
vt 0.4107499 1.192093E-07
vt -0.255917 1.788139E-07
vt -0.08925128 2.384186E-07
vt -0.005918503 3.576279E-07
vt 0.0357486 3.576279E-07
vt -0.04758435 3.576279E-07
vt -0.1725836 2.384186E-07
vt -0.1309172 2.384186E-07
vt -0.2142504 2.384186E-07
vt 0.577417 0
vt 0.6607503 1.192093E-07
vt -0.255917 1.788139E-07
vt 0.577417 0
vt -0.2975835 1.192093E-07
vt -0.255917 1.788139E-07
vt 0.6607503 1.192093E-07
vn 0.9993923 -0.03485799 1.813806E-05
vn 0.9556901 -0.2943745 0.000242007
vn 0.9563182 -0.2923277 0
vn 0.9993029 -0.0373331 0.0002602474
vn 0.8468449 -0.5318398 0
vn 0.8468449 -0.5318399 0
vn 0.680333 -0.732903 0
vn 0.680333 -0.732903 0
vn 0.4674647 -0.8840118 -2.753427E-07
vn 0.4674646 -0.8840118 -2.753426E-07
vn 0.2227359 -0.9748788 -3.03645E-07
vn 0.222736 -0.9748788 -3.03645E-07
vn -0.03717126 -0.9993089 -3.112542E-07
vn -0.03717132 -0.9993089 -3.112542E-07
vn -0.2964587 -0.9550456 -2.974676E-07
vn -0.294678 -0.9555966 0.0002099829
vn -0.5335436 -0.8457726 1.58064E-05
vn -0.5317265 -0.8469161 0.0002263251
vn -0.7329052 -0.6803307 0
vn -0.7329068 -0.6803291 0
vn -0.8840112 -0.4674655 0
vn -0.8840112 -0.4674655 0
vn -0.9748744 -0.2227552 0
vn -0.9748744 -0.2227553 0
vn -0.9993091 0.03716818 0
vn -0.9993091 0.03716819 0
vn -0.9556366 0.2945482 0
vn -0.9556366 0.2945482 0
vn -0.8468449 0.5318398 0
vn -0.8468449 0.5318398 0
vn -0.6803369 0.7328995 0
vn -0.6803369 0.7328995 0
vn -0.4674664 0.8840109 2.753424E-07
vn -0.4674667 0.8840108 2.890393E-07
vn -0.2227328 0.9748795 3.203128E-07
vn -0.222733 0.9748795 3.340097E-07
vn 0.03717095 0.9993089 3.423796E-07
vn -0.222733 0.9748795 3.340097E-07
vn 0.03717115 0.9993089 3.279749E-07
vn -0.2227328 0.9748795 3.203128E-07
vn 0.2945421 0.9556385 3.120569E-07
vn 0.2945421 0.9556385 3.109334E-07
vn 0.5318477 0.8468401 2.7686E-07
vn 0.5318477 0.8468401 2.788886E-07
vn 0.7329066 0.6803293 0
vn 0.7329068 0.6803292 0
vn 0.8840112 0.4674656 0
vn 0.8840112 0.4674655 0
vn 0.9748783 0.2227382 -5.679012E-07
vn 0.974877 0.2227439 0
vn 0 -3.139165E-07 1
vn 0 -3.139165E-07 1
vn 0 -3.139164E-07 1
vn 0 -3.139165E-07 1
vn 0 -3.139165E-07 1
vn 0 -3.139161E-07 1
vn 0 -3.139165E-07 1
vn 0 -3.139164E-07 1
vn 0 -3.139165E-07 1
vn 0 -3.139164E-07 1
vn 0 -3.139169E-07 1
vn 0 -3.139166E-07 1
vn 0 -3.139165E-07 1
vn 0 -3.139164E-07 1
vn 0 -3.139165E-07 1
vn 0 -3.139165E-07 1
vn 0 -3.139168E-07 1
vn 0 -3.139164E-07 1
vn 0 -3.139164E-07 1
vn 0 -3.139164E-07 1
vn 0 -3.139162E-07 1
vn 0 -3.139151E-07 1
vn 0 -3.139164E-07 1
vn 0 -3.139165E-07 1
vn 0 -3.139162E-07 1
vn 0 -3.139165E-07 1
vn 0 -3.139163E-07 1
vn 0 -3.139169E-07 1
vn 0 -3.139165E-07 1
vn 0 -3.139168E-07 1
vn 0 -3.139165E-07 1
vn 0 -3.139165E-07 1
vn 0 -3.139163E-07 1
vn 0 -3.139165E-07 1
vn 0 -3.139166E-07 1
vn 0 -3.139163E-07 1
vn 0 0 -1
vn 0 3.235991E-07 -1
vn 1.682614E-06 -1.393495E-06 -1
vn 0 3.235991E-07 -1
vn 0 6.033397E-07 -1
vn 0 0 -1
vn 0 3.923054E-07 -1
vn 3.654787E-07 2.153902E-06 -1
vn 0 3.923054E-07 -1
vn 9.461843E-07 7.746101E-07 -1
vn 0 0 -1
vn 0 2.715294E-07 -1
vn 4.096416E-06 1.521016E-06 -1
vn 0 2.715294E-07 -1
vn 0 0 -1
vn 0 0 -1
vn 0 5.237701E-07 -1
vn 0 0 -1
vn 0 3.923054E-07 -1
vn 0 3.052682E-07 -1
vn 0 5.55125E-07 -1
vn 0 2.395317E-06 -1
vn -4.088965E-07 4.350117E-06 -1
vn 7.309517E-07 4.307785E-06 -1
vn 4.730802E-07 3.872935E-07 -1
vn 0 0 -1
vn 2.047942E-06 7.604091E-07 -1
vn 0 3.235991E-07 -1
vn 0 0 -1
vn 0 3.052682E-07 -1
vn 0 3.235991E-07 -1
vn -1.985974E-06 9.104701E-07 -1
vn 0 3.052682E-07 -1
vn 0 0 -1
g Scalable03_0
f 3/3/3 2/2/2 1/1/1
f 4/4/4 1/1/1 2/2/2
f 3/3/3 5/5/5 2/2/2
f 6/6/6 2/2/2 5/5/5
f 5/5/5 7/7/7 6/6/6
f 8/8/8 6/6/6 7/7/7
f 7/7/7 9/9/9 8/8/8
f 10/10/10 8/8/8 9/9/9
f 9/9/9 11/11/11 10/10/10
f 12/12/12 10/10/10 11/11/11
f 11/11/11 13/13/13 12/12/12
f 14/14/14 12/12/12 13/13/13
f 13/13/13 15/15/15 14/14/14
f 16/16/16 14/14/14 15/15/15
f 15/15/15 17/17/17 16/16/16
f 18/18/18 16/16/16 17/17/17
f 17/17/17 19/19/19 18/18/18
f 20/20/20 18/18/18 19/19/19
f 20/20/20 19/19/19 21/21/21
f 22/22/22 21/21/21 19/19/19
f 21/21/21 22/22/22 23/23/23
f 24/24/24 23/23/23 22/22/22
f 23/23/23 24/24/24 25/25/25
f 26/26/26 25/25/25 24/24/24
f 26/26/26 27/27/27 25/25/25
f 28/28/28 25/25/25 27/27/27
f 27/27/27 29/29/29 28/28/28
f 30/30/30 28/28/28 29/29/29
f 29/29/29 31/31/31 30/30/30
f 32/32/32 30/30/30 31/31/31
f 31/31/31 33/33/33 32/32/32
f 34/34/34 32/32/32 33/33/33
f 33/33/33 35/35/35 34/34/34
f 36/36/36 34/34/34 35/35/35
f 39/39/39 38/38/38 37/37/37
f 40/40/40 37/37/37 38/38/38
f 37/37/37 41/41/41 39/39/39
f 42/42/42 39/39/39 41/41/41
f 41/41/41 43/43/43 42/42/42
f 44/44/44 42/42/42 43/43/43
f 43/43/43 45/45/45 44/44/44
f 46/46/46 44/44/44 45/45/45
f 46/46/46 45/45/45 47/47/47
f 48/48/48 47/47/47 45/45/45
f 47/47/47 48/48/48 49/49/49
f 50/50/50 49/49/49 48/48/48
f 50/50/50 1/1/1 49/49/49
f 4/4/4 49/49/49 1/1/1
f 53/53/53 52/52/52 51/51/51
f 56/56/56 55/55/55 54/54/54
f 55/55/55 57/57/57 54/54/54
f 58/58/58 57/57/57 55/55/55
f 57/57/57 59/59/59 54/54/54
f 60/60/60 59/59/59 57/57/57
f 61/61/61 60/60/60 57/57/57
f 62/62/62 59/59/59 60/60/60
f 59/59/59 63/63/63 54/54/54
f 64/64/64 63/63/63 59/59/59
f 67/67/67 66/66/66 65/65/65
f 66/66/66 68/68/68 65/65/65
f 69/69/69 68/68/68 66/66/66
f 72/72/72 71/71/71 70/70/70
f 75/75/75 74/74/74 73/73/73
f 78/78/78 77/77/77 76/76/76
f 77/77/77 79/79/79 76/76/76
f 80/80/80 79/79/79 77/77/77
f 76/76/76 79/79/79 81/81/81
f 81/81/81 79/79/79 82/82/82
f 79/79/79 83/83/83 82/82/82
f 86/86/86 85/85/85 84/84/84
f 89/89/89 88/88/88 87/87/87
f 92/92/92 91/91/91 90/90/90
f 91/91/91 93/93/93 90/90/90
f 94/94/94 93/93/93 91/91/91
f 97/97/97 96/96/96 95/95/95
f 96/96/96 98/98/98 95/95/95
f 99/99/99 98/98/98 96/96/96
f 102/102/102 101/101/101 100/100/100
f 101/101/101 103/103/103 100/100/100
f 104/104/104 103/103/103 101/101/101
f 100/100/100 103/103/103 105/105/105
f 103/103/103 106/106/106 105/105/105
f 107/107/107 106/106/106 103/103/103
f 108/108/108 107/107/107 103/103/103
f 109/109/109 108/108/108 103/103/103
f 110/110/110 107/107/107 108/108/108
f 111/111/111 106/106/106 107/107/107
f 112/112/112 111/111/111 107/107/107
f 113/113/113 106/106/106 111/111/111
f 105/105/105 106/106/106 114/114/114
f 117/117/117 116/116/116 115/115/115
f 120/120/120 119/119/119 118/118/118
