g Scalable10
v -0.6541635 0.2016237 -1.565797
v -0.6840574 0.02544308 -1.273197E-07
v -0.6840574 0.02544356 -1.565797
v -0.6541635 0.2016232 -7.201386E-08
v -0.5796894 0.3640636 -1.565797
v -0.5796894 0.3640631 -2.102133E-08
v -0.6673338 -0.152471 -1.831699E-07
v -0.6673338 -0.1524705 -1.565797
v -0.4657105 0.5016932 -1.565797
v -0.4657105 0.5016927 2.218287E-08
v -0.3199942 0.6051326 5.465438E-08
v -0.3199942 0.6051331 -1.565797
v -0.1524708 0.6673338 7.418036E-08
v -0.1524708 0.6673343 -1.565797
v -0.6051327 -0.3199944 -2.357582E-07
v -0.6051327 -0.3199939 -1.565797
v -0.5016927 -0.4657103 -1.565797
v -0.5016927 -0.4657108 -2.81501E-07
v -0.3640632 -0.5796891 -1.565797
v -0.3640632 -0.5796897 -3.172809E-07
v -0.2016234 -0.6541632 -1.565797
v -0.2016234 -0.6541637 -3.406595E-07
v -0.02544318 -0.6840571 -1.565797
v -0.02544318 -0.6840575 -3.500436E-07
v 0.1524708 -0.6673336 -1.565797
v 0.1524708 -0.6673341 -3.447939E-07
v 0.3199944 -0.6051323 -1.565797
v 0.3199944 -0.6051328 -3.252679E-07
v 0.4657107 -0.5016924 -1.565797
v 0.4657107 -0.5016929 -2.927964E-07
v 0.5796897 -0.3640634 -2.495922E-07
v 0.5796897 -0.3640629 -1.565797
v 0.6541636 -0.2016235 -1.985997E-07
v 0.6541636 -0.201623 -1.565797
v 0.6840574 -0.02544337 -1.432938E-07
v 0.6840574 -0.02544289 -1.565797
v 0.6673341 0.1524712 -1.565797
v 0.6673341 0.1524707 -8.744367E-08
v 0.6051327 0.3199946 -1.565797
v 0.6051327 0.3199941 -3.485531E-08
v 0.5016929 0.465711 -1.565797
v 0.5016929 0.4657104 1.088745E-08
v 0.3640632 0.5796899 -1.565797
v 0.3640632 0.5796894 4.666732E-08
v 0.2016235 0.6541639 -1.565797
v 0.2016235 0.6541634 7.004596E-08
v 0.02544327 0.6840578 -1.565797
v 0.02544327 0.6840573 7.943014E-08
v -0.1524708 0.6673343 -1.565797
v -0.1524708 0.6673338 7.418036E-08
v -0.6541635 0.2016237 -1.565797
v -0.4657105 0.5016932 -1.565797
v -0.5796894 0.3640636 -1.565797
v -0.1524708 0.6673343 -1.565797
v -0.3199942 0.6051331 -1.565797
v -0.1524708 0.6673343 -1.565797
v 0.2016235 0.6541639 -1.565797
v 0.02544327 0.6840578 -1.565797
v 0.5016929 0.465711 -1.565797
v 0.3640632 0.5796899 -1.565797
v -0.6541635 0.2016237 -1.565797
v 0.5016929 0.465711 -1.565797
v -0.1524708 0.6673343 -1.565797
v 0.1524708 -0.6673336 -1.565797
v 0.6541636 -0.201623 -1.565797
v -0.5016927 -0.4657103 -1.565797
v -0.2016234 -0.6541632 -1.565797
v -0.02544318 -0.6840571 -1.565797
v -0.6673338 -0.1524705 -1.565797
v -0.6051327 -0.3199939 -1.565797
v 0.5016929 0.465711 -1.565797
v 0.6673341 0.1524712 -1.565797
v 0.6051327 0.3199946 -1.565797
v 0.6541636 -0.201623 -1.565797
v 0.6840574 -0.02544289 -1.565797
v 0.6541636 -0.201623 -1.565797
v 0.4657107 -0.5016924 -1.565797
v 0.5796897 -0.3640629 -1.565797
v 0.1524708 -0.6673336 -1.565797
v 0.3199944 -0.6051323 -1.565797
v -0.2016234 -0.6541632 -1.565797
v -0.5016927 -0.4657103 -1.565797
v -0.3640632 -0.5796891 -1.565797
v -0.6541635 0.2016237 -1.565797
v -0.6840574 0.02544356 -1.565797
v -0.6673338 -0.1524705 -1.565797
v -0.6673338 -0.152471 -1.831699E-07
v -0.5016927 -0.4657108 -2.81501E-07
v -0.6051327 -0.3199944 -2.357582E-07
v -0.6541635 0.2016232 -7.201386E-08
v 0.1524708 -0.6673341 -3.447939E-07
v -0.2016234 -0.6541637 -3.406595E-07
v -0.3640632 -0.5796897 -3.172809E-07
v -0.02544318 -0.6840575 -3.500436E-07
v 0.1524708 -0.6673341 -3.447939E-07
v 0.4657107 -0.5016929 -2.927964E-07
v 0.3199944 -0.6051328 -3.252679E-07
v 0.6541636 -0.2016235 -1.985997E-07
v 0.5796897 -0.3640634 -2.495922E-07
v 0.5016929 0.4657104 1.088745E-08
v 0.6673341 0.1524707 -8.744367E-08
v 0.6051327 0.3199941 -3.485531E-08
v 0.6541636 -0.2016235 -1.985997E-07
v 0.6673341 0.1524707 -8.744367E-08
v 0.6840574 -0.02544337 -1.432938E-07
v 0.5016929 0.4657104 1.088745E-08
v 0.2016235 0.6541634 7.004596E-08
v 0.3640632 0.5796894 4.666732E-08
v -0.1524708 0.6673338 7.418036E-08
v 0.02544327 0.6840573 7.943014E-08
v -0.6541635 0.2016232 -7.201386E-08
v 0.1524708 -0.6673341 -3.447939E-07
v -0.1524708 0.6673338 7.418036E-08
v -0.4657105 0.5016927 2.218287E-08
v -0.3199942 0.6051326 5.465438E-08
v -0.4657105 0.5016927 2.218287E-08
v -0.6541635 0.2016232 -7.201386E-08
v -0.5796894 0.3640631 -2.102133E-08
v -0.1524708 0.6673338 7.418036E-08
v -0.6541635 0.2016232 -7.201386E-08
v -0.4657105 0.5016927 2.218287E-08
v -0.6840574 0.02544308 -1.273197E-07
v -0.6541635 0.2016232 -7.201386E-08
v -0.6673338 -0.152471 -1.831699E-07
vt 0.2024163 1.788139E-07
vt 0.2440831 0.9999999
vt 0.2440829 1.788139E-07
vt 0.2024164 0.9999999
vt 0.1607496 1.788139E-07
vt 0.1607497 0.9999999
vt 0.2857497 0.9999998
vt 0.2857496 5.960464E-08
vt 0.1190829 1.788139E-07
vt 0.119083 0.9999999
vt 0.07741632 1
vt 0.07741629 2.980232E-07
vt 0.03574966 1
vt 0.03574963 2.980232E-07
vt 0.3274164 0.9999998
vt 0.3274163 5.960464E-08
vt 0.369083 5.960464E-08
vt 0.3690831 0.9999998
vt 0.4107496 5.960464E-08
vt 0.4107497 0.9999998
vt 0.4524163 0
vt 0.4524163 0.9999998
vt 0.494083 0
vt 0.494083 0.9999997
vt 0.5357497 0
vt 0.5357496 0.9999998
vt 0.5774164 5.960464E-08
vt 0.5774163 0.9999998
vt 0.619083 5.960464E-08
vt 0.6190829 0.9999998
vt 0.6607496 0.9999998
vt 0.6607497 5.960464E-08
vt 0.7024162 0.9999998
vt 0.7024163 5.960464E-08
vt 0.7440829 0.9999999
vt 0.744083 1.788139E-07
vt 0.7857497 1.788139E-07
vt 0.7857496 0.9999999
vt 0.8274164 1.788139E-07
vt 0.8274163 0.9999999
vt 0.869083 1.788139E-07
vt 0.8690829 0.9999999
vt 0.9107497 2.980232E-07
vt 0.9107497 1
vt 0.9524162 2.980232E-07
vt 0.9524162 1
vt 0.994083 2.980232E-07
vt 0.994083 1
vt 1.03575 2.980232E-07
vt 1.03575 1
vt -0.7975838 1.788139E-07
vt 0.1190829 1.788139E-07
vt 0.1607496 1.788139E-07
vt 0.03574963 2.980232E-07
vt 0.07741629 2.980232E-07
vt 0.03574963 2.980232E-07
vt -0.04758376 2.980232E-07
vt -0.005917013 2.980232E-07
vt -0.130917 1.788139E-07
vt -0.08925033 2.980232E-07
vt -0.7975838 1.788139E-07
vt -0.130917 1.788139E-07
vt 0.03574963 2.980232E-07
vt -0.4642503 0
vt -0.2975837 5.960464E-08
vt -0.630917 5.960464E-08
vt -0.5475837 0
vt -0.505917 0
vt -0.7142504 5.960464E-08
vt -0.6725837 5.960464E-08
vt -0.130917 1.788139E-07
vt -0.2142503 1.788139E-07
vt -0.1725836 1.788139E-07
vt -0.2975837 5.960464E-08
vt -0.255917 1.788139E-07
vt -0.2975837 5.960464E-08
vt -0.380917 5.960464E-08
vt -0.3392503 5.960464E-08
vt -0.4642503 0
vt -0.4225836 5.960464E-08
vt -0.5475837 0
vt -0.630917 5.960464E-08
vt -0.5892503 5.960464E-08
vt -0.7975838 1.788139E-07
vt -0.7559171 1.788139E-07
vt -0.7142504 5.960464E-08
vt 0.2857497 0.9999998
vt 0.3690831 0.9999998
vt 0.3274164 0.9999998
vt 1.202416 0.9999999
vt 0.5357496 0.9999998
vt 0.4524163 0.9999998
vt 0.4107497 0.9999998
vt 0.494083 0.9999997
vt 0.5357496 0.9999998
vt 0.6190829 0.9999998
vt 0.5774163 0.9999998
vt 0.7024162 0.9999998
vt 0.6607496 0.9999998
vt 0.8690829 0.9999999
vt 0.7857496 0.9999999
vt 0.8274163 0.9999999
vt 0.7024162 0.9999998
vt 0.7857496 0.9999999
vt 0.7440829 0.9999999
vt 0.8690829 0.9999999
vt 0.9524162 1
vt 0.9107497 1
vt 1.03575 1
vt 0.994083 1
vt 1.202416 0.9999999
vt 0.5357496 0.9999998
vt 1.03575 1
vt 1.119083 0.9999999
vt 1.077416 1
vt 1.119083 0.9999999
vt 1.202416 0.9999999
vt 1.16075 0.9999999
vt 1.03575 1
vt 1.202416 0.9999999
vt 1.119083 0.9999999
vt 1.244083 0.9999999
vt 1.202416 0.9999999
vt 0.2857497 0.9999998
vn -0.9556383 0.2945426 0
vn -0.9993091 0.0371688 0
vn -0.9993091 0.03716884 0
vn -0.9556383 0.2945426 0
vn -0.8468425 0.5318438 0
vn -0.8468425 0.5318438 0
vn -0.9748784 -0.2227378 0
vn -0.9748784 -0.2227377 0
vn -0.6803359 0.7329004 0
vn -0.6803359 0.7329004 0
vn -0.4674652 0.8840115 2.853215E-07
vn -0.4674651 0.8840115 2.735182E-07
vn -0.2227377 0.9748785 3.01633E-07
vn -0.2227377 0.9748784 3.160443E-07
vn -0.8840114 -0.4674653 0
vn -0.8840115 -0.4674652 0
vn -0.7329006 -0.6803358 0
vn -0.7329006 -0.6803358 0
vn -0.5318437 -0.8468425 -2.620179E-07
vn -0.5318438 -0.8468425 -2.620179E-07
vn -0.2945425 -0.9556383 -2.9568E-07
vn -0.2945425 -0.9556383 -2.9568E-07
vn -0.03716877 -0.9993091 -3.09192E-07
vn -0.03716877 -0.9993091 -3.09192E-07
vn 0.2227377 -0.9748784 -3.016329E-07
vn 0.2227377 -0.9748784 -3.016329E-07
vn 0.4674652 -0.8840115 -2.735182E-07
vn 0.4674652 -0.8840115 -2.735182E-07
vn 0.6803356 -0.7329007 0
vn 0.6803357 -0.7329007 0
vn 0.8468426 -0.5318437 0
vn 0.8468426 -0.5318437 0
vn 0.9556385 -0.294542 0
vn 0.9556385 -0.294542 0
vn 0.9993091 -0.03716912 0
vn 0.9993091 -0.03716915 0
vn 0.9748785 0.2227377 0
vn 0.9748785 0.2227376 0
vn 0.8840113 0.4674654 0
vn 0.8840113 0.4674654 0
vn 0.7329006 0.6803358 0
vn 0.7329006 0.6803358 0
vn 0.5318436 0.8468426 2.731663E-07
vn 0.5318436 0.8468425 2.620179E-07
vn 0.2945428 0.9556383 2.9568E-07
vn 0.2945426 0.9556383 3.09951E-07
vn 0.0371688 0.9993091 3.258402E-07
vn 0.03716879 0.9993091 3.256997E-07
vn -0.2227377 0.9748784 3.160443E-07
vn -0.2227377 0.9748785 3.01633E-07
vn 0 2.763516E-07 -1
vn 7.757712E-07 -3.503004E-07 -1
vn 0 0 -1
vn 0 6.264536E-07 -1
vn -1.458427E-06 3.927913E-06 -1
vn 0 6.264536E-07 -1
vn 0 1.166793E-06 -1
vn 0 0 -1
vn 0 5.698664E-07 -1
vn 1.746198E-06 3.808735E-06 -1
vn 0 2.763516E-07 -1
vn 0 5.698664E-07 -1
vn 0 6.264536E-07 -1
vn 0 0 -1
vn 2.737621E-07 0 -1
vn 0 0 -1
vn 0 4.234936E-07 -1
vn 0 0 -1
vn 6.912551E-07 4.966872E-07 -1
vn 0 0 -1
vn 0 5.698664E-07 -1
vn 1.068637E-06 4.826505E-07 -1
vn 0 0 -1
vn 2.737621E-07 0 -1
vn 4.171574E-06 3.921133E-07 -1
vn 2.737621E-07 0 -1
vn 4.761531E-07 -3.42071E-07 -1
vn 0 0 -1
vn 0 0 -1
vn 1.212675E-06 -1.7083E-06 -1
vn 0 4.234936E-07 -1
vn 0 0 -1
vn -1.336231E-06 -1.613499E-06 -1
vn 0 2.763516E-07 -1
vn -4.130893E-06 7.009207E-07 -1
vn 6.912551E-07 4.966872E-07 -1
vn 0 -3.139165E-07 1
vn 0 -3.139166E-07 1
vn 0 -3.139163E-07 1
vn 0 -3.139165E-07 1
vn 0 -3.139164E-07 1
vn 0 -3.139166E-07 1
vn 0 -3.139176E-07 1
vn 0 -3.139156E-07 1
vn 0 -3.139164E-07 1
vn 0 -3.139164E-07 1
vn 0 -3.139162E-07 1
vn 0 -3.139164E-07 1
vn 0 -3.139158E-07 1
vn 0 -3.139165E-07 1
vn 0 -3.139166E-07 1
vn 0 -3.139166E-07 1
vn 0 -3.139164E-07 1
vn 0 -3.139166E-07 1
vn 0 -3.139165E-07 1
vn 0 -3.139165E-07 1
vn 0 -3.139165E-07 1
vn 0 -3.139164E-07 1
vn 0 -3.139165E-07 1
vn 0 -3.139168E-07 1
vn 0 -3.139165E-07 1
vn 0 -3.139164E-07 1
vn 0 -3.139165E-07 1
vn 0 -3.139165E-07 1
vn 0 -3.13916E-07 1
vn 0 -3.139165E-07 1
vn 0 -3.139165E-07 1
vn 0 -3.139164E-07 1
vn 0 -3.139165E-07 1
vn 0 -3.139165E-07 1
vn 0 -3.139165E-07 1
vn 0 -3.139165E-07 1
vn 0 -3.139165E-07 1
vn 0 -3.139165E-07 1
g Scalable10_0
f 3/3/3 2/2/2 1/1/1
f 4/4/4 1/1/1 2/2/2
f 1/1/1 4/4/4 5/5/5
f 6/6/6 5/5/5 4/4/4
f 2/2/2 3/3/3 7/7/7
f 8/8/8 7/7/7 3/3/3
f 5/5/5 6/6/6 9/9/9
f 10/10/10 9/9/9 6/6/6
f 10/10/10 11/11/11 9/9/9
f 12/12/12 9/9/9 11/11/11
f 11/11/11 13/13/13 12/12/12
f 14/14/14 12/12/12 13/13/13
f 7/7/7 8/8/8 15/15/15
f 16/16/16 15/15/15 8/8/8
f 16/16/16 17/17/17 15/15/15
f 18/18/18 15/15/15 17/17/17
f 17/17/17 19/19/19 18/18/18
f 20/20/20 18/18/18 19/19/19
f 19/19/19 21/21/21 20/20/20
f 22/22/22 20/20/20 21/21/21
f 21/21/21 23/23/23 22/22/22
f 24/24/24 22/22/22 23/23/23
f 23/23/23 25/25/25 24/24/24
f 26/26/26 24/24/24 25/25/25
f 25/25/25 27/27/27 26/26/26
f 28/28/28 26/26/26 27/27/27
f 27/27/27 29/29/29 28/28/28
f 30/30/30 28/28/28 29/29/29
f 30/30/30 29/29/29 31/31/31
f 32/32/32 31/31/31 29/29/29
f 31/31/31 32/32/32 33/33/33
f 34/34/34 33/33/33 32/32/32
f 33/33/33 34/34/34 35/35/35
f 36/36/36 35/35/35 34/34/34
f 36/36/36 37/37/37 35/35/35
f 38/38/38 35/35/35 37/37/37
f 37/37/37 39/39/39 38/38/38
f 40/40/40 38/38/38 39/39/39
f 39/39/39 41/41/41 40/40/40
f 42/42/42 40/40/40 41/41/41
f 41/41/41 43/43/43 42/42/42
f 44/44/44 42/42/42 43/43/43
f 43/43/43 45/45/45 44/44/44
f 46/46/46 44/44/44 45/45/45
f 45/45/45 47/47/47 46/46/46
f 48/48/48 46/46/46 47/47/47
f 47/47/47 49/49/49 48/48/48
f 50/50/50 48/48/48 49/49/49
f 53/53/53 52/52/52 51/51/51
f 52/52/52 54/54/54 51/51/51
f 55/55/55 54/54/54 52/52/52
f 58/58/58 57/57/57 56/56/56
f 57/57/57 59/59/59 56/56/56
f 60/60/60 59/59/59 57/57/57
f 63/63/63 62/62/62 61/61/61
f 62/62/62 64/64/64 61/61/61
f 65/65/65 64/64/64 62/62/62
f 64/64/64 66/66/66 61/61/61
f 67/67/67 66/66/66 64/64/64
f 68/68/68 67/67/67 64/64/64
f 66/66/66 69/69/69 61/61/61
f 70/70/70 69/69/69 66/66/66
f 73/73/73 72/72/72 71/71/71
f 72/72/72 74/74/74 71/71/71
f 75/75/75 74/74/74 72/72/72
f 78/78/78 77/77/77 76/76/76
f 77/77/77 79/79/79 76/76/76
f 80/80/80 79/79/79 77/77/77
f 83/83/83 82/82/82 81/81/81
f 86/86/86 85/85/85 84/84/84
f 89/89/89 88/88/88 87/87/87
f 88/88/88 90/90/90 87/87/87
f 91/91/91 90/90/90 88/88/88
f 92/92/92 91/91/91 88/88/88
f 93/93/93 92/92/92 88/88/88
f 94/94/94 91/91/91 92/92/92
f 97/97/97 96/96/96 95/95/95
f 96/96/96 98/98/98 95/95/95
f 99/99/99 98/98/98 96/96/96
f 98/98/98 100/100/100 95/95/95
f 101/101/101 100/100/100 98/98/98
f 102/102/102 100/100/100 101/101/101
f 105/105/105 104/104/104 103/103/103
f 108/108/108 107/107/107 106/106/106
f 107/107/107 109/109/109 106/106/106
f 110/110/110 109/109/109 107/107/107
f 109/109/109 111/111/111 106/106/106
f 106/106/106 111/111/111 112/112/112
f 115/115/115 114/114/114 113/113/113
f 118/118/118 117/117/117 116/116/116
f 121/121/121 120/120/120 119/119/119
f 124/124/124 123/123/123 122/122/122
