g Scalable02
v 0.1797626 0.09505825 -1.026012E-08
v 0.1982377 0.04529368 -1.277199
v 0.1982377 0.04529329 -2.588216E-08
v 0.1797626 0.09505864 -1.277199
v 0.1490349 0.1383451 3.328348E-09
v 0.1490349 0.1383455 -1.277199
v 0.1081487 0.1722044 -1.277199
v 0.1081487 0.172204 1.395721E-08
v 0.05989368 0.1943279 -1.277199
v 0.05989368 0.1943275 2.090213E-08
v 0.007556528 0.2032082 -1.277199
v 0.007556528 0.2032078 2.368982E-08
v -0.04529455 0.1982403 -1.277199
v -0.04529455 0.1982399 2.213031E-08
v 0.2032077 -0.007557923 -1.277199
v 0.2032077 -0.007558331 -4.247315E-08
v 0.1943279 -0.05989488 -5.890245E-08
v 0.1943279 -0.05989447 -1.277199
v 0.1722045 -0.1081497 -7.405042E-08
v 0.1722045 -0.1081493 -1.277199
v 0.1383456 -0.1490343 -8.688477E-08
v 0.1383456 -0.1490338 -1.277199
v 0.09505901 -0.1797624 -9.653085E-08
v 0.09505901 -0.179762 -1.277199
v 0.04529147 -0.1982401 -1.023313E-07
v 0.04529147 -0.1982397 -1.277199
v 0.06658239 -0.1903358 -9.985001E-08
v -0.007559605 -0.203208 -1.038908E-07
v -0.007559605 -0.2032076 -1.277199
v -0.05989676 -0.1943273 -1.277199
v -0.03372664 -0.1987678 -1.02497E-07
v -0.05989676 -0.1943276 -1.011031E-07
v -0.1081502 -0.1722042 -9.41582E-08
v -0.1081502 -0.1722038 -1.277199
v -0.1490333 -0.1383453 -8.352934E-08
v -0.1490333 -0.1383449 -1.277199
v -0.1797626 -0.09505802 -1.277199
v -0.1797626 -0.09505843 -6.994087E-08
v -0.1982408 -0.04529308 -1.277199
v -0.1982408 -0.04529349 -5.431884E-08
v -0.2032077 0.007558548 -1.277199
v -0.2032077 0.007558139 -3.772784E-08
v -0.1943279 0.05989468 -2.129854E-08
v -0.1943279 0.05989507 -1.277199
v -0.1722045 0.1081495 -6.150557E-09
v -0.1722045 0.1081499 -1.277199
v -0.1383456 0.1490341 6.68379E-09
v -0.1383456 0.1490345 -1.277199
v -0.09505901 0.1797623 1.632987E-08
v -0.09505901 0.1797627 -1.277199
v -0.04529455 0.1982399 2.213031E-08
v -0.04529455 0.1982403 -1.277199
v 0.2003226 0.02313088 -3.28393E-08
v 0.1797626 0.09505825 -1.026012E-08
v 0.1081487 0.172204 1.395721E-08
v 0.1490349 0.1383451 3.328348E-09
v 0.2003226 0.02313088 -3.28393E-08
v -0.09505901 0.1797623 1.632987E-08
v 0.007556528 0.2032078 2.368982E-08
v 0.05989368 0.1943275 2.090213E-08
v -0.04529455 0.1982399 2.213031E-08
v 0.1383456 -0.1490343 -8.688477E-08
v -0.1081502 -0.1722042 -9.41582E-08
v 0.04529147 -0.1982401 -1.023313E-07
v -0.03372664 -0.1987678 -1.02497E-07
v -0.05989676 -0.1943276 -1.011031E-07
v -0.007559605 -0.203208 -1.038908E-07
v 0.06658239 -0.1903358 -9.985001E-08
v 0.09505901 -0.1797624 -9.653085E-08
v 0.1943279 -0.05989488 -5.890245E-08
v 0.1722045 -0.1081497 -7.405042E-08
v 0.1982377 0.04529329 -2.588216E-08
v -0.09505901 0.1797623 1.632987E-08
v -0.1722045 0.1081495 -6.150557E-09
v -0.1383456 0.1490341 6.68379E-09
v -0.2032077 0.007558139 -3.772784E-08
v -0.1943279 0.05989468 -2.129854E-08
v -0.1081502 -0.1722042 -9.41582E-08
v -0.2032077 0.007558139 -3.772784E-08
v -0.1797626 -0.09505843 -6.994087E-08
v -0.1982408 -0.04529349 -5.431884E-08
v -0.1797626 -0.09505843 -6.994087E-08
v -0.1081502 -0.1722042 -9.41582E-08
v -0.1490333 -0.1383453 -8.352934E-08
v -0.2032077 0.007558139 -3.772784E-08
v 0.1943279 -0.05989488 -5.890245E-08
v 0.2003226 0.02313088 -3.28393E-08
v 0.2032077 -0.007558331 -4.247315E-08
v 0.2032077 -0.007557923 -1.277199
v 0.1722045 -0.1081493 -1.277199
v 0.1943279 -0.05989447 -1.277199
v 0.1797626 0.09505864 -1.277199
v -0.007559605 -0.2032076 -1.277199
v 0.09505901 -0.179762 -1.277199
v 0.1383456 -0.1490338 -1.277199
v 0.04529147 -0.1982397 -1.277199
v 0.1982377 0.04529368 -1.277199
v -0.007559605 -0.2032076 -1.277199
v -0.1081502 -0.1722038 -1.277199
v -0.05989676 -0.1943273 -1.277199
v -0.1797626 -0.09505802 -1.277199
v -0.1490333 -0.1383449 -1.277199
v -0.1722045 0.1081499 -1.277199
v -0.1797626 -0.09505802 -1.277199
v -0.2032077 0.007558548 -1.277199
v -0.1982408 -0.04529308 -1.277199
v -0.1722045 0.1081499 -1.277199
v -0.1943279 0.05989507 -1.277199
v -0.1722045 0.1081499 -1.277199
v -0.09505901 0.1797627 -1.277199
v -0.1383456 0.1490345 -1.277199
v 0.007556528 0.2032082 -1.277199
v -0.04529455 0.1982403 -1.277199
v 0.1797626 0.09505864 -1.277199
v 0.1081487 0.1722044 -1.277199
v 0.05989368 0.1943279 -1.277199
v 0.1490349 0.1383455 -1.277199
v -0.007559605 -0.2032076 -1.277199
vt 0.8274162 1
vt 0.7857503 1.192093E-07
vt 0.7857499 1
vt 0.8274165 1.192093E-07
vt 0.8690826 1
vt 0.8690829 1.192093E-07
vt 0.9107504 1.192093E-07
vt 0.9107503 1
vt 0.9524173 1.192093E-07
vt 0.9524172 1
vt 0.9940844 1.192093E-07
vt 0.9940844 1
vt 1.035751 1.192093E-07
vt 1.035751 1
vt 0.7440831 1.192093E-07
vt 0.7440827 1
vt 0.7024161 0.9999999
vt 0.7024165 5.960464E-08
vt 0.6607495 0.9999999
vt 0.6607498 0
vt 0.6190829 0.9999999
vt 0.6190831 0
vt 0.5774166 0.9999999
vt 0.5774167 0
vt 0.5357481 0.9999999
vt 0.5357481 0
vt 0.5535571 0.9999999
vt 0.4940819 0.9999999
vt 0.4940819 0
vt 0.4524149 0
vt 0.4732496 0.9999999
vt 0.452415 0.9999999
vt 0.4107495 0.9999999
vt 0.4107493 0
vt 0.3690838 0.9999999
vt 0.3690835 0
vt 0.3274162 0
vt 0.3274165 0.9999999
vt 0.2857495 1.192093E-07
vt 0.2857498 1
vt 0.2440828 1.192093E-07
vt 0.2440831 1
vt 0.2024165 1
vt 0.2024162 1.192093E-07
vt 0.1607498 1
vt 0.1607495 1.192093E-07
vt 0.1190831 1
vt 0.1190829 1.192093E-07
vt 0.0774167 1
vt 0.07741658 1.192093E-07
vt 0.0357505 1
vt 0.03575046 1.192093E-07
vt 0.7682962 1
vt 1.827416 1
vt 0.9107503 1
vt 0.8690826 1
vt 1.768296 1
vt 1.077417 1
vt 0.9940844 1
vt 0.9524172 1
vt 1.035751 1
vt 1.619083 0.9999999
vt 1.410749 0.9999999
vt 1.535748 0.9999999
vt 1.47325 0.9999999
vt 1.452415 0.9999999
vt 1.494082 0.9999999
vt 1.553557 0.9999999
vt 1.577417 0.9999999
vt 1.702416 0.9999999
vt 1.660749 0.9999999
vt 1.78575 1
vt 1.077417 1
vt 1.16075 1
vt 1.119083 1
vt 1.244083 1
vt 1.202416 1
vt 1.410749 0.9999999
vt 1.244083 1
vt 1.327416 0.9999999
vt 1.28575 1
vt 1.327416 0.9999999
vt 1.410749 0.9999999
vt 1.369084 0.9999999
vt 1.244083 1
vt 1.702416 0.9999999
vt 1.768296 1
vt 1.744083 1
vt 0.7440831 1.192093E-07
vt 0.6607498 0
vt 0.7024165 5.960464E-08
vt -0.1725835 1.192093E-07
vt 0.4940819 0
vt 0.5774167 0
vt 0.6190831 0
vt 0.5357481 0
vt -0.2142497 1.192093E-07
vt 0.4940819 0
vt 0.4107493 0
vt 0.4524149 0
vt 0.3274162 0
vt 0.3690835 0
vt 0.1607495 1.192093E-07
vt 0.3274162 0
vt 0.2440828 1.192093E-07
vt 0.2857495 1.192093E-07
vt 0.1607495 1.192093E-07
vt 0.2024162 1.192093E-07
vt 0.1607495 1.192093E-07
vt 0.07741658 1.192093E-07
vt 0.1190829 1.192093E-07
vt -0.005915642 1.192093E-07
vt 0.03575046 1.192093E-07
vt -0.1725835 1.192093E-07
vt -0.08924955 1.192093E-07
vt -0.04758269 1.192093E-07
vt -0.1309171 1.192093E-07
vt 0.4940819 0
vn 0.8840234 0.4674425 0
vn 0.9748791 0.2227346 0
vn 0.9748791 0.2227346 0
vn 0.8840235 0.4674425 0
vn 0.7328963 0.6803404 0
vn 0.7328963 0.6803404 0
vn 0.5318351 0.846848 2.650114E-07
vn 0.531835 0.846848 2.692437E-07
vn 0.294541 0.9556388 3.038863E-07
vn 0.2945409 0.9556389 3.081186E-07
vn 0.03716746 0.9993091 3.221988E-07
vn 0.03716759 0.9993091 3.175633E-07
vn -0.2227398 0.9748779 3.097124E-07
vn -0.2227397 0.9748779 3.05077E-07
vn 0.9993099 -0.03714447 0
vn 0.9993099 -0.03714442 -0.0001108623
vn 0.9556401 -0.2945368 0
vn 0.9556401 -0.294537 0
vn 0.8468426 -0.5318436 0
vn 0.8468425 -0.5318437 0
vn 0.6803366 -0.7328999 0
vn 0.6803367 -0.7328998 0
vn 0.4674596 -0.8840144 -2.758523E-07
vn 0.4674598 -0.8840144 -2.682591E-07
vn 0.2227303 -0.97488 -2.958328E-07
vn 0.2227303 -0.97488 -2.958328E-07
vn 0 3.133686E-07 -1
vn -0.03717264 -0.9993089 0
vn -0.03716777 -0.9993091 -3.03391E-07
vn -0.2945469 -0.9556371 -2.873884E-07
vn -0.1672856 -0.9859084 0
vn -0.294542 -0.9556385 -2.899938E-07
vn -0.5318556 -0.846835 -2.569768E-07
vn -0.5318558 -0.846835 -2.605626E-07
vn -0.7329008 -0.6803355 0
vn -0.7329009 -0.6803353 0
vn -0.8840052 -0.467477 0
vn -0.8840052 -0.4674769 0
vn -0.9748794 -0.2227332 0
vn -0.9748795 -0.2227329 0
vn -0.9993088 0.03717326 0
vn -0.9993088 0.03717326 0
vn -0.9556401 0.2945368 0
vn -0.9556401 0.2945368 0
vn -0.8468427 0.5318434 0
vn -0.8468427 0.5318434 0
vn -0.6803368 0.7328997 0
vn -0.6803368 0.7328997 0
vn -0.4674683 0.8840098 2.766408E-07
vn -0.4674683 0.8840098 2.766408E-07
vn -0.2227397 0.9748779 3.05077E-07
vn -0.2227398 0.9748779 3.097124E-07
vn 0 3.137299E-07 -1
vn 0 -3.139165E-07 1
vn 0 -3.139165E-07 1
vn 0 -3.139168E-07 1
vn 0 -3.139165E-07 1
vn 0 -3.139165E-07 1
vn 0 -3.139165E-07 1
vn 0 -3.139166E-07 1
vn 0 -3.139162E-07 1
vn 0 -3.139165E-07 1
vn 0 -3.139166E-07 1
vn 0 -3.139166E-07 1
vn 0 -3.139165E-07 1
vn 0 -3.139175E-07 1
vn 0 -3.139149E-07 1
vn 0 -3.139173E-07 1
vn 0 -3.139174E-07 1
vn 0 -3.139164E-07 1
vn 0 -3.139156E-07 1
vn 0 -3.139165E-07 1
vn 0 -3.139165E-07 1
vn 0 -3.139165E-07 1
vn 0 -3.139161E-07 1
vn 0 -3.139165E-07 1
vn 0 -3.139164E-07 1
vn 0 -3.139166E-07 1
vn 0 -3.139165E-07 1
vn 0 -3.139166E-07 1
vn 0 -3.139164E-07 1
vn 0 -3.139166E-07 1
vn 0 -3.139166E-07 1
vn 0 -3.13917E-07 1
vn 0 -3.139165E-07 1
vn 0 -3.139164E-07 1
vn 0 -3.139165E-07 1
vn 0 -3.139163E-07 1
vn 3.287968E-06 8.255535E-07 -1
vn 0 8.619967E-07 -1
vn 5.422431E-07 1.75935E-06 -1
vn 0 4.822949E-07 -1
vn 0 5.771635E-07 -1
vn 0 0 -1
vn 0 0 -1
vn 0 0 -1
vn 0 0 -1
vn 0 5.771635E-07 -1
vn 0 0 -1
vn 0 0 -1
vn -5.32551E-07 7.163297E-07 -1
vn 0 0 -1
vn 0 4.988864E-07 -1
vn -5.32551E-07 7.163297E-07 -1
vn -3.837153E-06 9.259289E-07 -1
vn -1.404114E-05 -1.319563E-06 -1
vn 0 4.988864E-07 -1
vn 0 0 -1
vn 0 4.988864E-07 -1
vn 0 0 -1
vn 0 0 -1
vn 0 0 -1
vn 0 0 -1
vn 0 4.822949E-07 -1
vn 0 0 -1
vn 0 0 -1
vn 0 0 -1
vn 0 5.771635E-07 -1
g Scalable02_0
f 3/3/3 2/2/2 1/1/1
f 4/4/4 1/1/1 2/2/2
f 1/1/1 4/4/4 5/5/5
f 6/6/6 5/5/5 4/4/4
f 6/6/6 7/7/7 5/5/5
f 8/8/8 5/5/5 7/7/7
f 7/7/7 9/9/9 8/8/8
f 10/10/10 8/8/8 9/9/9
f 9/9/9 11/11/11 10/10/10
f 12/12/12 10/10/10 11/11/11
f 11/11/11 13/13/13 12/12/12
f 14/14/14 12/12/12 13/13/13
f 15/15/15 2/2/2 3/3/3
f 16/16/16 15/15/15 3/3/3
f 16/16/16 17/17/17 15/15/15
f 18/18/18 15/15/15 17/17/17
f 17/17/17 19/19/19 18/18/18
f 20/20/20 18/18/18 19/19/19
f 19/19/19 21/21/21 20/20/20
f 22/22/22 20/20/20 21/21/21
f 21/21/21 23/23/23 22/22/22
f 24/24/24 22/22/22 23/23/23
f 24/24/24 23/23/23 25/25/25
f 26/26/26 24/24/24 25/25/25
f 23/23/23 27/27/27 25/25/25
f 25/25/25 28/28/28 26/26/26
f 29/29/29 26/26/26 28/28/28
f 30/30/30 29/29/29 28/28/28
f 31/31/31 30/30/30 28/28/28
f 32/32/32 30/30/30 31/31/31
f 32/32/32 33/33/33 30/30/30
f 34/34/34 30/30/30 33/33/33
f 33/33/33 35/35/35 34/34/34
f 36/36/36 34/34/34 35/35/35
f 36/36/36 35/35/35 37/37/37
f 38/38/38 37/37/37 35/35/35
f 37/37/37 38/38/38 39/39/39
f 40/40/40 39/39/39 38/38/38
f 39/39/39 40/40/40 41/41/41
f 42/42/42 41/41/41 40/40/40
f 42/42/42 43/43/43 41/41/41
f 44/44/44 41/41/41 43/43/43
f 43/43/43 45/45/45 44/44/44
f 46/46/46 44/44/44 45/45/45
f 45/45/45 47/47/47 46/46/46
f 48/48/48 46/46/46 47/47/47
f 47/47/47 49/49/49 48/48/48
f 50/50/50 48/48/48 49/49/49
f 49/49/49 51/51/51 50/50/50
f 52/52/52 50/50/50 51/51/51
f 53/53/53 16/16/16 3/3/3
f 56/56/56 55/55/55 54/54/54
f 55/55/55 57/57/57 54/54/54
f 58/58/58 57/57/57 55/55/55
f 59/59/59 58/58/58 55/55/55
f 60/60/60 59/59/59 55/55/55
f 61/61/61 58/58/58 59/59/59
f 62/62/62 57/57/57 58/58/58
f 63/63/63 62/62/62 58/58/58
f 64/64/64 62/62/62 63/63/63
f 65/65/65 64/64/64 63/63/63
f 66/66/66 65/65/65 63/63/63
f 67/67/67 64/64/64 65/65/65
f 68/68/68 62/62/62 64/64/64
f 69/69/69 62/62/62 68/68/68
f 70/70/70 57/57/57 62/62/62
f 71/71/71 70/70/70 62/62/62
f 57/57/57 72/72/72 54/54/54
f 75/75/75 74/74/74 73/73/73
f 74/74/74 76/76/76 73/73/73
f 77/77/77 76/76/76 74/74/74
f 76/76/76 78/78/78 73/73/73
f 81/81/81 80/80/80 79/79/79
f 84/84/84 83/83/83 82/82/82
f 82/82/82 83/83/83 85/85/85
f 88/88/88 87/87/87 86/86/86
f 91/91/91 90/90/90 89/89/89
f 90/90/90 92/92/92 89/89/89
f 93/93/93 92/92/92 90/90/90
f 94/94/94 93/93/93 90/90/90
f 95/95/95 94/94/94 90/90/90
f 96/96/96 93/93/93 94/94/94
f 89/89/89 92/92/92 97/97/97
f 100/100/100 99/99/99 98/98/98
f 99/99/99 101/101/101 98/98/98
f 102/102/102 101/101/101 99/99/99
f 101/101/101 103/103/103 98/98/98
f 106/106/106 105/105/105 104/104/104
f 105/105/105 107/107/107 104/104/104
f 108/108/108 107/107/107 105/105/105
f 111/111/111 110/110/110 109/109/109
f 110/110/110 112/112/112 109/109/109
f 113/113/113 112/112/112 110/110/110
f 112/112/112 114/114/114 109/109/109
f 115/115/115 114/114/114 112/112/112
f 116/116/116 115/115/115 112/112/112
f 117/117/117 114/114/114 115/115/115
f 109/109/109 114/114/114 118/118/118
